<svg height="1024" width="1024" viewBox="0 0 70 70" fill="none" xmlns="http://www.w3.org/2000/svg">
<rect width="70" height="70" fill="#f9f9f9" rx="10" />
<path fill-rule="evenodd" clip-rule="evenodd" d="M54.2995 25.4245C57.6685 24.4833 59.9967 21.4385 60 17.9693C59.9967 14.5527 57.7376 11.5411 54.4374 10.5539L53.6457 10.3596C53.1615 10.2659 52.6693 10.2178 52.1759 10.2157C49.8828 10.2237 47.7083 11.2274 46.2276 12.9629C46.216 12.955 46.205 12.9488 46.1934 12.9403C45.2979 12.3797 44.2407 12.057 43.1099 12.057C39.8786 12.057 37.2555 14.7032 37.2555 17.9581C37.2555 21.213 39.8786 23.8593 43.1099 23.8593C44.2296 23.8593 45.2761 23.542 46.1659 22.9915C46.18 22.9805 46.1946 22.9738 46.2087 22.964C47.6915 24.7091 49.8743 25.7185 52.1762 25.7231C52.6225 25.7216 53.068 25.6797 53.5072 25.6016L54.2995 25.4245ZM45.9197 13.378C45.1033 12.8669 44.1421 12.573 43.1098 12.573C40.1597 12.573 37.7713 14.9799 37.7713 17.9583C37.7713 20.9366 40.1597 23.3431 43.1098 23.3431C44.132 23.3431 45.0851 23.0518 45.8964 22.55C46.7507 22.0215 47.5849 21.2587 48.1624 20.3618C48.517 19.6106 48.7025 18.7898 48.7058 17.9578C48.7024 17.1266 48.5167 16.3061 48.1624 15.5556C47.5894 14.6651 46.7641 13.9065 45.9197 13.378Z" fill="#00689F"/>
<path fill-rule="evenodd" clip-rule="evenodd" d="M33.1319 5.51593L22.8461 8.98973L21.1005 11.6485L21.0991 11.647L19.2156 14.5179L17.0742 17.7814L19.2161 20.8855L23.8696 27.6283L33.1117 29.5026L25.4984 18.1864L33.1319 5.51593ZM25.1818 17.715L31.9631 6.45376L23.1783 9.42358L21.4139 12.1139L25.1818 17.715Z" fill="#00689F"/>
<path fill-rule="evenodd" clip-rule="evenodd" d="M31.9631 6.45376L25.1818 17.715L21.4139 12.1139L23.1783 9.42358L31.9631 6.45376Z" fill="#00689F"/>
<path d="M13.3259 45.876L20.9942 49.5931L23.893 40.0188L34.8005 33.9725L33.3701 34.1795L13.7442 45.0518L13.2569 45.3139L13.3259 45.876Z" fill="#00689F"/>
<path d="M26.0359 41.5464L23.433 50.8104L12 57.0245L13.4615 56.817L33.1424 46.1211L33.6312 45.8633L33.5644 45.3042L26.0359 41.5464Z" fill="#00689F"/>
<path d="M36.6621 45.9398L44.3303 49.6569L47.2292 40.0827L58.1367 34.0363L56.7063 34.2434L37.0804 45.1156L36.593 45.3777L36.6621 45.9398Z" fill="#00689F"/>
<path d="M49.372 41.6102L46.7692 50.8743L35.3361 57.0883L36.7977 56.8808L56.4786 46.185L56.9673 45.9272L56.9005 45.368L49.372 41.6102Z" fill="#00689F"/>
<g filter="url(#filter0_d_160_209)">
<path d="M13.4162 9.74779C13.4162 9.19551 13.8639 8.74779 14.4162 8.74779H18.2156C18.7679 8.74779 19.2156 9.1955 19.2156 9.74779V14.2191C19.2156 14.414 19.1587 14.6047 19.0517 14.7677L17.4434 17.2187C17.2202 17.5589 17.2253 18.0004 17.4564 18.3353L19.04 20.6302C19.1547 20.7965 19.2163 20.9935 19.217 21.1955C19.2225 23.0507 19.235 24.9669 19.2235 26.9422C19.2203 27.4904 18.7741 27.932 18.2258 27.932H14.4162C13.8639 27.932 13.4162 27.4843 13.4162 26.932L13.4162 9.74779Z" fill="#39B8FF"/>
<path d="M29.379 7.32734C30.2613 7.02908 31.0364 7.99272 30.556 8.79054L25.9918 16.3699C25.6144 16.9966 24.7138 17.0192 24.3054 16.4122L21.7847 12.6651C21.56 12.3311 21.5574 11.895 21.7782 11.5585L22.9891 9.71203C23.1117 9.52513 23.2933 9.38468 23.5051 9.3131L29.379 7.32734Z" fill="#39B8FF"/>
<path d="M45.6147 6.74231C45.6147 6.74234 45.6147 6.7424 45.6148 6.7424C48.3928 6.74244 50.7968 7.69577 52.6134 9.30236C52.9823 9.62863 52.6684 10.2178 52.1759 10.2157C49.8884 10.2237 47.7191 11.2225 46.2386 12.9501C46.2323 12.9573 46.2216 12.9588 46.2135 12.9537C46.2068 12.9495 46.2002 12.9453 46.1934 12.9403C45.2979 12.3797 44.2407 12.057 43.1099 12.057C39.8786 12.057 37.2555 14.7032 37.2555 17.9581C37.2555 21.213 39.8786 23.8593 43.1099 23.8593C44.2296 23.8593 45.2761 23.542 46.1659 22.9915C46.174 22.9852 46.1823 22.9802 46.1906 22.9753C46.201 22.9692 46.2147 22.9711 46.2225 22.9803C47.7051 24.7154 49.8815 25.7185 52.1762 25.7231C52.6215 25.7216 52.8985 26.2557 52.5645 26.5501C50.7603 28.1407 48.384 29.0878 45.6383 29.0878C39.3602 29.0878 34.2662 24.305 34.2662 18.0557C34.2662 11.8057 39.3443 6.74232 45.6147 6.74222C45.6148 6.74222 45.6148 6.74229 45.6147 6.74231Z" fill="#39B8FF"/>
<path d="M22.4956 31.97C22.7157 31.8404 22.9771 31.8 23.2261 31.857L30.8229 33.5963C31.7171 33.8011 31.8868 35.0013 31.0843 35.4459L15.0403 44.3338C14.4203 44.6772 13.6498 44.2846 13.5632 43.5813L12.914 38.3091C12.8654 37.9137 13.056 37.5272 13.3992 37.3251L22.4956 31.97Z" fill="#39B8FF"/>
<path d="M31.8463 46.8255C32.4675 46.488 33.2332 46.884 33.3168 47.586L33.9444 52.8585C33.9914 53.2527 33.8007 53.6372 33.4587 53.8385L24.6343 59.0323C24.4159 59.1609 24.1568 59.2017 23.9094 59.1466L16.0657 57.3976C15.1636 57.1965 14.9938 55.9842 15.8058 55.543L31.8463 46.8255Z" fill="#39B8FF"/>
<path d="M45.3415 32.3054C45.5616 32.1758 45.8229 32.1354 46.0719 32.1924L53.6692 33.9317C54.5634 34.1365 54.7331 35.3367 53.9306 35.7812L37.8865 44.6692C37.2666 45.0126 36.4961 44.6201 36.4095 43.9167L35.76 38.644C35.7113 38.2487 35.9019 37.8621 36.2452 37.66L45.3415 32.3054Z" fill="#39B8FF"/>
<path d="M55.1912 46.8848C55.8123 46.5472 56.5781 46.9432 56.6617 47.6452L57.2893 52.9177C57.3362 53.3118 57.1456 53.6964 56.8036 53.8977L47.9796 59.0915C47.7612 59.2201 47.5021 59.2609 47.2547 59.2058L39.4111 57.4572C38.509 57.2561 38.3391 56.0438 39.1511 55.6025L55.1912 46.8848Z" fill="#39B8FF"/>
</g>
<defs>
<!-- <filter id="filter0_d_160_209" x="0.906494" y="0.742249" width="68.3899" height="76.4875" filterUnits="userSpaceOnUse" color-interpolation-filters="sRGB">
<feFlood flood-opacity="0" result="BackgroundImageFix"/>
<feColorMatrix in="SourceAlpha" type="matrix" values="0 0 0 0 0 0 0 0 0 0 0 0 0 0 0 0 0 0 127 0" result="hardAlpha"/>
<feOffset dy="6"/>
<feGaussianBlur stdDeviation="6"/>
<feComposite in2="hardAlpha" operator="out"/>
<feColorMatrix type="matrix" values="0 0 0 0 0.219608 0 0 0 0 0.717647 0 0 0 0 1 0 0 0 0.5 0"/>
<feBlend mode="normal" in2="BackgroundImageFix" result="effect1_dropShadow_160_209"/>
<feBlend mode="normal" in="SourceGraphic" in2="effect1_dropShadow_160_209" result="shape"/>
</filter> -->
</defs>
</svg>
