<?xml version="1.0" encoding="UTF-8" standalone="no"?>
<svg
   xmlns:dc="http://purl.org/dc/elements/1.1/"
   xmlns:cc="http://creativecommons.org/ns#"
   xmlns:rdf="http://www.w3.org/1999/02/22-rdf-syntax-ns#"
   xmlns:svg="http://www.w3.org/2000/svg"
   xmlns="http://www.w3.org/2000/svg"
   xmlns:xlink="http://www.w3.org/1999/xlink"
   xmlns:sodipodi="http://sodipodi.sourceforge.net/DTD/sodipodi-0.dtd"
   xmlns:inkscape="http://www.inkscape.org/namespaces/inkscape"
   width="128px"
   height="128px"
   viewBox="0 0 128 128"
   version="1.1"
   id="SVGRoot"
   inkscape:version="1.0.1 (3bc2e813f5, 2020-09-07)"
   sodipodi:docname="logo_flat.svg"
   inkscape:export-filename="/home/xypnox/Projects/KOSS/design/logo/exported/koss-logo-small.png"
   inkscape:export-xdpi="96"
   inkscape:export-ydpi="96">
  <sodipodi:namedview
     id="base"
     pagecolor="#ffffff"
     bordercolor="#666666"
     borderopacity="1.0"
     inkscape:pageopacity="0.0"
     inkscape:pageshadow="2"
     inkscape:zoom="5.6568543"
     inkscape:cx="47.919014"
     inkscape:cy="64.562675"
     inkscape:document-units="px"
     inkscape:current-layer="layer1"
     showgrid="false"
     inkscape:window-width="1920"
     inkscape:window-height="1037"
     inkscape:window-x="0"
     inkscape:window-y="0"
     inkscape:window-maximized="0"
     inkscape:grid-bbox="true"
     inkscape:snap-bbox="true"
     inkscape:bbox-paths="true"
     inkscape:bbox-nodes="true"
     inkscape:snap-bbox-edge-midpoints="true"
     inkscape:snap-bbox-midpoints="true"
     inkscape:object-paths="true"
     inkscape:snap-intersection-paths="true"
     inkscape:snap-smooth-nodes="true"
     inkscape:snap-midpoints="true"
     inkscape:snap-object-midpoints="true"
     inkscape:snap-center="true"
     inkscape:snap-text-baseline="true"
     inkscape:snap-page="true"
     showguides="true"
     inkscape:guide-bbox="true"
     inkscape:snap-global="true"
     inkscape:document-rotation="0">
    <sodipodi:guide
       position="64,128"
       orientation="1,0"
       id="guide1523"
       inkscape:locked="false" />
  </sodipodi:namedview>
  <defs
     id="defs916">
    <linearGradient
       id="linearGradient969"
       inkscape:collect="always">
      <stop
         id="stop963"
         offset="0"
         style="stop-color:#ff41be;stop-opacity:1" />
      <stop
         style="stop-color:#166ef2;stop-opacity:1"
         offset="0.24285854"
         id="stop965" />
      <stop
         id="stop967"
         offset="1"
         style="stop-color:#5affd6;stop-opacity:1" />
    </linearGradient>
    <linearGradient
       inkscape:collect="always"
       xlink:href="#linearGradient969"
       id="linearGradient1060"
       x1="81.862755"
       y1="96.149841"
       x2="42.954548"
       y2="33.390221"
       gradientUnits="userSpaceOnUse"
       gradientTransform="translate(2)" />
  </defs>
  <metadata
     id="metadata919">
    <rdf:RDF>
      <cc:Work
         rdf:about="">
        <dc:format>image/svg+xml</dc:format>
        <dc:type
           rdf:resource="http://purl.org/dc/dcmitype/StillImage" />
        <dc:title></dc:title>
      </cc:Work>
    </rdf:RDF>
  </metadata>
  <g
     id="layer1"
     inkscape:groupmode="layer"
     inkscape:label="Layer 1">
    <rect
       style="opacity:1;fill:#232b40;fill-opacity:1;fill-rule:nonzero;stroke:none;stroke-width:1.88148141;stroke-linecap:round;stroke-linejoin:round;stroke-miterlimit:3.5;stroke-dasharray:none;stroke-opacity:1;paint-order:stroke markers fill"
       id="rect896"
       width="128"
       height="128"
       x="7.1054274e-15"
       y="0"
       ry="19.91111"
       inkscape:export-filename="/home/xypnox/koss-sticker.png"
       inkscape:export-xdpi="650.23999"
       inkscape:export-ydpi="650.23999" />
    <path
       id="path1036"
       style="fill:url(#linearGradient1060);fill-opacity:1;stroke:none;stroke-width:0.0441942;stroke-opacity:1"
       d="m 60.749471,14.280705 c -0.190909,0.03098 -18.588349,6.242348 -18.835938,6.359375 -0.207527,0.09809 -0.05385,-0.121568 -2,2.841797 -0.526786,0.802124 -1.294192,1.966115 -1.705078,2.585938 l -0.748047,1.126953 -0.02148,-3.738281 -0.02148,-3.738282 -0.125,-0.1875 c -0.07829,-0.118297 -0.192273,-0.218674 -0.308594,-0.271484 -0.178848,-0.08122 -0.391936,-0.085 -6.501953,-0.08594 h -6.31836 l -0.193359,0.09375 c -0.116649,0.05647 -0.24105,0.165464 -0.3125,0.273437 l -0.117188,0.177734 -0.01172,18.355469 -0.0059,9.0625 c -0.0014,-0.251852 10e-4,-1.895025 -0.002,-1.447266 -0.0076,1.142402 0.003,1.782598 0,3.183594 l -0.0039,6.06836 c -0.0094,0.527265 -0.0196,1.086116 0.0059,1.597656 0.0096,0.192431 0.08508,0.307446 0.201172,0.433594 0.115983,0.126026 0.219892,0.194141 0.363281,0.238281 0.09487,0.02921 0.863292,0.0329 6.427735,0.0293 l 6.320312,-0.0039 0.125,-0.05859 c 0.233957,-0.109675 0.405415,-0.319543 0.458985,-0.558594 0.04402,-2.525678 0.06916,-5.094496 0.05273,-7.503906 -0.0083,-1.086912 -0.01857,-1.647134 -0.02539,-1.796875 0.002,-0.391312 0.01473,-0.558332 0.05078,-0.523438 0.03768,0.03646 1.391625,1.986425 3.009765,4.332031 1.61814,2.345608 2.995757,4.319672 3.060547,4.388672 0.06479,0.069 0.167729,0.145512 0.230469,0.169922 0.06274,0.02441 0.886709,0.202339 1.830078,0.394532 l 1.5625,0.318359 c -5.92e-4,9e-6 -0.06442,-10e-6 -0.06445,0 -0.0031,10e-4 0.225231,0.04781 0.507812,0.103515 0.961943,0.189659 12.954363,2.624586 12.976563,2.634766 0.01215,0.0056 0.107633,0.0074 0.210937,0.0039 0.152808,-0.0052 0.209714,-0.01879 0.308594,-0.06836 0.360164,-0.180554 0.541842,-0.586999 0.425781,-0.953125 -0.03244,-0.102349 -0.244795,-0.434732 -0.925781,-1.447266 -2.350497,-3.442231 -3.90098,-5.772285 -6.402344,-9.490234 -3.40577,-5.06178 -6.200897,-9.22454 -6.210937,-9.25 -0.01004,-0.02546 3.007638,-5.066808 6.705078,-11.203125 3.697439,-6.136317 6.760121,-11.230132 6.806641,-11.320313 0.274938,-0.533023 -0.20067,-1.220853 -0.779297,-1.126953 z m 23.613281,1.367188 c -1.745492,-0.04102 -3.920688,0.09173 -5.208984,0.349609 -10.708031,2.14342 -18.312287,11.642345 -17.914063,22.38086 0.105639,2.848667 0.64604,5.313695 1.703125,7.765625 3.024728,7.01592 9.626365,11.87612 17.632813,12.982421 1.457315,0.201367 5.393378,0.06552 6.912109,-0.238281 4.312166,-0.862603 7.930946,-2.874285 10.94336,-6.083984 0.95834,-1.021109 1.18026,-1.189837 1.931638,-1.472656 2.05388,-0.773079 4.27175,-2.235667 5.64844,-3.722657 6.06554,-6.551505 5.17705,-16.54156 -1.94532,-21.851562 -0.9754,-0.727198 -2.80569,-1.728004 -3.66015,-2.001953 -0.35812,-0.114818 -0.956898,-0.631871 -2.312499,-1.996094 -1.288489,-1.296681 -2.179421,-2.070889 -3.011719,-2.621094 -2.865031,-1.893978 -5.7759,-2.971836 -9.166016,-3.390625 -0.437603,-0.05406 -0.970903,-0.08594 -1.552734,-0.09961 z m -0.794922,2.392578 c 2.307706,0.0218 4.614537,0.444651 6.789063,1.279297 1.757296,0.674501 4.1943,2.161246 5.066406,3.091797 l 0.287109,0.30664 -1.146484,0.08594 c -3.729884,0.281569 -6.921363,1.624163 -9.427734,3.96875 L 84.319783,27.53852 83.47994,27.151801 c -1.661691,-0.762156 -2.638097,-0.956765 -4.716797,-0.947265 -1.660746,0.0076 -2.000683,0.04555 -2.97461,0.341796 -3.807699,1.158221 -6.494944,3.818915 -7.785156,7.707032 -0.330115,0.994824 -0.352822,1.197853 -0.357422,3.1875 -0.0057,2.493023 0.115664,3.074008 1.056641,5.017578 1.167371,2.411185 2.930961,4.174743 5.310547,5.308594 1.899133,0.904918 2.541392,1.044175 4.8125,1.046874 2.11841,0.0025 3.040053,-0.178769 4.666015,-0.916015 l 0.78125,-0.353516 0.744141,0.681641 c 2.668882,2.442519 6.461534,4.027344 9.636719,4.027344 0.43787,0 0.796875,0.05303 0.796875,0.117187 0,0.231158 -2.191561,1.755377 -3.488282,2.425781 -2.152559,1.112871 -4.134494,1.685826 -6.74414,1.951172 -2.328228,0.236731 -4.650299,0.04637 -7.080078,-0.580078 -7.50783,-1.935657 -13.041975,-7.914709 -14.265625,-15.412109 -0.233377,-1.429944 -0.260706,-4.421524 -0.05273,-5.814453 0.853573,-5.716977 3.992801,-10.62615 8.78711,-13.742188 3.262695,-2.120574 7.11476,-3.194538 10.960937,-3.158203 z m -26.693359,0.203125 c 0.0066,0.01632 -2.33067,3.921814 -5.19336,8.677734 -2.86269,4.755921 -5.217805,8.646043 -5.234375,8.646485 -0.0434,0.0012 -5.806368,-8.577227 -5.792968,-8.623047 0.0062,-0.02106 0.620362,-0.96741 1.365234,-2.103516 l 1.355469,-2.066406 6.74414,-2.28125 c 3.709269,-1.254271 6.74926,-2.26632 6.75586,-2.25 z M 26.03658,21.692815 h 4.441406 4.441407 v 4.695312 4.695313 l -1.882813,2.873047 c -1.036254,1.579789 -1.903704,2.927643 -1.927734,2.996093 -0.02403,0.06845 -0.03466,0.221085 -0.02344,0.337891 0.01875,0.195103 0.173354,0.436171 1.919922,2.96875 l 1.902344,2.755859 0.0293,4.123047 c 0.01579,2.266834 0.01442,4.896011 -0.002,5.84375 l -0.0293,1.722657 h -4.435547 -4.433594 v -16.50586 z m 52.785156,6.886719 c 1.432584,-0.0039 2.856897,0.327671 4.128907,0.996093 1.67315,0.879216 3.754345,2.824836 4.419921,4.134766 0.48478,0.954101 0.75636,2.321218 0.75586,3.792969 -5.49e-4,1.618188 -0.210472,2.617499 -0.800781,3.8125 -0.982805,1.98956 -3.88694,4.262954 -6.21875,4.867187 -0.92394,0.239418 -2.744298,0.344051 -3.59375,0.205078 -3.002025,-0.491137 -5.405307,-2.314172 -6.691407,-5.072265 -0.655493,-1.405731 -0.808087,-2.141737 -0.804687,-3.875 0.0033,-1.710691 0.252189,-2.734057 1.033203,-4.25 0.620851,-1.205068 2.382353,-2.966976 3.59375,-3.59375 1.305295,-0.67536 2.74515,-1.013723 4.177734,-1.017578 z M 41.960408,60.651802 c -0.05284,0.0138 -10.579875,6.19937 -18.08789,10.6289 -0.965653,0.56971 -1.241829,0.76176 -1.34375,0.9375 l -0.126954,0.22071 0.957032,7.802728 c 0.609731,4.97051 0.990961,7.87488 1.050781,8.00195 0.05165,0.10971 0.154136,0.23833 0.228516,0.28516 0.07438,0.0468 2.595702,1.27742 5.603515,2.73437 3.007812,1.45696 6.157812,2.98234 7,3.39063 1.346603,0.65283 1.56067,0.73795 1.775391,0.71094 0.542341,-0.0682 0.347513,0.48202 3.203125,-8.94922 1.424103,-4.70339 2.593962,-8.557648 2.601562,-8.564448 0.0076,-0.007 3.121484,-1.7349 6.919922,-3.83985 3.798437,-2.10494 8.185937,-4.53661 9.75,-5.4043 3.010057,-1.66987 3.1255,-1.75088 3.125,-2.18164 -3.19e-4,-0.26492 -0.205621,-0.58237 -0.451172,-0.69531 -0.225987,-0.10394 -22.098393,-5.10597 -22.205078,-5.07812 z m 41.248047,0.59179 -9.654297,5.6836 c -6.68488,3.93527 -9.69281,5.75267 -9.78125,5.9082 -0.11527,0.2027 -0.03392,0.98531 0.826172,8.033198 0.759033,6.21979 0.983663,7.85527 1.107422,8.03125 0.110118,0.15659 2.200371,1.21715 7.173828,3.63868 3.860128,1.87946 7.126836,3.41952 7.257813,3.42382 0.599512,0.0198 0.500146,0.28944 3.298828,-8.95117 1.425235,-4.7058 2.60304,-8.567288 2.61914,-8.580078 0.03607,-0.0286 6.503592,-3.60765 13.818361,-7.64843 3.014038,-1.665 5.588958,-3.14412 5.722658,-3.28516 0.30837,-0.32535 0.30837,-0.62226 0,-0.95117 -0.23467,-0.25028 -0.62478,-0.34678 -11.314456,-2.78125 z m -40.832031,2.02149 8.318359,1.90625 c 4.57496,1.04768 8.329597,1.91358 8.341797,1.92578 0.02278,0.0228 -0.857057,0.51356 -10.357422,5.77539 -3.042188,1.68493 -9.268202,5.13346 -13.835937,7.664058 -4.567734,2.53061 -8.314092,4.60156 -8.326172,4.60156 -0.04652,0 -0.105637,-0.44672 -0.78125,-5.958978 -0.387529,-3.16181 -0.670785,-5.69906 -0.640625,-5.72656 0.02978,-0.0272 3.930082,-2.32932 8.667969,-5.11719 z m 41.265625,0.62109 c 0.152771,0 16.310833,3.70549 16.488281,3.78125 0.13037,0.0557 -0.491508,0.43697 -2.873047,1.75781 -1.671442,0.92701 -8.972682,4.97122 -16.224609,8.98829 -7.251925,4.017058 -13.221385,7.304678 -13.265625,7.304678 -0.04424,0 -0.387082,-2.49637 -0.761719,-5.54687 -0.374637,-3.050508 -0.702346,-5.668548 -0.728516,-5.818358 l -0.04687,-0.27344 8.660156,-5.09766 c 4.763868,-2.80346 8.702183,-5.0957 8.751953,-5.0957 z m -35.634766,15.4668 c -0.195671,0 -0.36054,0.0708 -0.492187,0.21094 -0.152114,0.16192 -0.728215,2.100328 -2.488282,8.374998 -1.259535,4.49026 -2.321654,8.21597 -2.359374,8.27929 -0.03772,0.0633 -4.641859,2.60015 -10.232422,5.63672 -5.590563,3.03657 -10.235243,5.60325 -10.320313,5.70508 -0.337987,0.40458 -0.09471,1.05907 0.445313,1.19922 0.132342,0.0343 5.173086,1.1631 11.201172,2.50976 6.028084,1.34665 11.081127,2.45399 11.230468,2.45898 0.208921,0.007 2.419885,-1.25372 9.589844,-5.46874 5.125233,-3.01298 9.394888,-5.57495 9.486328,-5.69336 0.16423,-0.21265 0.153519,-0.31173 -0.771484,-8.05664 -0.682342,-5.71316 -0.973127,-7.89845 -1.074219,-8.05274 -0.198856,-0.30349 -13.80635,-7.103508 -14.214844,-7.103508 z m 41.623047,0.52344 c -0.29364,-0.003 -0.567698,0.140488 -0.673828,0.378898 -0.04974,0.11175 -1.199378,3.71662 -2.554688,8.01172 -1.355309,4.2951 -2.497822,7.84309 -2.539062,7.88281 -0.04124,0.0397 -4.629057,2.54309 -10.195312,5.56445 -5.566257,3.02136 -10.208979,5.59202 -10.31836,5.71289 -0.109384,0.12087 -0.199219,0.29959 -0.199219,0.39649 0,0.28186 0.24583,0.6808 0.462891,0.75 0.109914,0.0351 5.23124,1.18902 11.380859,2.56445 6.149619,1.37542 11.268671,2.48119 11.376953,2.45899 0.279298,-0.0572 18.685666,-10.88621 18.873046,-11.10352 0.0861,-0.0998 0.15619,-0.32105 0.15625,-0.5 10e-5,-0.32299 -1.72836,-14.966 -1.81836,-15.40429 -0.0264,-0.12865 -0.12108,-0.2994 -0.20898,-0.37891 -0.1533,-0.13873 -12.800166,-6.04616 -13.447268,-6.281248 -0.09659,-0.0351 -0.197042,-0.0519 -0.294922,-0.0527 z m 11.80859,9.716788 c 0.0652,0.15478 1.41896,11.51098 1.37695,11.55078 -0.0135,0.0128 -3.723068,2.19889 -8.244134,4.85742 -4.521064,2.65853 -8.299254,4.88441 -8.396484,4.94532 -0.150384,0.0943 -1.453254,-0.17523 -8.722656,-1.79883 -4.699875,-1.0497 -8.565024,-1.92773 -8.589844,-1.95313 -0.02482,-0.0254 7.280294,-4.0288 16.234375,-8.89648 13.483255,-7.32986 16.290893,-8.82602 16.341793,-8.70508 z m -41.248043,0.0312 c 0.0215,0.0215 0.338526,2.56105 0.703125,5.64453 0.364601,3.08349 0.677532,5.69525 0.695312,5.80274 0.02882,0.17423 -0.881819,0.73246 -8.384765,5.14843 -4.628638,2.72425 -8.469479,4.94836 -8.537109,4.94336 -0.104563,-0.008 -13.618788,-3.019 -16.197266,-3.60937 -0.707701,-0.16204 -0.849423,-0.22105 -0.751953,-0.31055 0.183327,-0.16839 32.427976,-17.66382 32.472656,-17.61914 z" />
  </g>
</svg>
