<?xml version="1.0" encoding="UTF-8" standalone="no"?>
<!-- Created with Inkscape (http://www.inkscape.org/) -->

<svg
   xmlns:dc="http://purl.org/dc/elements/1.1/"
   xmlns:cc="http://creativecommons.org/ns#"
   xmlns:rdf="http://www.w3.org/1999/02/22-rdf-syntax-ns#"
   xmlns:svg="http://www.w3.org/2000/svg"
   xmlns="http://www.w3.org/2000/svg"
   xmlns:xlink="http://www.w3.org/1999/xlink"
   xmlns:sodipodi="http://sodipodi.sourceforge.net/DTD/sodipodi-0.dtd"
   xmlns:inkscape="http://www.inkscape.org/namespaces/inkscape"
   width="128px"
   height="128px"
   viewBox="0 0 128 128"
   version="1.1"
   id="SVGRoot"
   inkscape:version="0.92.3 (2405546, 2018-03-11)"
   sodipodi:docname="logo.svg"
   inkscape:export-filename="/home/xypnox/Projects/KOSS/design/logo/exported/koss-logo-small.png"
   inkscape:export-xdpi="96"
   inkscape:export-ydpi="96">
  <sodipodi:namedview
     id="base"
     pagecolor="#ffffff"
     bordercolor="#666666"
     borderopacity="1.0"
     inkscape:pageopacity="0.0"
     inkscape:pageshadow="2"
     inkscape:zoom="4"
     inkscape:cx="-5.022575"
     inkscape:cy="73.379752"
     inkscape:document-units="px"
     inkscape:current-layer="layer1"
     showgrid="false"
     inkscape:window-width="1920"
     inkscape:window-height="1057"
     inkscape:window-x="0"
     inkscape:window-y="0"
     inkscape:window-maximized="0"
     inkscape:grid-bbox="true"
     inkscape:snap-bbox="true"
     inkscape:bbox-paths="true"
     inkscape:bbox-nodes="true"
     inkscape:snap-bbox-edge-midpoints="true"
     inkscape:snap-bbox-midpoints="true"
     inkscape:object-paths="true"
     inkscape:snap-intersection-paths="true"
     inkscape:snap-smooth-nodes="true"
     inkscape:snap-midpoints="true"
     inkscape:snap-object-midpoints="true"
     inkscape:snap-center="true"
     inkscape:snap-text-baseline="true"
     inkscape:snap-page="true"
     showguides="true"
     inkscape:guide-bbox="true"
     inkscape:snap-global="false">
    <sodipodi:guide
       position="64,128"
       orientation="1,0"
       id="guide1523"
       inkscape:locked="false" />
  </sodipodi:namedview>
  <defs
     id="defs916">
    <linearGradient
       inkscape:collect="always"
       xlink:href="#linearGradient969"
       id="linearGradient926"
       gradientUnits="userSpaceOnUse"
       gradientTransform="matrix(0.15523734,0,0,0.15523734,4.5895995,-27.407846)"
       x1="460.02142"
       y1="835.21771"
       x2="217.85042"
       y2="304.99863" />
    <linearGradient
       id="linearGradient969"
       inkscape:collect="always">
      <stop
         id="stop963"
         offset="0"
         style="stop-color:#ff41be;stop-opacity:1" />
      <stop
         style="stop-color:#166ef2;stop-opacity:1"
         offset="0.24285854"
         id="stop965" />
      <stop
         id="stop967"
         offset="1"
         style="stop-color:#5affd6;stop-opacity:1" />
    </linearGradient>
    <linearGradient
       inkscape:collect="always"
       xlink:href="#linearGradient969"
       id="linearGradient928"
       gradientUnits="userSpaceOnUse"
       gradientTransform="matrix(3.3729223,0,0,3.3729223,-93.953589,-510.25561)"
       x1="50.38826"
       y1="181.59468"
       x2="39.242439"
       y2="157.19157" />
  </defs>
  <metadata
     id="metadata919">
    <rdf:RDF>
      <cc:Work
         rdf:about="">
        <dc:format>image/svg+xml</dc:format>
        <dc:type
           rdf:resource="http://purl.org/dc/dcmitype/StillImage" />
        <dc:title />
      </cc:Work>
    </rdf:RDF>
  </metadata>
  <g
     id="layer1"
     inkscape:groupmode="layer"
     inkscape:label="Layer 1">
    <rect
       style="opacity:1;fill:#232b40;fill-opacity:1;fill-rule:nonzero;stroke:none;stroke-width:1.88148141;stroke-linecap:round;stroke-linejoin:round;stroke-miterlimit:3.5;stroke-dasharray:none;stroke-opacity:1;paint-order:stroke markers fill"
       id="rect896"
       width="128"
       height="128"
       x="7.1054274e-15"
       y="0"
       ry="19.91111"
       inkscape:export-filename="/home/xypnox/koss-sticker.png"
       inkscape:export-xdpi="650.23999"
       inkscape:export-ydpi="650.23999" />
    <path
       inkscape:connector-curvature="0"
       style="color:#000000;font-style:normal;font-variant:normal;font-weight:normal;font-stretch:normal;font-size:medium;line-height:normal;font-family:sans-serif;font-variant-ligatures:normal;font-variant-position:normal;font-variant-caps:normal;font-variant-numeric:normal;font-variant-alternates:normal;font-feature-settings:normal;text-indent:0;text-align:start;text-decoration:none;text-decoration-line:none;text-decoration-style:solid;text-decoration-color:#000000;letter-spacing:normal;word-spacing:normal;text-transform:none;writing-mode:lr-tb;direction:ltr;text-orientation:mixed;dominant-baseline:auto;baseline-shift:baseline;text-anchor:start;white-space:normal;shape-padding:0;clip-rule:nonzero;display:inline;overflow:visible;visibility:visible;opacity:1;isolation:auto;mix-blend-mode:normal;color-interpolation:sRGB;color-interpolation-filters:linearRGB;solid-color:#000000;solid-opacity:1;vector-effect:none;fill:url(#linearGradient926);fill-opacity:1;fill-rule:nonzero;stroke:url(#linearGradient928);stroke-width:1.6289866;stroke-linecap:round;stroke-linejoin:round;stroke-miterlimit:3.5;stroke-dasharray:none;stroke-dashoffset:0;stroke-opacity:1;paint-order:stroke markers fill;color-rendering:auto;image-rendering:auto;shape-rendering:auto;text-rendering:auto;enable-background:accumulate"
       d="m 62.591861,15.037093 -18.562176,6.26897 -3.150196,4.798056 -0.0026,-0.0026 -2.468893,3.762871 v -9.925165 h -12.32789 v 36.481928 h 12.321316 l 0.0066,-0.458059 c 0.04727,-4.106101 0.01981,-8.024368 0.0058,-11.833491 l 7.462875,10.812385 16.678674,3.382532 -13.739317,-20.4217 z m 22.526792,1.281575 c -11.818001,0 -21.411408,9.564457 -21.411408,21.348567 0,11.785297 9.6492,20.840071 21.453576,20.840078 6.580445,0 12.063898,-2.923018 15.631089,-7.542283 6.07979,-1.698621 10.2813,-7.193402 10.28732,-13.454063 -0.006,-6.165707 -4.0829,-11.60057 -10.03845,-13.38213 -3.569951,-4.783641 -9.177439,-7.810169 -15.922127,-7.810169 z m -24.63602,0.410933 -12.237804,20.322476 -6.799792,-10.107908 3.184094,-4.855105 z m 24.63602,0.520895 c 6.03183,0 11.086342,2.490224 14.493375,6.52777 -0.873798,-0.169177 -1.762146,-0.256002 -2.652446,-0.259626 -4.138375,0.01474 -8.062451,1.825752 -10.73464,4.957631 -0.02066,-0.01474 -0.04119,-0.02502 -0.06201,-0.04051 -1.615982,-1.011576 -3.523865,-1.594117 -5.564519,-1.594117 -5.831451,0 -10.565141,4.775488 -10.565141,10.649479 0,5.873997 4.733692,10.64948 10.565141,10.64948 2.020639,0 3.909105,-0.572622 5.51491,-1.565998 0.02548,-0.01969 0.05141,-0.03188 0.07689,-0.04962 2.676017,3.149292 6.615163,4.970827 10.769366,4.979128 0.805265,-0.0026 1.609239,-0.07849 2.401922,-0.219108 -3.391021,3.890039 -8.327604,6.291299 -14.200685,6.291299 -11.329645,0 -20.522573,-8.631156 -20.522573,-19.909075 0,-11.279119 9.164387,-20.416739 20.480405,-20.416739 z M 27.012017,20.8695 h 10.465927 v 10.41301 l -3.864572,5.88946 3.865398,5.601725 c 0.01041,4.076353 0.04367,8.317298 -8.82e-4,12.716535 h -10.4659 z m 53.586391,6.903145 c 1.863019,0 3.597526,0.530419 5.070908,1.452727 1.523793,0.953833 3.013167,2.322826 4.047295,3.929892 0.639331,1.354384 0.974425,2.834962 0.980614,4.335031 -0.0059,1.501424 -0.340674,2.982675 -0.980614,4.338341 -1.042217,1.618663 -2.547581,2.995123 -4.089463,3.948905 -1.464047,0.905642 -3.183974,1.431231 -5.028739,1.431231 -5.323865,0 -9.634138,-4.342858 -9.634138,-9.717651 0,-5.374839 4.310272,-9.718476 9.634137,-9.718476 z M 43.860188,61.425992 24.966458,72.548415 26.849131,87.872749 40.687669,94.580765 45.918976,77.302648 65.60315,66.391065 Z M 85.088884,62.031225 66.195152,73.152821 68.078657,88.477983 81.917195,95.185992 87.148502,77.90788 106.83267,66.996298 Z M 44.015631,62.413223 63.021808,66.764785 27.604022,86.385298 25.961126,73.042027 Z M 85.244325,63.01845 104.25133,67.370025 68.833548,86.990531 67.189822,73.646434 Z M 49.786029,80.059274 45.088844,96.777635 24.456306,107.99182 c 7.448431,1.65312 14.895078,3.31366 22.342407,4.97169 l 18.40012,-10.8256 -1.826453,-15.297035 z m 41.599938,0.522555 -5.067596,16.060208 -20.632538,11.214193 c 7.448444,1.65304 14.895072,3.31365 22.342407,4.97168 l 18.40012,-10.82559 -1.82728,-15.296223 z m 12.453603,7.597669 1.58668,13.329202 -17.553455,10.33198 -19.549396,-4.35818 z M 62.610878,88.315097 64.19755,101.6443 46.643276,111.97628 27.093873,107.61727 Z"
       id="path1545"
       inkscape:export-filename="/home/xypnox/koss-sticker.png"
       inkscape:export-xdpi="650.23999"
       inkscape:export-ydpi="650.23999" />
  </g>
</svg>
