<?xml version="1.0" encoding="UTF-8" standalone="no"?>
<!-- Created with Inkscape (http://www.inkscape.org/) -->

<svg
   xmlns:dc="http://purl.org/dc/elements/1.1/"
   xmlns:cc="http://creativecommons.org/ns#"
   xmlns:rdf="http://www.w3.org/1999/02/22-rdf-syntax-ns#"
   xmlns:svg="http://www.w3.org/2000/svg"
   xmlns="http://www.w3.org/2000/svg"
   xmlns:sodipodi="http://sodipodi.sourceforge.net/DTD/sodipodi-0.dtd"
   xmlns:inkscape="http://www.inkscape.org/namespaces/inkscape"
   width="128px"
   height="128px"
   viewBox="0 0 128 128"
   version="1.1"
   id="SVGRoot"
   inkscape:version="0.92.3 (2405546, 2018-03-11)"
   sodipodi:docname="logo-light.svg">
  <sodipodi:namedview
     id="base"
     pagecolor="#ffffff"
     bordercolor="#666666"
     borderopacity="1.0"
     inkscape:pageopacity="0.0"
     inkscape:pageshadow="2"
     inkscape:zoom="2.8284271"
     inkscape:cx="62.086989"
     inkscape:cy="66.125371"
     inkscape:document-units="px"
     inkscape:current-layer="layer1"
     showgrid="false"
     inkscape:window-width="922"
     inkscape:window-height="1007"
     inkscape:window-x="972"
     inkscape:window-y="24"
     inkscape:window-maximized="0"
     inkscape:grid-bbox="true"
     inkscape:snap-bbox="true"
     inkscape:bbox-paths="true"
     inkscape:bbox-nodes="true"
     inkscape:snap-bbox-edge-midpoints="true"
     inkscape:snap-bbox-midpoints="true"
     inkscape:object-paths="true"
     inkscape:snap-intersection-paths="true"
     inkscape:snap-smooth-nodes="true"
     inkscape:snap-midpoints="true"
     inkscape:snap-object-midpoints="true"
     inkscape:snap-center="true"
     inkscape:snap-text-baseline="true"
     inkscape:snap-page="true"
     showguides="false"
     inkscape:guide-bbox="true"
     inkscape:snap-global="false">
    <sodipodi:guide
       position="64,128"
       orientation="1,0"
       id="guide1523"
       inkscape:locked="false" />
    <inkscape:grid
       type="xygrid"
       id="grid842" />
  </sodipodi:namedview>
  <defs
     id="defs916" />
  <metadata
     id="metadata919">
    <rdf:RDF>
      <cc:Work
         rdf:about="">
        <dc:format>image/svg+xml</dc:format>
        <dc:type
           rdf:resource="http://purl.org/dc/dcmitype/StillImage" />
        <dc:title />
      </cc:Work>
    </rdf:RDF>
  </metadata>
  <g
     id="layer1"
     inkscape:groupmode="layer"
     inkscape:label="Layer 1">
    <path
       style="color:#000000;font-style:normal;font-variant:normal;font-weight:normal;font-stretch:normal;font-size:medium;line-height:normal;font-family:sans-serif;font-variant-ligatures:normal;font-variant-position:normal;font-variant-caps:normal;font-variant-numeric:normal;font-variant-alternates:normal;font-feature-settings:normal;text-indent:0;text-align:start;text-decoration:none;text-decoration-line:none;text-decoration-style:solid;text-decoration-color:#000000;letter-spacing:normal;word-spacing:normal;text-transform:none;writing-mode:lr-tb;direction:ltr;text-orientation:mixed;dominant-baseline:auto;baseline-shift:baseline;text-anchor:start;white-space:normal;shape-padding:0;clip-rule:nonzero;display:inline;overflow:visible;visibility:visible;opacity:1;isolation:auto;mix-blend-mode:normal;color-interpolation:sRGB;color-interpolation-filters:linearRGB;solid-color:#000000;solid-opacity:1;vector-effect:none;fill:#4084d6;fill-opacity:0.94117647;fill-rule:nonzero;stroke:none;stroke-width:1.6289866;stroke-linecap:round;stroke-linejoin:round;stroke-miterlimit:3.5;stroke-dasharray:none;stroke-dashoffset:0;stroke-opacity:1;paint-order:stroke markers fill;color-rendering:auto;image-rendering:auto;shape-rendering:auto;text-rendering:auto;enable-background:accumulate"
       d="m 62.601562,14.222656 c -0.09162,-9.37e-4 -0.182743,0.01359 -0.269531,0.04297 l -18.5625,6.267578 c -0.172518,0.05869 -0.320372,0.173538 -0.419922,0.326172 l -3.111328,4.738281 -0.0059,0.0059 c -0.01302,0.01644 -0.0254,0.03338 -0.03711,0.05078 l -0.972656,1.482422 V 19.939453 C 39.222548,19.489687 38.857969,19.12509 38.408203,19.125 H 26.080078 c -0.449782,6.7e-5 -0.814386,0.364671 -0.814453,0.814453 v 36.480469 c 6.7e-5,0.449782 0.364671,0.814386 0.814453,0.814453 h 12.322266 c 0.445246,-2e-5 0.807981,-0.357535 0.814453,-0.802734 l 0.0059,-0.457032 v -0.002 c 0.03693,-3.207731 0.01612,-6.222386 0.0039,-9.232422 l 5.980469,8.664063 c 0.119483,0.17341 0.301482,0.293809 0.507813,0.335937 L 62.392613,59.123 c 0.714751,0.145741 1.246023,-0.649309 0.837891,-1.253906 L 49.78125,37.878906 63.289062,15.457031 c 0.324149,-0.538895 -0.05868,-1.226247 -0.6875,-1.234375 z m 22.517579,1.28125 c -12.257454,0 -22.226563,9.935949 -22.226563,22.16211 0,12.229874 10.046688,21.656242 22.267578,21.65625 6.736889,0 12.40518,-2.992982 16.121094,-7.697266 6.26654,-1.8878 10.60701,-7.589846 10.61328,-14.113281 v -0.002 c -0.006,-6.423827 -4.21924,-12.062855 -10.35547,-14.033204 -3.722391,-4.874811 -9.516557,-7.972656 -16.419919,-7.972656 z m 0,2.560547 c 4.937467,0 9.084882,1.790544 12.238281,4.677735 -0.13227,-0.004 -0.262145,-0.03852 -0.394531,-0.03906 -0.002,-7e-6 -0.0039,-7e-6 -0.0059,0 -4.158068,0.01481 -8.077564,1.789438 -10.886719,4.806641 -1.6318,-0.909735 -3.480782,-1.482422 -5.472656,-1.482422 -6.27612,0 -11.378906,5.151314 -11.378906,11.46289 0,6.311582 5.102787,11.464844 11.378906,11.464844 1.978385,0 3.814319,-0.564833 5.4375,-1.46289 2.814046,3.034281 6.747271,4.81783 10.921875,4.826171 0.002,7e-6 0.0039,7e-6 0.0059,0 0.03678,-1.18e-4 0.07261,-0.0094 0.109375,-0.0098 -3.109562,2.749772 -7.13891,4.453125 -11.91211,4.453125 -10.91598,0 -19.707031,-8.260394 -19.707031,-19.095703 0,-10.837931 8.788463,-19.601563 19.666016,-19.601563 z M 58.638672,18.210938 48.207031,35.537109 42.423828,26.9375 45.15625,22.769531 Z m -30.8125,3.472656 h 8.83789 v 9.355468 l -3.732421,5.685547 c -0.181776,0.277472 -0.17714,0.637457 0.01172,0.910157 l 3.720703,5.392578 c 0.01034,3.745231 0.03209,7.642113 0,11.648437 h -8.83789 z m 52.771484,6.902344 c 1.708423,0 3.28993,0.485792 4.638672,1.330078 1.412041,0.88388 2.79919,2.168043 3.753906,3.630859 0.575045,1.233936 0.886393,2.579203 0.892578,3.943359 -0.0059,1.365619 -0.316985,2.710207 -0.892578,3.945313 -0.962095,1.473191 -2.362628,2.764861 -3.791015,3.648437 -1.341239,0.829675 -2.911502,1.310547 -4.601563,1.310547 -4.880925,0 -8.818359,-3.964955 -8.818359,-8.904297 0,-4.939391 3.937514,-8.904297 8.818359,-8.904296 z m -36.716797,32.02539 c -0.15228,-0.0035 -0.302496,0.03572 -0.433593,0.113281 L 24.552734,71.845703 c -0.279087,0.164688 -0.434012,0.47914 -0.394531,0.800781 l 1.882813,15.326172 c 0.03398,0.274121 0.204561,0.512345 0.453125,0.632813 l 13.83789,6.707031 c 0.450338,0.218355 0.989233,-0.01724 1.134766,-0.496094 L 46.603516,77.855469 65.998047,67.103516 c 0.652373,-0.362472 0.514395,-1.338438 -0.212891,-1.50586 l -21.74414,-4.966797 c -0.05261,-0.01179 -0.106257,-0.01834 -0.160157,-0.01953 z m 41.228516,0.605469 c -0.152092,-0.0041 -0.302296,0.03445 -0.433594,0.111328 L 65.78125,72.451172 c -0.279087,0.164688 -0.434012,0.47914 -0.394531,0.800781 l 1.882812,15.324219 c 0.03335,0.274844 0.204025,0.513931 0.453125,0.634766 L 81.5625,95.917969 c 0.450338,0.218355 0.989233,-0.01724 1.134766,-0.496094 l 5.134765,-16.962891 19.396489,-10.75 c 0.65601,-0.362176 0.51621,-1.343283 -0.21485,-1.507812 L 85.269531,61.236328 c -0.05261,-0.01179 -0.106256,-0.01834 -0.160156,-0.01953 z m -40.958984,2.0625 16.615234,3.804687 L 28.263672,85.087891 26.833984,73.472656 Z M 85.378906,63.884766 101.99609,67.689453 69.494141,85.693359 68.064453,74.076172 Z M 49.755859,79.244141 c -0.353586,0.01317 -0.658231,0.2531 -0.753906,0.59375 L 44.398438,96.226562 24.068359,107.27539 c -0.663226,0.35867 -0.525139,1.3483 0.210938,1.51172 7.447901,1.653 14.894287,3.31263 22.341797,4.9707 0.201147,0.0451 0.411929,0.0123 0.589844,-0.0918 l 18.40039,-10.82618 c 0.279128,-0.16386 0.434764,-0.47742 0.396484,-0.79882 L 64.181641,86.744141 c -0.03238,-0.272477 -0.199766,-0.510342 -0.445313,-0.632813 l -13.585937,-6.78125 c -0.122214,-0.0613 -0.257893,-0.09086 -0.394532,-0.08594 z m 41.658203,0.523437 c -0.365382,-0.01259 -0.694397,0.219793 -0.804687,0.56836 l -4.96875,15.748046 -20.34375,11.056636 c -0.659612,0.36044 -0.520669,1.34578 0.212891,1.50977 7.447903,1.65292 14.894276,3.31459 22.341796,4.97266 0.201387,0.0446 0.412183,0.0111 0.589844,-0.0937 L 106.8418,102.70312 c 0.27767,-0.16409 0.43238,-0.47656 0.39453,-0.79687 l -1.82617,-15.296875 c -0.0336,-0.280679 -0.21024,-0.523891 -0.4668,-0.642578 l -13.214844,-6.125 c -0.09881,-0.04549 -0.205732,-0.07072 -0.314454,-0.07422 z m 11.759768,9.701172 1.38086,11.60742 -16.818362,9.89844 -17.115234,-3.81445 z m -41.228518,0.136719 1.38086,11.607421 -16.81836,9.89844 -17.117187,-3.81641 z"
       id="path1545"
       inkscape:connector-curvature="0"
       sodipodi:nodetypes="cccccccccccccccccccccccccccsscccccccccccsssccccssccccccccccccccccscccccsssccccccccccccccccccccccccccccccccccccccccccccccccccccccccccccccccccccccccc" />
  </g>
</svg>
