<?xml version="1.0" encoding="UTF-8" standalone="no"?>
<!-- Created with Inkscape (http://www.inkscape.org/) -->

<svg
   xmlns:dc="http://purl.org/dc/elements/1.1/"
   xmlns:cc="http://creativecommons.org/ns#"
   xmlns:rdf="http://www.w3.org/1999/02/22-rdf-syntax-ns#"
   xmlns:svg="http://www.w3.org/2000/svg"
   xmlns="http://www.w3.org/2000/svg"
   xmlns:sodipodi="http://sodipodi.sourceforge.net/DTD/sodipodi-0.dtd"
   xmlns:inkscape="http://www.inkscape.org/namespaces/inkscape"
   width="297mm"
   height="420mm"
   viewBox="0 0 297 420"
   version="1.1"
   id="SVGRoot"
   inkscape:export-filename="/home/xypnox/Final-posters/go-workshop.png"
   inkscape:export-xdpi="180"
   inkscape:export-ydpi="180"
   inkscape:version="0.92.3 (2405546, 2018-03-11)"
   sodipodi:docname="go-workshop.svg">
  <sodipodi:namedview
     id="base"
     pagecolor="#ffffff"
     bordercolor="#666666"
     borderopacity="1.0"
     inkscape:pageopacity="0.0"
     inkscape:pageshadow="2"
     inkscape:zoom="0.49497475"
     inkscape:cx="504.37392"
     inkscape:cy="889.78684"
     inkscape:document-units="mm"
     inkscape:current-layer="layer1"
     showgrid="false"
     inkscape:window-width="928"
     inkscape:window-height="1015"
     inkscape:window-x="20"
     inkscape:window-y="20"
     inkscape:window-maximized="0"
     showguides="true"
     inkscape:guide-bbox="true"
     inkscape:snap-bbox="true"
     inkscape:bbox-paths="true"
     inkscape:bbox-nodes="true"
     inkscape:snap-bbox-edge-midpoints="true"
     inkscape:snap-bbox-midpoints="true"
     inkscape:object-paths="true"
     inkscape:snap-intersection-paths="true"
     inkscape:snap-midpoints="true"
     inkscape:snap-smooth-nodes="true"
     inkscape:snap-object-midpoints="true"
     inkscape:snap-center="true"
     inkscape:snap-text-baseline="true"
     inkscape:snap-page="true"
     inkscape:snap-global="true">
    <sodipodi:guide
       position="23.361412,20.410995"
       orientation="1,0"
       id="guide3766"
       inkscape:locked="false" />
  </sodipodi:namedview>
  <defs
     id="defs3055" />
  <metadata
     id="metadata3058">
    <rdf:RDF>
      <cc:Work
         rdf:about="">
        <dc:format>image/svg+xml</dc:format>
        <dc:type
           rdf:resource="http://purl.org/dc/dcmitype/StillImage" />
        <dc:title />
      </cc:Work>
    </rdf:RDF>
  </metadata>
  <g
     id="layer1"
     inkscape:groupmode="layer"
     inkscape:label="Layer 1">
    <rect
       style="opacity:1;fill:#ffffff;fill-opacity:1;fill-rule:nonzero;stroke:none;stroke-width:3.69299984;stroke-linecap:round;stroke-linejoin:round;stroke-miterlimit:4;stroke-dasharray:none;stroke-opacity:1;paint-order:markers fill stroke"
       id="rect4017"
       width="297"
       height="420"
       x="0"
       y="0" />
    <text
       xml:space="preserve"
       style="font-style:normal;font-variant:normal;font-weight:normal;font-stretch:normal;font-size:4.23333311px;line-height:1.25;font-family:Baumans;-inkscape-font-specification:Baumans;letter-spacing:0px;word-spacing:0px;fill:#3c89bf;fill-opacity:1;stroke:none;stroke-width:0.26458332;"
       x="25.490721"
       y="55.587311"
       id="text2228-5"><tspan
         sodipodi:role="line"
         id="tspan2226-6"
         x="25.490721"
         y="55.587311"
         style="font-style:normal;font-variant:normal;font-weight:bold;font-stretch:normal;font-size:16.93333244px;font-family:'Josefin Sans';-inkscape-font-specification:'Josefin Sans Bold';fill:#3c89bf;fill-opacity:1;stroke-width:0.26458332;">Open Source Summit</tspan></text>
    <g
       id="g3982"
       transform="matrix(1.3371284,0,0,1.3371284,4.7566975,52.751361)">
      <path
         id="path3944"
         d="m 207.3,44.6 c -6.7,-13.7 -22.9,-1.6 -27,-5.9 -21,-21.6 -46.4,-27 -66.3,-28 0,0 -9,0 -11,0 -20,0.5 -45.4,6.3 -66.3,28 -4.1,4.3 -20.4,-7.8 -27,5.9 -7.7,16 15.7,17.6 14.5,24.7 -2.3,12.8 -0.8,31.8 1,50.5 2.8,31.7 -20.9,107.6 28.4,138.1 9.3,5.8 34.4,9 56.2,9.5 v 0 c 0,0 0.1,0 0.1,0 0,0 0.1,0 0.1,0 v 0 c 21.8,-0.5 43.9,-3.7 53.2,-9.5 49.4,-30.5 25.7,-106.4 28.6,-138.1 1.7,-18.7 3.2,-37.7 1,-50.5 -1.2,-7.1 22.2,-8.8 14.5,-24.7 z"
         inkscape:connector-curvature="0"
         style="fill:#8cc5e7" />
      <g
         id="g3960"
         transform="translate(1.6384072,-17.833519)">
        <path
           id="path3954"
           d="m 108.5,107 c -16,2.4 -21.7,7 -20.5,14.2 2,11.8 39.7,10.5 40.9,0.6 1,-8.5 -14.1,-15.7 -20.4,-14.8 z"
           inkscape:connector-curvature="0"
           style="fill:#b8937f" />
        <path
           id="path3956"
           d="m 98.2,111.8 c -2.7,9.8 21.7,8.3 21.1,2 -0.3,-3.7 -3.6,-8.4 -12.3,-8.2 -3.4,0.1 -7.6,1.6 -8.8,6.2 z"
           inkscape:connector-curvature="0" />
        <path
           id="path3958"
           d="m 99,127.7 c -0.9,0.4 -2.4,10.2 2.2,10.7 3.1,0.3 11.6,1.3 13.6,0 3.9,-2.5 3.5,-8.5 1.3,-10 C 112.4,126 100,127.2 99,127.7 Z"
           inkscape:connector-curvature="0"
           style="fill:#e0dedc" />
      </g>
      <path
         id="path3970"
         d="m 193.6,186.7 c 11,0.1 5.6,-23.5 -1.2,-18.8 -3.3,2.3 -3.9,7.6 -3.9,12.1 0,2.5 2,6.6 5.1,6.7 z"
         inkscape:connector-curvature="0"
         style="fill:#b8937f" />
      <path
         id="path3972"
         d="m 23.3,186.7 c -11,0.1 -5.6,-23.5 1.2,-18.8 3.3,2.3 3.9,7.6 3.9,12.1 0,2.5 -2,6.6 -5.1,6.7 z"
         inkscape:connector-curvature="0"
         style="fill:#b8937f" />
      <path
         id="path3974"
         d="m 172.7,259.2 c -6,-8.9 -11.4,-2 -20.1,2.4 -4.1,2.1 6.8,9.6 19,4 3.2,-1.5 3.1,-3.5 1.1,-6.4 z"
         inkscape:connector-curvature="0"
         style="fill:#b8937f" />
      <path
         id="path3976"
         d="m 44.2,260.2 c 6,-8.9 11.4,-2 20.1,2.4 4.1,2.1 -6.8,9.6 -19,4 -3.2,-1.5 -3.1,-3.5 -1.1,-6.4 z"
         inkscape:connector-curvature="0"
         style="fill:#b8937f" />
      <path
         id="path3978"
         d="m 188.6,47 c -0.6,2.1 2.1,1.8 3.1,8.3 0.4,2.4 9,-3.5 5.5,-7.8 -2.9,-3.6 -8.1,-2.6 -8.6,-0.5 z"
         inkscape:connector-curvature="0"
         style="fill:#3c89bf" />
      <path
         id="path3980"
         d="m 28.3,47 c 0.6,2.1 -2.1,1.8 -3.1,8.3 -0.4,2.4 -9,-3.5 -5.5,-7.8 2.8,-3.6 8,-2.6 8.6,-0.5 z"
         inkscape:connector-curvature="0"
         style="fill:#3c89bf" />
    </g>
    <path
       inkscape:connector-curvature="0"
       style="color:#000000;font-style:normal;font-variant:normal;font-weight:normal;font-stretch:normal;font-size:medium;line-height:normal;font-family:sans-serif;font-variant-ligatures:normal;font-variant-position:normal;font-variant-caps:normal;font-variant-numeric:normal;font-variant-alternates:normal;font-feature-settings:normal;text-indent:0;text-align:start;text-decoration:none;text-decoration-line:none;text-decoration-style:solid;text-decoration-color:#000000;letter-spacing:normal;word-spacing:normal;text-transform:none;writing-mode:lr-tb;direction:ltr;text-orientation:mixed;dominant-baseline:auto;baseline-shift:baseline;text-anchor:start;white-space:normal;shape-padding:0;clip-rule:nonzero;display:inline;overflow:visible;visibility:visible;opacity:1;isolation:auto;mix-blend-mode:normal;color-interpolation:sRGB;color-interpolation-filters:linearRGB;solid-color:#000000;solid-opacity:1;vector-effect:none;fill:#3c89bf;fill-opacity:1;fill-rule:nonzero;stroke:#3c89bf;stroke-width:1.12360752;stroke-linecap:round;stroke-linejoin:round;stroke-miterlimit:3.5;stroke-dasharray:none;stroke-dashoffset:0;stroke-opacity:1;paint-order:stroke markers fill;color-rendering:auto;image-rendering:auto;shape-rendering:auto;text-rendering:auto;enable-background:accumulate"
       d="m 251.62534,16.290005 -10.84085,3.66126 -1.83982,2.80221 -0.001,-0.001 -1.44188,2.19762 v -5.79661 h -7.1997 v 21.30651 h 7.196 l 0.002,-0.26752 c 0.0276,-2.39808 0.0117,-4.68646 0.002,-6.91111 l 4.35857,6.31475 9.74084,1.97549 -8.02417,-11.92687 z m 13.15632,0.74847 c -6.90207,0 -12.50489,5.58593 -12.50489,12.4682 0,6.88296 5.63542,12.17121 12.52951,12.17121 3.84317,0 7.04566,-1.70712 9.12901,-4.40491 3.5508,-0.99204 6.00459,-4.20116 6.0081,-7.85757 -0.002,-3.60095 -2.38452,-6.77507 -5.86275,-7.81556 -2.08494,-2.79378 -5.35988,-4.56137 -9.29898,-4.56137 z m -14.38816,0.24 -7.14723,11.86893 -3.97129,-5.90332 1.8596,-2.83552 z m 14.38816,0.30422 c 3.52277,0 6.47475,1.45436 8.46455,3.81241 -0.51032,-0.0988 -1.02915,-0.14952 -1.54911,-0.15163 -2.41693,0.009 -4.70871,1.06629 -6.26933,2.8954 -0.0117,-0.008 -0.0241,-0.0146 -0.0364,-0.0237 -0.94374,-0.59079 -2.058,-0.93101 -3.2498,-0.93101 -3.40573,0 -6.17036,2.78902 -6.17036,6.21961 0,3.43058 2.76463,6.2196 6.17036,6.2196 1.18011,0 2.28305,-0.33442 3.22086,-0.91458 0.0154,-0.0115 0.03,-0.0186 0.0451,-0.029 1.56287,1.83928 3.86344,2.90311 6.28959,2.90796 0.47032,-0.001 0.93989,-0.0458 1.40281,-0.12797 -1.98043,2.2719 -4.86354,3.67431 -8.2936,3.67431 -6.61684,0 -11.98581,-5.04085 -11.98581,-11.62749 0,-6.58734 5.35229,-11.92398 11.96118,-11.92398 z m -33.93599,2.1136 h 6.1124 v 6.08151 l -2.25702,3.43962 2.2575,3.27157 c 0.007,2.38071 0.0253,4.85754 -2.6e-4,7.42683 h -6.11251 z m 31.29605,4.03164 c 1.08803,0 2.10104,0.30979 2.96154,0.84844 0.88992,0.55707 1.75977,1.3566 2.36374,2.29517 0.3734,0.791 0.56909,1.65571 0.57271,2.53179 -0.002,0.87688 -0.19895,1.74197 -0.57271,2.53372 -0.60868,0.94535 -1.48786,1.74924 -2.38837,2.30628 -0.85505,0.52892 -1.85954,0.83588 -2.93691,0.83588 -3.1093,0 -5.62663,-2.53636 -5.62663,-5.6754 0,-3.13906 2.51733,-5.67588 5.62663,-5.67588 z m -21.45623,19.654549 -11.03449,6.495822 1.09954,8.94987 8.0821,3.91768 3.05525,-10.09093 11.49614,-6.372691 z m 24.07879,0.35347 -11.03451,6.495351 1.10001,8.950341 8.08213,3.91768 3.05523,-10.09093 11.49614,-6.37268 z m -23.988,0.223102 11.10016,2.54145 -20.68502,11.45895 -0.95952,-7.79286 z m 24.07876,0.353478 11.10068,2.541442 -20.68505,11.458948 -0.95999,-7.793339 z m -20.70869,9.952342 -2.74327,9.764008 -12.05002,6.549432 c 4.35009,0.96547 8.69916,1.93527 13.04862,2.90361 l 10.74621,-6.32247 -1.06669,-8.933932 z m 24.2956,0.305178 -2.95962,9.379641 -12.05,6.549421 c 4.35009,0.96543 8.69917,1.93528 13.04861,2.90361 l 10.74623,-6.32246 -1.06721,-8.93345 z m 7.27328,4.437272 0.92668,7.78465 -10.25176,6.03419 -11.41741,-2.54531 z m -24.07878,0.0792 0.92667,7.784658 -10.25222,6.034182 -11.41742,-2.545791 z"
       id="path1545-2"
       inkscape:export-filename="/home/xypnox/koss-sticker.png"
       inkscape:export-xdpi="650.23999"
       inkscape:export-ydpi="650.23999" />
    <text
       xml:space="preserve"
       style="font-style:normal;font-variant:normal;font-weight:normal;font-stretch:normal;font-size:4.23333311px;line-height:1.25;font-family:'Josefin Sans';-inkscape-font-specification:'Josefin Sans';letter-spacing:0px;word-spacing:0px;fill:#3c89bf;fill-opacity:1;stroke:none;stroke-width:0.26458332;"
       x="25.349623"
       y="34.472328"
       id="text4696-9"><tspan
         sodipodi:role="line"
         id="tspan4694-1"
         x="25.349623"
         y="34.472328"
         style="font-style:normal;font-variant:normal;font-weight:600;font-stretch:normal;font-size:9.87777805px;font-family:'Josefin Sans';-inkscape-font-specification:'Josefin Sans Semi-Bold';fill:#3c89bf;fill-opacity:1;stroke-width:0.26458332;">KOSS and Kshitij          Present</tspan></text>
    <path
       style="fill:#3c89bf;fill-opacity:1;stroke-width:0.14912398"
       d="m 119.93848,16.931226 c -0.0159,7.81e-4 -0.0344,0.004 -0.0556,0.004 -0.14753,0 -0.29295,0.52522 -0.84661,3.05722 -0.5321,2.4335 -0.48462,2.31142 -0.90275,2.31142 -0.20215,0 -0.58839,0.0921 -0.85809,0.2048 l -0.48997,0.20479 -1.5873,-1.96627 c -1.61794,-2.00447 -2.32289,-2.75786 -2.16086,-2.31078 0.0464,0.12825 0.8328,1.19251 1.74744,2.36565 1.51142,1.93856 1.64277,2.15597 1.43801,2.38223 -0.12392,0.13693 -0.32994,0.49976 -0.45806,0.80642 l -0.23351,0.5576 -2.82946,-0.10145 c -2.03581,-0.0731 -2.83011,-0.0553 -2.83011,0.0638 0,0.23627 0.66034,0.31131 3.25437,0.36876 1.78485,0.0395 2.31323,0.0973 2.41668,0.26476 0.17712,0.28658 0.11112,0.32838 -1.2715,0.80259 -0.65614,0.22504 -1.89746,0.77868 -2.75865,1.23003 -2.1074,1.10449 -5.42183,3.4783 -4.85634,3.4783 0.0359,0 0.72383,-0.44773 1.52861,-0.99462 3.01574,-2.04936 6.94795,-3.54547 10.66138,-4.05631 l 0.84724,-0.11675 -0.27434,0.53335 c -0.35156,0.68247 -1.31601,1.67751 -3.30094,3.40556 -1.62532,1.415 -2.23083,2.1301 -2.53024,2.98897 -0.35434,1.01648 0.46067,2.5529 1.68683,3.17844 0.514,0.26219 0.8184,0.29968 2.07537,0.25647 1.26788,-0.0436 1.45806,-0.0197 1.3672,0.17289 -0.25474,0.53973 -0.0915,1.18175 0.49955,1.96436 0.32996,0.4369 0.76163,0.86902 0.95889,0.96017 0.19726,0.0911 0.60399,0.27182 0.90402,0.40129 0.30003,0.12947 0.66937,0.40507 0.82046,0.61247 0.15108,0.20739 0.3245,0.37892 0.38598,0.38151 0.22243,0.009 0.10309,-0.327 -0.34962,-0.98505 -0.34866,-0.50673 -0.7047,-0.78708 -1.45397,-1.14518 -0.9778,-0.46705 -0.99211,-0.48341 -0.97421,-1.04694 0.0111,-0.36906 0.17104,-0.78695 0.44787,-1.17708 0.37268,-0.52519 0.65459,-0.69685 2.14364,-1.30404 2.55951,-1.04369 3.80405,-1.85467 4.65091,-3.03043 l 0.30049,-0.41724 -0.38981,-0.58886 c -0.32482,-0.49083 -0.47372,-0.5895 -0.88808,-0.5895 -0.96066,0 -3.15634,1.4317 -5.06624,3.30349 -1.35089,1.32393 -1.73883,1.46845 -3.9453,1.468 -1.66517,-2.91e-4 -2.31866,-0.28119 -2.3899,-1.02716 -0.0265,-0.27791 -0.01,-0.65536 0.0357,-0.83895 0.13713,-0.54632 1.09065,-1.5741 3.11401,-3.3558 2.04147,-1.79765 3.08721,-3.06376 3.08721,-3.73859 0,-0.38998 0.0465,-0.41835 0.85745,-0.52124 1.21795,-0.15452 7.03613,0.30231 7.27878,0.57164 0.0184,0.0204 -0.0231,0.37272 -0.0925,0.78281 -0.2475,1.46212 -0.32892,5.18837 -0.1512,6.93426 0.27308,2.68274 0.9913,5.32246 1.49352,5.48986 0.1505,0.0502 0.17355,-0.006 0.0868,-0.21245 -0.62128,-1.47724 -1.12163,-4.80912 -1.12286,-7.48229 -10e-4,-2.25215 0.30039,-5.39991 0.51804,-5.39991 0.0958,0 0.67119,0.1302 1.27853,0.28965 0.60733,0.15944 1.1295,0.26447 1.16049,0.2335 0.16737,-0.16737 -0.23675,-0.3698 -1.20261,-0.60226 -0.59537,-0.14328 -1.12551,-0.2846 -1.17835,-0.31389 -0.29736,-0.1646 0.63493,-2.71545 1.22238,-3.34431 0.51788,-0.5544 0.52656,-0.58759 0.1563,-0.58759 -0.62343,0 -1.59572,1.64103 -1.88461,3.181 -0.11593,0.618 -0.11469,0.61795 -1.33658,0.33685 -1.5447,-0.35536 -3.47568,-0.57067 -5.30101,-0.59077 -1.69558,-0.0187 -1.76368,-0.0316 -1.82528,-0.35153 -0.0562,-0.29161 0.17564,-0.46301 1.89098,-1.40038 2.33797,-1.27762 3.12743,-1.7672 3.02151,-1.87312 -0.0433,-0.0434 -1.20999,0.51013 -2.59213,1.22939 l -2.51304,1.30724 -0.36684,-0.35983 c -0.20187,-0.19814 -0.51886,-0.46137 -0.70433,-0.58439 l -0.3375,-0.2233 0.52379,-2.65721 c 0.52267,-2.65215 0.56131,-2.79601 0.44978,-2.79054 z m 6.02195,14.06693 c 0.22388,0.0437 -0.43946,0.69004 -1.92289,1.57519 -2.63721,1.5736 -3.16559,1.56592 -0.24179,-0.41278 1.27914,-0.86568 1.99054,-1.19643 2.16468,-1.16241 z"
       id="path2407"
       inkscape:connector-curvature="0" />
    <text
       xml:space="preserve"
       style="font-style:normal;font-variant:normal;font-weight:normal;font-stretch:normal;font-size:5.96055412px;line-height:1.25;font-family:'Josefin Sans';-inkscape-font-specification:'Josefin Sans';letter-spacing:0px;word-spacing:0px;fill:#ffffff;fill-opacity:1;stroke:none;stroke-width:0.37253463;"
       x="68.142555"
       y="216.68486"
       id="text1003"><tspan
         sodipodi:role="line"
         x="68.142555"
         y="221.90034"
         style="font-style:normal;font-variant:normal;font-weight:bold;font-stretch:normal;font-size:35.76332474px;font-family:'Josefin Sans';-inkscape-font-specification:'Josefin Sans Bold';fill:#ffffff;fill-opacity:1;stroke-width:0.37253463;"
         id="tspan1005" /><tspan
         sodipodi:role="line"
         x="68.142555"
         y="255.42847"
         style="font-style:italic;font-variant:normal;font-weight:bold;font-stretch:normal;font-size:35.76332474px;font-family:'Josefin Sans';-inkscape-font-specification:'Josefin Sans Bold Italic';fill:#ffffff;fill-opacity:1;stroke-width:0.37253463;"
         id="tspan1007">Workshop</tspan></text>
    <text
       xml:space="preserve"
       style="font-style:normal;font-variant:normal;font-weight:600;font-stretch:normal;font-size:19.75555611px;line-height:1.25;font-family:'Josefin Sans';-inkscape-font-specification:'Josefin Sans Semi-Bold';letter-spacing:0px;word-spacing:0px;fill:#ffffff;fill-opacity:1;stroke:none;stroke-width:0.26458332;"
       x="92.635323"
       y="282.99185"
       id="text4650"><tspan
         sodipodi:role="line"
         id="tspan4648"
         x="92.635323"
         y="282.99185"
         style="font-style:normal;font-variant:normal;font-weight:600;font-stretch:normal;font-size:19.75555611px;font-family:'Josefin Sans';-inkscape-font-specification:'Josefin Sans Semi-Bold';fill:#ffffff;fill-opacity:1;stroke-width:0.26458332;">20th January</tspan><tspan
         sodipodi:role="line"
         x="92.635323"
         y="307.68631"
         style="font-style:normal;font-variant:normal;font-weight:600;font-stretch:normal;font-size:19.75555611px;font-family:'Josefin Sans';-inkscape-font-specification:'Josefin Sans Semi-Bold';fill:#ffffff;fill-opacity:1;stroke-width:0.26458332;"
         id="tspan4656" /><tspan
         sodipodi:role="line"
         x="92.635323"
         y="332.38074"
         style="font-style:normal;font-variant:normal;font-weight:600;font-stretch:normal;font-size:19.75555611px;font-family:'Josefin Sans';-inkscape-font-specification:'Josefin Sans Semi-Bold';fill:#ffffff;fill-opacity:1;stroke-width:0.26458332;"
         id="tspan4658" /><tspan
         sodipodi:role="line"
         x="92.635323"
         y="357.0752"
         style="font-style:normal;font-variant:normal;font-weight:600;font-stretch:normal;font-size:19.75555611px;font-family:'Josefin Sans';-inkscape-font-specification:'Josefin Sans Semi-Bold';fill:#ffffff;fill-opacity:1;stroke-width:0.26458332;"
         id="tspan4652" /><tspan
         sodipodi:role="line"
         x="92.635323"
         y="381.76962"
         style="font-style:normal;font-variant:normal;font-weight:600;font-stretch:normal;font-size:19.75555611px;font-family:'Josefin Sans';-inkscape-font-specification:'Josefin Sans Semi-Bold';fill:#ffffff;fill-opacity:1;stroke-width:0.26458332;"
         id="tspan4654" /></text>
    <text
       xml:space="preserve"
       style="font-style:normal;font-variant:normal;font-weight:600;font-stretch:normal;font-size:19.75555611px;line-height:1.25;font-family:'Josefin Sans';-inkscape-font-specification:'Josefin Sans Semi-Bold';letter-spacing:0px;word-spacing:0px;fill:#ffffff;fill-opacity:1;stroke:none;stroke-width:0.26458332;"
       x="96.902321"
       y="303.88763"
       id="text4672"><tspan
         sodipodi:role="line"
         id="tspan4670"
         x="96.902321"
         y="303.88763"
         style="font-style:normal;font-variant:normal;font-weight:600;font-stretch:normal;font-size:19.75555611px;font-family:'Josefin Sans';-inkscape-font-specification:'Josefin Sans Semi-Bold';fill:#ffffff;fill-opacity:1;stroke-width:0.26458332;">10am to 1pm</tspan></text>
    <text
       xml:space="preserve"
       style="font-style:normal;font-variant:normal;font-weight:600;font-stretch:normal;font-size:19.75555611px;line-height:1.25;font-family:'Josefin Sans';-inkscape-font-specification:'Josefin Sans Semi-Bold';letter-spacing:0px;word-spacing:0px;fill:#ffffff;fill-opacity:1;stroke:none;stroke-width:0.26458332"
       x="76.977921"
       y="324.63107"
       id="text4682"><tspan
         sodipodi:role="line"
         id="tspan4680"
         x="76.977921"
         y="324.63107"
         style="font-style:normal;font-variant:normal;font-weight:600;font-stretch:normal;font-size:19.75555611px;font-family:'Josefin Sans';-inkscape-font-specification:'Josefin Sans Semi-Bold';fill:#ffffff;fill-opacity:1;stroke-width:0.26458332">Nalanda NR223</tspan></text>
    <text
       xml:space="preserve"
       style="font-style:normal;font-variant:normal;font-weight:normal;font-stretch:normal;font-size:4.23333311px;line-height:1.25;font-family:'Josefin Sans';-inkscape-font-specification:'Josefin Sans';text-align:center;letter-spacing:0px;word-spacing:0px;text-anchor:middle;fill:#ffffff;fill-opacity:1;stroke:none;stroke-width:0.26458332"
       x="154.44592"
       y="351.80457"
       id="text4688"><tspan
         sodipodi:role="line"
         id="tspan4686"
         x="154.44592"
         y="351.80457"
         style="font-style:normal;font-variant:normal;font-weight:normal;font-stretch:normal;font-size:12.69999981px;font-family:'Josefin Sans';-inkscape-font-specification:'Josefin Sans';text-align:center;text-anchor:middle;fill:#ffffff;fill-opacity:1;stroke-width:0.26458332">Contact</tspan><tspan
         sodipodi:role="line"
         x="154.44592"
         y="368.91428"
         style="font-style:normal;font-variant:normal;font-weight:600;font-stretch:normal;font-size:14.11111069px;font-family:'Josefin Sans';-inkscape-font-specification:'Josefin Sans Semi-Bold';text-align:center;text-anchor:middle;fill:#ffffff;fill-opacity:1;stroke-width:0.26458332"
         id="tspan4692">Dibya</tspan><tspan
         sodipodi:role="line"
         x="154.44592"
         y="386.55316"
         style="font-style:normal;font-variant:normal;font-weight:600;font-stretch:normal;font-size:14.11111069px;font-family:'Josefin Sans';-inkscape-font-specification:'Josefin Sans Semi-Bold';text-align:center;text-anchor:middle;fill:#ffffff;fill-opacity:1;stroke-width:0.26458332"
         id="tspan4011">7478021777</tspan></text>
    <g
       id="g3753"
       transform="matrix(0.49277892,0,0,0.49277892,152.44831,236.25452)"
       style="fill:#2dbcaf;stroke:#8cc5e7;stroke-width:7.49423291;stroke-miterlimit:4;stroke-dasharray:none;stroke-opacity:1;paint-order:markers fill stroke">
      <path
         id="path3749"
         d="m 2.297197,-235.84726 c -13.143724,3.33809 -22.114841,5.84166 -35.049955,9.17975 -3.129443,0.83452 -3.338085,1.04315 -6.050292,-2.08631 -3.129443,-3.54672 -5.424389,-5.84165 -9.805638,-7.92796 -13.143723,-6.46756 -25.870187,-4.58988 -37.762128,3.12945 -14.186884,9.17975 -21.488934,22.74074 -21.280324,39.63981 0.20862,16.69046 11.683328,30.46008 28.165138,32.75501 14.186887,1.87768 26.078828,-3.12945 35.467205,-13.76961 1.877662,-2.29494 3.546704,-4.79851 5.633007,-7.71934 h -40.265692 c -4.381249,0 -5.424389,-2.7122 -3.963988,-6.25892 2.712206,-6.46753 7.719335,-17.31634 10.64016,-22.74072 0.625903,-1.25179 2.086303,-3.3381 5.21577,-3.3381 H 9.1820106 c -0.4172614,5.63301 -0.4172614,11.26605 -1.251783,16.89908 -2.2949452,15.02141 -7.9279769,28.79101 -17.1077112,40.89159 -15.0214184,19.81989 -34.6326944,32.12913 -59.4597414,35.46721 -20.445797,2.71218 -39.431175,-1.25178 -56.121625,-13.76963 -15.43866,-11.68332 -24.20114,-27.12197 -26.49609,-46.31598 -2.71218,-22.74074 3.964,-43.18654 17.73362,-61.12877 14.81277,-19.40264 34.424042,-31.71185 58.416566,-36.0931 19.611277,-3.54671 38.388031,-1.25178 55.28711,10.2229 11.0574207,7.30207 18.98537416,17.31635 24.2011445,29.41692 1.2517819,1.87768 0.4172603,2.92082 -2.0863035,3.54672 z"
         inkscape:connector-curvature="0"
         sodipodi:nodetypes="cccccccccsccsccccccccccc"
         style="fill:#ffffff;fill-opacity:1;stroke:#8cc5e7;stroke-width:7.49423291;stroke-miterlimit:4;stroke-dasharray:none;stroke-opacity:1;paint-order:markers fill stroke" />
      <path
         id="path3751"
         d="m 71.353923,-120.47454 c -18.985373,-0.41726 -36.301727,-5.84164 -50.905875,-18.35949 -12.3092019,-10.64016 -20.02853597,-24.20115 -22.5321008,-40.26572 -3.7553455,-23.57524 2.71220664,-44.4383 16.8990938,-63.00643 15.230028,-20.02854 33.589521,-30.46006 58.416567,-34.84131 21.280318,-3.75534 41.308852,-1.66904 59.459712,10.64016 16.4818,11.26606 26.7047,26.49609 29.41691,46.52463 3.54673,28.16513 -4.58987,51.11449 -23.99253,70.72576 -13.7696,13.97825 -30.66869,22.74076 -50.071324,26.70472 -5.633033,1.04316 -11.266067,1.25178 -16.690453,1.87768 z m 49.654067,-84.28676 c -0.20862,-2.7122 -0.20862,-4.7985 -0.62588,-6.8848 -3.75534,-20.65444 -22.740737,-32.33775 -42.560635,-27.74788 -19.402656,4.38124 -31.920477,16.69045 -36.510369,36.30173 -3.755345,16.27317 4.172632,32.75499 19.194014,39.43117 11.474684,5.00712 22.949389,4.38125 34.006806,-1.25178 16.481804,-8.55385 25.452924,-21.90622 26.496064,-39.84844 z"
         inkscape:connector-curvature="0"
         style="fill:#ffffff;fill-opacity:1;stroke:#8cc5e7;stroke-width:7.49423291;stroke-miterlimit:4;stroke-dasharray:none;stroke-opacity:1;paint-order:markers fill stroke" />
    </g>
  </g>
</svg>
