<?xml version="1.0" encoding="UTF-8" standalone="no"?>
<!-- Created with Inkscape (http://www.inkscape.org/) -->

<svg
   xmlns:dc="http://purl.org/dc/elements/1.1/"
   xmlns:cc="http://creativecommons.org/ns#"
   xmlns:rdf="http://www.w3.org/1999/02/22-rdf-syntax-ns#"
   xmlns:svg="http://www.w3.org/2000/svg"
   xmlns="http://www.w3.org/2000/svg"
   xmlns:sodipodi="http://sodipodi.sourceforge.net/DTD/sodipodi-0.dtd"
   xmlns:inkscape="http://www.inkscape.org/namespaces/inkscape"
   width="297mm"
   height="420mm"
   viewBox="0 0 297 420"
   version="1.1"
   id="SVGRoot"
   inkscape:version="0.92.3 (2405546, 2018-03-11)"
   sodipodi:docname="hacking-workshop.svg"
   inkscape:export-filename="/home/xypnox/Final-posters/hacking-workshop.png"
   inkscape:export-xdpi="180"
   inkscape:export-ydpi="180">
  <sodipodi:namedview
     id="base"
     pagecolor="#ffffff"
     bordercolor="#666666"
     borderopacity="1.0"
     inkscape:pageopacity="0.0"
     inkscape:pageshadow="2"
     inkscape:zoom="0.35"
     inkscape:cx="600.11451"
     inkscape:cy="956.09834"
     inkscape:document-units="mm"
     inkscape:current-layer="layer1"
     showgrid="false"
     inkscape:window-width="928"
     inkscape:window-height="1015"
     inkscape:window-x="20"
     inkscape:window-y="20"
     inkscape:window-maximized="0"
     inkscape:snap-bbox="true"
     inkscape:bbox-paths="true"
     inkscape:bbox-nodes="true"
     inkscape:snap-bbox-edge-midpoints="true"
     inkscape:snap-bbox-midpoints="true"
     inkscape:object-paths="true"
     inkscape:snap-intersection-paths="true"
     inkscape:snap-smooth-nodes="true"
     inkscape:snap-midpoints="true"
     inkscape:snap-object-midpoints="true"
     inkscape:snap-center="true"
     inkscape:snap-text-baseline="true"
     inkscape:snap-page="true"
     showguides="true"
     inkscape:guide-bbox="true">
    <sodipodi:guide
       position="37.399495,89.245491"
       orientation="1,0"
       id="guide3004"
       inkscape:locked="false" />
  </sodipodi:namedview>
  <defs
     id="defs847">
    <filter
       inkscape:collect="always"
       style="color-interpolation-filters:sRGB"
       id="filter3104"
       x="-0.10226358"
       width="1.2045272"
       y="-0.090459421"
       height="1.1809188">
      <feGaussianBlur
         inkscape:collect="always"
         stdDeviation="2.155645"
         id="feGaussianBlur3106" />
    </filter>
    <filter
       inkscape:collect="always"
       style="color-interpolation-filters:sRGB"
       id="filter3214"
       x="-0.035626868"
       width="1.0712537"
       y="-0.13757246"
       height="1.2751449">
      <feGaussianBlur
         inkscape:collect="always"
         stdDeviation="2.7970904"
         id="feGaussianBlur3216" />
    </filter>
    <filter
       inkscape:collect="always"
       style="color-interpolation-filters:sRGB"
       id="filter3218"
       x="-0.17363851"
       width="1.347277"
       y="-0.15053202"
       height="1.301064">
      <feGaussianBlur
         inkscape:collect="always"
         stdDeviation="2.7970904"
         id="feGaussianBlur3220" />
    </filter>
    <filter
       inkscape:collect="always"
       style="color-interpolation-filters:sRGB"
       id="filter3222"
       x="-0.035484963"
       width="1.0709699"
       y="-0.076429152"
       height="1.1528583">
      <feGaussianBlur
         inkscape:collect="always"
         stdDeviation="2.7970904"
         id="feGaussianBlur3224" />
    </filter>
  </defs>
  <metadata
     id="metadata850">
    <rdf:RDF>
      <cc:Work
         rdf:about="">
        <dc:format>image/svg+xml</dc:format>
        <dc:type
           rdf:resource="http://purl.org/dc/dcmitype/StillImage" />
        <dc:title />
      </cc:Work>
    </rdf:RDF>
  </metadata>
  <g
     id="layer1"
     inkscape:groupmode="layer"
     inkscape:label="Layer 1">
    <rect
       style="opacity:1;fill:#000000;fill-opacity:1;fill-rule:nonzero;stroke:none;stroke-width:3.69299984;stroke-linecap:round;stroke-linejoin:round;stroke-miterlimit:4;stroke-dasharray:none;stroke-opacity:1;paint-order:markers fill stroke"
       id="rect2980"
       width="297"
       height="420"
       x="0"
       y="0" />
    <text
       xml:space="preserve"
       style="font-style:normal;font-variant:normal;font-weight:bold;font-stretch:normal;font-size:4.23333311px;line-height:1.25;font-family:iosevka;-inkscape-font-specification:'iosevka Bold';letter-spacing:0px;word-spacing:0px;fill:#01fc2b;fill-opacity:1;stroke:none;stroke-width:0.26458332;"
       x="25.530333"
       y="55.587578"
       id="text2228-5"><tspan
         sodipodi:role="line"
         id="tspan2226-6"
         x="25.530333"
         y="55.587578"
         style="font-style:normal;font-variant:normal;font-weight:bold;font-stretch:normal;font-size:16.93333244px;font-family:iosevka;-inkscape-font-specification:'iosevka Bold';fill:#01fc2b;fill-opacity:1;stroke-width:0.26458332;">Open Source Summit</tspan></text>
    <path
       inkscape:connector-curvature="0"
       style="color:#000000;font-style:normal;font-variant:normal;font-weight:normal;font-stretch:normal;font-size:medium;line-height:normal;font-family:sans-serif;font-variant-ligatures:normal;font-variant-position:normal;font-variant-caps:normal;font-variant-numeric:normal;font-variant-alternates:normal;font-feature-settings:normal;text-indent:0;text-align:start;text-decoration:none;text-decoration-line:none;text-decoration-style:solid;text-decoration-color:#000000;letter-spacing:normal;word-spacing:normal;text-transform:none;writing-mode:lr-tb;direction:ltr;text-orientation:mixed;dominant-baseline:auto;baseline-shift:baseline;text-anchor:start;white-space:normal;shape-padding:0;clip-rule:nonzero;display:inline;overflow:visible;visibility:visible;opacity:1;isolation:auto;mix-blend-mode:normal;color-interpolation:sRGB;color-interpolation-filters:linearRGB;solid-color:#000000;solid-opacity:1;vector-effect:none;fill:#01fc2b;fill-opacity:1;fill-rule:nonzero;stroke:#01fc2b;stroke-width:1.12360752;stroke-linecap:round;stroke-linejoin:round;stroke-miterlimit:3.5;stroke-dasharray:none;stroke-dashoffset:0;stroke-opacity:1;paint-order:stroke markers fill;color-rendering:auto;image-rendering:auto;shape-rendering:auto;text-rendering:auto;enable-background:accumulate"
       d="m 251.66495,16.290279 -10.84085,3.66126 -1.83982,2.80221 -0.001,-10e-4 -1.44188,2.19762 v -5.79661 h -7.1997 V 40.46026 h 7.196 l 0.002,-0.26752 c 0.0276,-2.39808 0.0117,-4.68646 0.002,-6.91111 l 4.35857,6.31475 9.74084,1.97549 -8.02417,-11.926871 z m 13.15632,0.74847 c -6.90207,0 -12.50489,5.58593 -12.50489,12.4682 0,6.882961 5.63542,12.171211 12.52951,12.171211 3.84317,0 7.04566,-1.70712 9.12901,-4.40491 3.5508,-0.99204 6.00459,-4.20116 6.0081,-7.857571 -0.002,-3.60095 -2.38452,-6.77507 -5.86275,-7.81556 -2.08494,-2.79378 -5.35988,-4.56137 -9.29898,-4.56137 z m -14.38816,0.24 -7.14723,11.86893 -3.97129,-5.90332 1.8596,-2.83552 z m 14.38816,0.30422 c 3.52277,0 6.47475,1.45436 8.46455,3.81241 -0.51032,-0.0988 -1.02915,-0.14952 -1.54911,-0.15163 -2.41693,0.009 -4.70871,1.06629 -6.26933,2.8954 -0.0117,-0.008 -0.0241,-0.0146 -0.0364,-0.0237 -0.94374,-0.59079 -2.058,-0.93101 -3.2498,-0.93101 -3.40573,0 -6.17036,2.78902 -6.17036,6.21961 0,3.430581 2.76463,6.219601 6.17036,6.219601 1.18011,0 2.28305,-0.33442 3.22086,-0.91458 0.0154,-0.0115 0.03,-0.0186 0.0451,-0.029 1.56287,1.83928 3.86344,2.90311 6.28959,2.90796 0.47032,-0.001 0.93989,-0.0458 1.40281,-0.12797 -1.98043,2.2719 -4.86354,3.67431 -8.2936,3.67431 -6.61684,0 -11.98581,-5.04085 -11.98581,-11.627491 0,-6.58734 5.35229,-11.92398 11.96118,-11.92398 z m -33.93599,2.1136 h 6.1124 v 6.08151 l -2.25702,3.43962 2.2575,3.27157 c 0.007,2.380711 0.0253,4.857541 -2.6e-4,7.426831 h -6.11251 z m 31.29605,4.03164 c 1.08803,0 2.10104,0.30979 2.96154,0.84844 0.88992,0.55707 1.75977,1.3566 2.36374,2.29517 0.3734,0.791 0.56909,1.65571 0.57271,2.53179 -0.002,0.87688 -0.19895,1.74197 -0.57271,2.53372 -0.60868,0.945351 -1.48786,1.749241 -2.38837,2.306281 -0.85505,0.52892 -1.85954,0.83588 -2.93691,0.83588 -3.1093,0 -5.62663,-2.536361 -5.62663,-5.675401 0,-3.13906 2.51733,-5.67588 5.62663,-5.67588 z m -21.45623,19.654551 -11.03449,6.49582 1.09954,8.94987 8.0821,3.91768 3.05525,-10.09093 11.49614,-6.37269 z m 24.07879,0.35347 -11.03451,6.49535 1.10001,8.95034 8.08213,3.91768 3.05523,-10.09093 11.49614,-6.37268 z m -23.988,0.2231 11.10016,2.54145 -20.68502,11.45895 -0.95952,-7.79286 z m 24.07876,0.35348 11.10068,2.54144 -20.68505,11.45895 -0.95999,-7.79334 z m -20.70869,9.95234 -2.74327,9.76401 -12.05002,6.54943 c 4.35009,0.96547 8.69916,1.93527 13.04862,2.90361 l 10.74621,-6.32247 -1.06669,-8.93393 z m 24.2956,0.30518 -2.95962,9.37964 -12.05,6.54942 c 4.35009,0.96543 8.69917,1.93528 13.04861,2.90361 l 10.74623,-6.32246 -1.06721,-8.93345 z m 7.27328,4.43727 0.92668,7.78465 -10.25176,6.03419 -11.41741,-2.54531 z m -24.07878,0.0792 0.92667,7.78466 -10.25222,6.03418 -11.41742,-2.54579 z"
       id="path1545-2"
       inkscape:export-filename="/home/xypnox/koss-sticker.png"
       inkscape:export-xdpi="650.23999"
       inkscape:export-ydpi="650.23999" />
    <text
       xml:space="preserve"
       style="font-style:normal;font-variant:normal;font-weight:bold;font-stretch:normal;font-size:4.23333311px;line-height:1.25;font-family:iosevka;-inkscape-font-specification:'iosevka Bold';letter-spacing:0px;word-spacing:0px;fill:#01fc2b;fill-opacity:1;stroke:none;stroke-width:0.26458332"
       x="25.389235"
       y="34.47261"
       id="text4696-9"><tspan
         sodipodi:role="line"
         id="tspan4694-1"
         x="25.389235"
         y="34.47261"
         style="font-style:normal;font-variant:normal;font-weight:bold;font-stretch:normal;font-size:9.87777805px;font-family:iosevka;-inkscape-font-specification:'iosevka Bold';fill:#01fc2b;fill-opacity:1;stroke-width:0.26458332">KOSS and Kshitij       Present</tspan></text>
    <path
       style="fill:#01fc2b;fill-opacity:1;stroke-width:0.14912398"
       d="m 119.97809,16.9315 c -0.0159,7.8e-4 -0.0344,0.004 -0.0556,0.004 -0.14753,0 -0.29295,0.52522 -0.84661,3.05722 -0.5321,2.4335 -0.48462,2.31142 -0.90275,2.31142 -0.20215,0 -0.58839,0.0921 -0.85809,0.2048 l -0.48997,0.20479 -1.5873,-1.96627 c -1.61794,-2.00447 -2.32289,-2.75786 -2.16086,-2.31078 0.0464,0.12825 0.8328,1.19251 1.74744,2.36565 1.51142,1.93856 1.64277,2.15597 1.43801,2.38223 -0.12392,0.13693 -0.32994,0.49976 -0.45806,0.80642 l -0.23351,0.5576 -2.82946,-0.10145 c -2.03581,-0.0731 -2.83011,-0.0553 -2.83011,0.0638 0,0.23627 0.66034,0.31131 3.25437,0.36876 1.78485,0.0395 2.31323,0.0973 2.41668,0.26476 0.17712,0.28658 0.11112,0.32838 -1.2715,0.80259 -0.65614,0.22504 -1.89746,0.77868 -2.75865,1.23003 -2.1074,1.10449 -5.42183,3.4783 -4.85634,3.4783 0.0359,0 0.72383,-0.44773 1.52861,-0.99462 3.01574,-2.04936 6.94795,-3.54547 10.66138,-4.05631 l 0.84724,-0.11675 -0.27434,0.53335 c -0.35156,0.68247 -1.31601,1.67751 -3.30094,3.40556 -1.62532,1.415 -2.23083,2.1301 -2.53024,2.98897 -0.35434,1.01648 0.46067,2.5529 1.68683,3.17844 0.514,0.26219 0.8184,0.29968 2.07537,0.25647 1.26788,-0.0436 1.45806,-0.0197 1.3672,0.17289 -0.25474,0.53973 -0.0915,1.18175 0.49955,1.96436 0.32996,0.4369 0.76163,0.86902 0.95889,0.96017 0.19726,0.0911 0.60399,0.27182 0.90402,0.40129 0.30003,0.12947 0.66937,0.40507 0.82045,0.61247 0.15108,0.20739 0.3245,0.37892 0.38598,0.38151 0.22243,0.009 0.10309,-0.327 -0.34962,-0.98505 -0.34865,-0.50673 -0.70469,-0.78708 -1.45396,-1.14518 -0.9778,-0.46705 -0.99211,-0.48341 -0.97421,-1.04694 0.0111,-0.36906 0.17104,-0.78695 0.44787,-1.17708 0.37268,-0.52519 0.65459,-0.69685 2.14363,-1.30404 2.55951,-1.04369 3.80405,-1.85467 4.65091,-3.03043 l 0.30049,-0.41724 -0.38981,-0.58886 c -0.32482,-0.49083 -0.47372,-0.5895 -0.88808,-0.5895 -0.96066,0 -3.15634,1.4317 -5.06623,3.30349 -1.35089,1.32393 -1.73883,1.46845 -3.9453,1.468 -1.66517,-2.9e-4 -2.31866,-0.28119 -2.3899,-1.02716 -0.0265,-0.27791 -0.01,-0.65536 0.0357,-0.83895 0.13713,-0.54632 1.09065,-1.5741 3.11401,-3.3558 2.04147,-1.79765 3.08721,-3.06376 3.08721,-3.73859 0,-0.38998 0.0465,-0.41835 0.85745,-0.52124 1.21794,-0.15452 7.03612,0.30231 7.27877,0.57164 0.0184,0.0204 -0.0231,0.37272 -0.0925,0.78281 -0.2475,1.46212 -0.32892,5.18837 -0.1512,6.93426 0.27308,2.68274 0.9913,5.32246 1.49352,5.48986 0.1505,0.0502 0.17355,-0.006 0.0868,-0.21245 -0.62128,-1.47724 -1.12163,-4.80912 -1.12286,-7.48229 -0.001,-2.25215 0.30039,-5.39991 0.51804,-5.39991 0.0958,0 0.67119,0.1302 1.27853,0.28965 0.60733,0.15944 1.1295,0.26447 1.16049,0.2335 0.16737,-0.16737 -0.23675,-0.3698 -1.20261,-0.60226 -0.59537,-0.14328 -1.12551,-0.2846 -1.17835,-0.31389 -0.29736,-0.1646 0.63493,-2.71545 1.22238,-3.34431 0.51788,-0.5544 0.52656,-0.58759 0.1563,-0.58759 -0.62343,0 -1.59572,1.64103 -1.88461,3.181 -0.11593,0.618 -0.11469,0.61795 -1.33658,0.33685 -1.5447,-0.35536 -3.47568,-0.57067 -5.30101,-0.59077 -1.69557,-0.0187 -1.76367,-0.0316 -1.82527,-0.35153 -0.0562,-0.29161 0.17564,-0.46301 1.89097,-1.40038 2.33797,-1.27762 3.12743,-1.7672 3.02151,-1.87312 -0.0433,-0.0434 -1.20999,0.51013 -2.59213,1.22939 l -2.51303,1.30724 -0.36684,-0.35983 c -0.20187,-0.19814 -0.51886,-0.46137 -0.70433,-0.58439 l -0.3375,-0.2233 0.52379,-2.65721 c 0.52267,-2.65215 0.56131,-2.79601 0.44978,-2.79054 z m 6.02194,14.06693 c 0.22388,0.0437 -0.43946,0.69004 -1.92289,1.57519 -2.6372,1.5736 -3.16558,1.56592 -0.24179,-0.41278 1.27914,-0.86568 1.99054,-1.19643 2.16468,-1.16241 z"
       id="path2407"
       inkscape:connector-curvature="0" />
    <text
       xml:space="preserve"
       style="font-style:normal;font-variant:normal;font-weight:bold;font-stretch:normal;font-size:4.23333311px;line-height:1.25;font-family:iosevka;-inkscape-font-specification:'iosevka Bold';letter-spacing:0px;word-spacing:0px;fill:#01fc2b;fill-opacity:1;stroke:none;stroke-width:0.26458332"
       x="78.362709"
       y="140.65997"
       id="text1003"><tspan
         sodipodi:role="line"
         x="78.362709"
         y="140.65997"
         style="font-style:normal;font-variant:normal;font-weight:900;font-stretch:normal;font-size:25.39999962px;font-family:iosevka;-inkscape-font-specification:'iosevka Heavy';fill:#01fc2b;fill-opacity:1;stroke-width:0.26458332"
         id="tspan2978"><tspan
   id="tspan2994"
   style="font-style:normal;font-variant:normal;font-weight:900;font-stretch:normal;font-size:35.27777863px;font-family:iosevka;-inkscape-font-specification:'iosevka Heavy';fill:#01fc2b;fill-opacity:1;stroke-width:0.26458332"><tspan
   style="font-size:49.38889313px"
   id="tspan3008">Hacking</tspan> </tspan> </tspan></text>
    <text
       xml:space="preserve"
       style="font-style:normal;font-variant:normal;font-weight:500;font-stretch:normal;font-size:19.75555611px;line-height:1.25;font-family:Iosevka;-inkscape-font-specification:'Iosevka Medium';letter-spacing:0px;word-spacing:0px;fill:#01fc2b;fill-opacity:1;stroke:none;stroke-width:0.26458332"
       x="37.399494"
       y="298.71686"
       id="text4650"><tspan
         sodipodi:role="line"
         id="tspan4648"
         x="37.399494"
         y="298.71686"
         style="font-style:normal;font-variant:normal;font-weight:500;font-stretch:normal;font-size:19.75555611px;font-family:Iosevka;-inkscape-font-specification:'Iosevka Medium';fill:#01fc2b;fill-opacity:1;stroke-width:0.26458332">date  = 20th January</tspan><tspan
         sodipodi:role="line"
         x="37.399494"
         y="323.41132"
         style="font-style:normal;font-variant:normal;font-weight:500;font-stretch:normal;font-size:19.75555611px;font-family:Iosevka;-inkscape-font-specification:'Iosevka Medium';fill:#01fc2b;fill-opacity:1;stroke-width:0.26458332"
         id="tspan4656" /><tspan
         sodipodi:role="line"
         x="37.399494"
         y="348.10574"
         style="font-style:normal;font-variant:normal;font-weight:500;font-stretch:normal;font-size:19.75555611px;font-family:Iosevka;-inkscape-font-specification:'Iosevka Medium';fill:#01fc2b;fill-opacity:1;stroke-width:0.26458332"
         id="tspan4658" /><tspan
         sodipodi:role="line"
         x="37.399494"
         y="372.8002"
         style="font-style:normal;font-variant:normal;font-weight:500;font-stretch:normal;font-size:19.75555611px;font-family:Iosevka;-inkscape-font-specification:'Iosevka Medium';fill:#01fc2b;fill-opacity:1;stroke-width:0.26458332"
         id="tspan4652" /><tspan
         sodipodi:role="line"
         x="37.399494"
         y="397.49463"
         style="font-style:normal;font-variant:normal;font-weight:500;font-stretch:normal;font-size:19.75555611px;font-family:Iosevka;-inkscape-font-specification:'Iosevka Medium';fill:#01fc2b;fill-opacity:1;stroke-width:0.26458332"
         id="tspan4654" /></text>
    <text
       xml:space="preserve"
       style="font-style:normal;font-variant:normal;font-weight:500;font-stretch:normal;font-size:19.75555611px;line-height:1.25;font-family:Iosevka;-inkscape-font-specification:'Iosevka Medium';letter-spacing:0px;word-spacing:0px;fill:#01fc2b;fill-opacity:1;stroke:none;stroke-width:0.26458332"
       x="37.399494"
       y="322.15292"
       id="text4672"><tspan
         sodipodi:role="line"
         id="tspan4670"
         x="37.399494"
         y="322.15292"
         style="font-style:normal;font-variant:normal;font-weight:500;font-stretch:normal;font-size:19.75555611px;font-family:Iosevka;-inkscape-font-specification:'Iosevka Medium';fill:#01fc2b;fill-opacity:1;stroke-width:0.26458332">time  = 2pm to 4pm</tspan></text>
    <text
       xml:space="preserve"
       style="font-style:normal;font-variant:normal;font-weight:500;font-stretch:normal;font-size:19.75555611px;line-height:1.25;font-family:Iosevka;-inkscape-font-specification:'Iosevka Medium';letter-spacing:0px;word-spacing:0px;fill:#01fc2b;fill-opacity:1;stroke:none;stroke-width:0.26458332"
       x="37.399494"
       y="345.57141"
       id="text4682"><tspan
         sodipodi:role="line"
         id="tspan4680"
         x="37.399494"
         y="345.57141"
         style="font-style:normal;font-variant:normal;font-weight:500;font-stretch:normal;font-size:19.75555611px;font-family:Iosevka;-inkscape-font-specification:'Iosevka Medium';fill:#01fc2b;fill-opacity:1;stroke-width:0.26458332">venue = Nalanda NR221</tspan></text>
    <text
       xml:space="preserve"
       style="font-style:normal;font-variant:normal;font-weight:bold;font-stretch:normal;font-size:4.23333311px;line-height:1.25;font-family:iosevka;-inkscape-font-specification:'iosevka Bold';letter-spacing:0px;word-spacing:0px;fill:#01fc2b;fill-opacity:1;stroke:none;stroke-width:0.26458332"
       x="37.328865"
       y="392.3342"
       id="text4688"><tspan
         sodipodi:role="line"
         x="37.328865"
         y="392.3342"
         style="font-style:normal;font-variant:normal;font-weight:bold;font-stretch:normal;font-size:14.11111069px;font-family:iosevka;-inkscape-font-specification:'iosevka Bold';fill:#01fc2b;fill-opacity:1;stroke-width:0.26458332"
         id="tspan4692"><tspan
           id="tspan3226"
           style="font-style:normal;font-variant:normal;font-weight:500;font-stretch:normal;font-size:12.69999981px;font-family:iosevka;-inkscape-font-specification:'iosevka Medium';fill:#01fc2b;fill-opacity:1;stroke-width:0.26458332">Contact = Apoorva 8696809438</tspan></tspan><tspan
         sodipodi:role="line"
         x="37.328865"
         y="400.52802"
         style="font-style:normal;font-variant:normal;font-weight:bold;font-stretch:normal;font-size:14.11111069px;font-family:iosevka;-inkscape-font-specification:'iosevka Bold';fill:#01fc2b;fill-opacity:1;stroke-width:0.26458332"
         id="tspan3002" /></text>
    <text
       xml:space="preserve"
       style="font-style:normal;font-variant:normal;font-weight:normal;font-stretch:normal;font-size:7.27254868px;line-height:1.25;font-family:'Josefin Sans';-inkscape-font-specification:'Josefin Sans';letter-spacing:0px;word-spacing:0px;fill:#01fc2b;fill-opacity:1;stroke:none;stroke-width:0.45453429"
       x="33.560291"
       y="134.62328"
       id="text2990"
       transform="scale(0.89737704,1.1143588)"><tspan
         sodipodi:role="line"
         id="tspan2988"
         x="33.560291"
         y="134.62328"
         style="font-style:normal;font-variant:normal;font-weight:normal;font-stretch:normal;font-size:87.27059937px;font-family:'Josefin Sans';-inkscape-font-specification:'Josefin Sans';fill:#01fc2b;fill-opacity:1;stroke-width:0.45453429">&gt;</tspan></text>
    <text
       xml:space="preserve"
       style="font-style:normal;font-variant:normal;font-weight:normal;font-stretch:normal;font-size:4.23333311px;line-height:1.25;font-family:Iosevka;-inkscape-font-specification:Iosevka;letter-spacing:0px;word-spacing:0px;fill:#01fc2b;fill-opacity:1;stroke:none;stroke-width:0.26458332"
       x="78.819"
       y="174.10107"
       id="text2998"><tspan
         sodipodi:role="line"
         id="tspan2996"
         x="78.819"
         y="174.10107"
         style="font-style:normal;font-variant:normal;font-weight:500;font-stretch:normal;font-size:25.39999962px;font-family:Iosevka;-inkscape-font-specification:'Iosevka Medium';fill:#01fc2b;fill-opacity:1;stroke-width:0.26458332">Web Application </tspan><tspan
         sodipodi:role="line"
         x="78.819"
         y="205.85107"
         style="font-style:normal;font-variant:normal;font-weight:500;font-stretch:normal;font-size:25.39999962px;font-family:Iosevka;-inkscape-font-specification:'Iosevka Medium';fill:#01fc2b;fill-opacity:1;stroke-width:0.26458332"
         id="tspan3000">Security</tspan><tspan
         sodipodi:role="line"
         x="78.819"
         y="237.60107"
         style="font-style:normal;font-variant:normal;font-weight:500;font-stretch:normal;font-size:25.39999962px;font-family:Iosevka;-inkscape-font-specification:'Iosevka Medium';fill:#01fc2b;fill-opacity:1;stroke-width:0.26458332"
         id="tspan3006">Workshop</tspan></text>
    <path
       inkscape:export-ydpi="650.23999"
       inkscape:export-xdpi="650.23999"
       inkscape:export-filename="/home/xypnox/koss-sticker.png"
       id="path3058"
       d="m 251.66495,17.87778 -10.84085,3.66126 -1.83982,2.80221 -0.001,-10e-4 -1.44188,2.19762 v -5.79661 h -7.1997 v 21.306501 h 7.196 l 0.002,-0.26752 c 0.0276,-2.39808 0.0117,-4.68646 0.002,-6.91111 l 4.35857,6.31475 9.74084,1.97549 -8.02417,-11.926871 z m 13.15632,0.74847 c -6.90207,0 -12.50489,5.58593 -12.50489,12.4682 0,6.882961 5.63542,12.171211 12.52951,12.171211 3.84317,0 7.04566,-1.70712 9.12901,-4.40491 3.5508,-0.99204 6.00459,-4.20116 6.0081,-7.857571 -0.002,-3.60095 -2.38452,-6.77507 -5.86275,-7.81556 -2.08494,-2.79378 -5.35988,-4.56137 -9.29898,-4.56137 z m -14.38816,0.24 -7.14723,11.86893 -3.97129,-5.90332 1.8596,-2.83552 z m 14.38816,0.30422 c 3.52277,0 6.47475,1.45436 8.46455,3.81241 -0.51032,-0.0988 -1.02915,-0.14952 -1.54911,-0.15163 -2.41693,0.009 -4.70871,1.06629 -6.26933,2.8954 -0.0117,-0.008 -0.0241,-0.0146 -0.0364,-0.0237 -0.94374,-0.59079 -2.058,-0.93101 -3.2498,-0.93101 -3.40573,0 -6.17036,2.78902 -6.17036,6.21961 0,3.430581 2.76463,6.219601 6.17036,6.219601 1.18011,0 2.28305,-0.33442 3.22086,-0.91458 0.0154,-0.0115 0.03,-0.0186 0.0451,-0.029 1.56287,1.83928 3.86344,2.90311 6.28959,2.90796 0.47032,-10e-4 0.93989,-0.0458 1.40281,-0.12797 -1.98043,2.2719 -4.86354,3.67431 -8.2936,3.67431 -6.61684,0 -11.98581,-5.04085 -11.98581,-11.627491 0,-6.58734 5.35229,-11.92398 11.96118,-11.92398 z m -33.93599,2.1136 h 6.1124 v 6.08151 l -2.25702,3.43962 2.2575,3.27157 c 0.007,2.380711 0.0253,4.857541 -2.6e-4,7.426831 h -6.11251 z m 31.29605,4.03164 c 1.08803,0 2.10104,0.30979 2.96154,0.84844 0.88992,0.55707 1.75977,1.3566 2.36374,2.29517 0.3734,0.791 0.56909,1.65571 0.57271,2.53179 -0.002,0.87688 -0.19895,1.74197 -0.57271,2.53372 -0.60868,0.945351 -1.48786,1.749241 -2.38837,2.306281 -0.85505,0.52892 -1.85954,0.83588 -2.93691,0.83588 -3.1093,0 -5.62663,-2.536361 -5.62663,-5.675401 0,-3.13906 2.51733,-5.67588 5.62663,-5.67588 z m -21.45623,19.654551 -11.03449,6.49582 1.09954,8.94987 8.0821,3.91768 3.05525,-10.09093 11.49614,-6.37269 z m 24.07879,0.35347 -11.03451,6.49535 1.10001,8.95034 8.08213,3.91768 3.05523,-10.09093 11.49614,-6.37268 z m -23.988,0.2231 11.10016,2.54145 -20.68502,11.45895 -0.95952,-7.79286 z m 24.07876,0.35348 11.10068,2.54144 -20.68505,11.45895 -0.95999,-7.79334 z m -20.70869,9.95234 -2.74327,9.76401 -12.05002,6.54943 c 4.35009,0.96547 8.69916,1.93527 13.04862,2.90361 l 10.74621,-6.32247 -1.06669,-8.93393 z m 24.2956,0.30518 -2.95962,9.37964 -12.05,6.54942 c 4.35009,0.96543 8.69917,1.93528 13.04861,2.90361 l 10.74623,-6.32246 -1.06721,-8.93345 z m 7.27328,4.43727 0.92668,7.78465 -10.25176,6.03419 -11.41741,-2.54531 z m -24.07878,0.0792 0.92667,7.78466 -10.25222,6.03418 -11.41742,-2.54579 z"
       style="color:#000000;font-style:normal;font-variant:normal;font-weight:normal;font-stretch:normal;font-size:medium;line-height:normal;font-family:sans-serif;font-variant-ligatures:normal;font-variant-position:normal;font-variant-caps:normal;font-variant-numeric:normal;font-variant-alternates:normal;font-feature-settings:normal;text-indent:0;text-align:start;text-decoration:none;text-decoration-line:none;text-decoration-style:solid;text-decoration-color:#000000;letter-spacing:normal;word-spacing:normal;text-transform:none;writing-mode:lr-tb;direction:ltr;text-orientation:mixed;dominant-baseline:auto;baseline-shift:baseline;text-anchor:start;white-space:normal;shape-padding:0;clip-rule:nonzero;display:inline;overflow:visible;visibility:visible;opacity:0.431;isolation:auto;mix-blend-mode:normal;color-interpolation:sRGB;color-interpolation-filters:linearRGB;solid-color:#000000;solid-opacity:1;vector-effect:none;fill:#01fc2b;fill-opacity:1;fill-rule:nonzero;stroke:#01fc2b;stroke-width:1.12360752;stroke-linecap:round;stroke-linejoin:round;stroke-miterlimit:3.5;stroke-dasharray:none;stroke-dashoffset:0;stroke-opacity:1;paint-order:stroke markers fill;color-rendering:auto;image-rendering:auto;shape-rendering:auto;text-rendering:auto;enable-background:accumulate;filter:url(#filter3104)"
       inkscape:connector-curvature="0" />
    <text
       id="text3128"
       y="143.30577"
       x="78.362709"
       style="font-style:normal;font-variant:normal;font-weight:bold;font-stretch:normal;font-size:4.23333311px;line-height:1.25;font-family:iosevka;-inkscape-font-specification:'iosevka Bold';letter-spacing:0px;word-spacing:0px;opacity:0.403;fill:#01fc2b;fill-opacity:1;stroke:none;stroke-width:0.26458332;filter:url(#filter3214)"
       xml:space="preserve"><tspan
         id="tspan3126"
         style="font-style:normal;font-variant:normal;font-weight:900;font-stretch:normal;font-size:25.39999962px;font-family:iosevka;-inkscape-font-specification:'iosevka Heavy';fill:#01fc2b;fill-opacity:1;stroke-width:0.26458332"
         y="143.30577"
         x="78.362709"
         sodipodi:role="line"><tspan
   style="font-style:normal;font-variant:normal;font-weight:900;font-stretch:normal;font-size:35.27777863px;font-family:iosevka;-inkscape-font-specification:'iosevka Heavy';fill:#01fc2b;fill-opacity:1;stroke-width:0.26458332"
   id="tspan3124"><tspan
   id="tspan3122"
   style="font-size:49.38889313px">Hacking</tspan> </tspan> </tspan></text>
    <text
       transform="matrix(0.89737704,0,0,1.1143588,0,4.7625002)"
       id="text3132"
       y="132.7238"
       x="33.560291"
       style="font-style:normal;font-variant:normal;font-weight:normal;font-stretch:normal;font-size:7.27254868px;line-height:1.25;font-family:'Josefin Sans';-inkscape-font-specification:'Josefin Sans';letter-spacing:0px;word-spacing:0px;opacity:0.403;fill:#01fc2b;fill-opacity:1;stroke:none;stroke-width:0.45453429;filter:url(#filter3218)"
       xml:space="preserve"><tspan
         style="font-style:normal;font-variant:normal;font-weight:normal;font-stretch:normal;font-size:87.27059937px;font-family:'Josefin Sans';-inkscape-font-specification:'Josefin Sans';fill:#01fc2b;fill-opacity:1;stroke-width:0.45453429"
         y="132.7238"
         x="33.560291"
         id="tspan3130"
         sodipodi:role="line">&gt;</tspan></text>
    <text
       id="text3140"
       y="176.74687"
       x="78.819"
       style="font-style:normal;font-variant:normal;font-weight:normal;font-stretch:normal;font-size:4.23333311px;line-height:1.25;font-family:Iosevka;-inkscape-font-specification:Iosevka;letter-spacing:0px;word-spacing:0px;opacity:0.403;fill:#01fc2b;fill-opacity:1;stroke:none;stroke-width:0.26458332;filter:url(#filter3222)"
       xml:space="preserve"><tspan
         style="font-style:normal;font-variant:normal;font-weight:500;font-stretch:normal;font-size:25.39999962px;font-family:Iosevka;-inkscape-font-specification:'Iosevka Medium';fill:#01fc2b;fill-opacity:1;stroke-width:0.26458332"
         y="176.74687"
         x="78.819"
         id="tspan3134"
         sodipodi:role="line">Web Application </tspan><tspan
         id="tspan3136"
         style="font-style:normal;font-variant:normal;font-weight:500;font-stretch:normal;font-size:25.39999962px;font-family:Iosevka;-inkscape-font-specification:'Iosevka Medium';fill:#01fc2b;fill-opacity:1;stroke-width:0.26458332"
         y="208.49687"
         x="78.819"
         sodipodi:role="line">Security</tspan><tspan
         id="tspan3138"
         style="font-style:normal;font-variant:normal;font-weight:500;font-stretch:normal;font-size:25.39999962px;font-family:Iosevka;-inkscape-font-specification:'Iosevka Medium';fill:#01fc2b;fill-opacity:1;stroke-width:0.26458332"
         y="240.24687"
         x="78.819"
         sodipodi:role="line">Workshop</tspan></text>
  </g>
</svg>
