<?xml version="1.0" encoding="UTF-8" standalone="no"?>
<!-- Created with Inkscape (http://www.inkscape.org/) -->

<svg
   xmlns:dc="http://purl.org/dc/elements/1.1/"
   xmlns:cc="http://creativecommons.org/ns#"
   xmlns:rdf="http://www.w3.org/1999/02/22-rdf-syntax-ns#"
   xmlns:svg="http://www.w3.org/2000/svg"
   xmlns="http://www.w3.org/2000/svg"
   xmlns:xlink="http://www.w3.org/1999/xlink"
   xmlns:sodipodi="http://sodipodi.sourceforge.net/DTD/sodipodi-0.dtd"
   xmlns:inkscape="http://www.inkscape.org/namespaces/inkscape"
   width="297mm"
   height="420mm"
   viewBox="0 0 297 420"
   version="1.1"
   id="SVGRoot"
   inkscape:version="0.92.3 (2405546, 2018-03-11)"
   sodipodi:docname="python-workshop.svg"
   inkscape:export-filename="/home/xypnox/Final-posters/python-workshop.png"
   inkscape:export-xdpi="180"
   inkscape:export-ydpi="180">
  <sodipodi:namedview
     id="base"
     pagecolor="#ffffff"
     bordercolor="#666666"
     borderopacity="1.0"
     inkscape:pageopacity="0.0"
     inkscape:pageshadow="2"
     inkscape:zoom="0.24748738"
     inkscape:cx="551.23385"
     inkscape:cy="876.48955"
     inkscape:document-units="mm"
     inkscape:current-layer="layer1"
     showgrid="false"
     inkscape:window-width="928"
     inkscape:window-height="1015"
     inkscape:window-x="20"
     inkscape:window-y="20"
     inkscape:window-maximized="0"
     inkscape:snap-bbox="true"
     inkscape:bbox-paths="true"
     inkscape:bbox-nodes="true"
     inkscape:snap-bbox-midpoints="true"
     inkscape:snap-bbox-edge-midpoints="true"
     inkscape:object-paths="true"
     inkscape:snap-intersection-paths="true"
     inkscape:snap-smooth-nodes="true"
     inkscape:snap-midpoints="true"
     inkscape:snap-object-midpoints="true"
     inkscape:snap-center="true"
     inkscape:snap-text-baseline="true"
     inkscape:snap-page="true"
     showguides="false"
     inkscape:guide-bbox="true">
    <sodipodi:guide
       position="148.5,0"
       orientation="1,0"
       id="guide2196"
       inkscape:locked="false" />
    <sodipodi:guide
       position="26.336629,319.40653"
       orientation="1,0"
       id="guide4660"
       inkscape:locked="false" />
    <sodipodi:guide
       position="109.58051,64.679226"
       orientation="-0.23775338,0.97132555"
       id="guide4678"
       inkscape:locked="false" />
    <sodipodi:guide
       position="270.63096,161.77381"
       orientation="1,0"
       id="guide4684"
       inkscape:locked="false" />
  </sodipodi:namedview>
  <defs
     id="defs1470">
    <linearGradient
       id="linearGradient2795">
      <stop
         id="stop2797"
         offset="0"
         style="stop-color:#b8b8b8;stop-opacity:0.49803922" />
      <stop
         id="stop2799"
         offset="1"
         style="stop-color:#7f7f7f;stop-opacity:0" />
    </linearGradient>
    <linearGradient
       id="linearGradient2787">
      <stop
         id="stop2789"
         offset="0"
         style="stop-color:#7f7f7f;stop-opacity:0.5" />
      <stop
         id="stop2791"
         offset="1"
         style="stop-color:#7f7f7f;stop-opacity:0" />
    </linearGradient>
    <linearGradient
       id="linearGradient3676">
      <stop
         id="stop3678"
         offset="0"
         style="stop-color:#b2b2b2;stop-opacity:0.5" />
      <stop
         id="stop3680"
         offset="1"
         style="stop-color:#b3b3b3;stop-opacity:0" />
    </linearGradient>
    <linearGradient
       id="linearGradient3236">
      <stop
         id="stop3244"
         offset="0"
         style="stop-color:#f4f4f4;stop-opacity:1" />
      <stop
         id="stop3240"
         offset="1"
         style="stop-color:#ffffff;stop-opacity:1" />
    </linearGradient>
    <linearGradient
       id="linearGradient4671">
      <stop
         id="stop4673"
         offset="0"
         style="stop-color:#ffd43b;stop-opacity:1" />
      <stop
         id="stop4675"
         offset="1"
         style="stop-color:#ffe873;stop-opacity:1" />
    </linearGradient>
    <linearGradient
       id="linearGradient4689">
      <stop
         id="stop4691"
         offset="0"
         style="stop-color:#5a9fd4;stop-opacity:1" />
      <stop
         id="stop4693"
         offset="1"
         style="stop-color:#306998;stop-opacity:1" />
    </linearGradient>
    <linearGradient
       gradientTransform="translate(100.2702,99.61116)"
       gradientUnits="userSpaceOnUse"
       xlink:href="#linearGradient4671"
       id="linearGradient2987"
       y2="144.75717"
       x2="-65.308502"
       y1="144.75717"
       x1="224.23996" />
    <linearGradient
       gradientTransform="translate(100.2702,99.61116)"
       gradientUnits="userSpaceOnUse"
       xlink:href="#linearGradient4689"
       id="linearGradient2990"
       y2="76.313133"
       x2="26.670298"
       y1="77.475983"
       x1="172.94208" />
    <linearGradient
       gradientTransform="matrix(0.562541,0,0,0.567972,-11.5974,-7.60954)"
       gradientUnits="userSpaceOnUse"
       xlink:href="#linearGradient4671"
       id="linearGradient2255"
       y2="144.75717"
       x2="-65.308502"
       y1="144.75717"
       x1="224.23996" />
    <linearGradient
       gradientTransform="matrix(0.562541,0,0,0.567972,-11.5974,-7.60954)"
       gradientUnits="userSpaceOnUse"
       xlink:href="#linearGradient4689"
       id="linearGradient2258"
       y2="76.313133"
       x2="26.670298"
       y1="76.176224"
       x1="172.94208" />
    <radialGradient
       gradientTransform="matrix(1,0,0,0.177966,0,108.7434)"
       gradientUnits="userSpaceOnUse"
       xlink:href="#linearGradient2795"
       id="radialGradient2801"
       fy="132.28575"
       fx="61.518883"
       r="29.036913"
       cy="132.28575"
       cx="61.518883" />
    <linearGradient
       gradientTransform="matrix(0.562541,0,0,0.567972,-9.399749,-5.305317)"
       gradientUnits="userSpaceOnUse"
       xlink:href="#linearGradient4671"
       id="linearGradient1475"
       y2="137.27299"
       x2="112.03144"
       y1="192.35176"
       x1="150.96111" />
    <linearGradient
       gradientTransform="matrix(0.562541,0,0,0.567972,-9.399749,-5.305317)"
       gradientUnits="userSpaceOnUse"
       xlink:href="#linearGradient4689"
       id="linearGradient1478"
       y2="114.39767"
       x2="135.66525"
       y1="20.603781"
       x1="26.648937" />
    <radialGradient
       gradientTransform="matrix(2.382716e-8,-0.296405,1.43676,4.683673e-7,-128.544,150.5202)"
       gradientUnits="userSpaceOnUse"
       xlink:href="#linearGradient2795"
       id="radialGradient1480"
       fy="132.28575"
       fx="61.518883"
       r="29.036913"
       cy="132.28575"
       cx="61.518883" />
  </defs>
  <metadata
     id="metadata1473">
    <rdf:RDF>
      <cc:Work
         rdf:about="">
        <dc:format>image/svg+xml</dc:format>
        <dc:type
           rdf:resource="http://purl.org/dc/dcmitype/StillImage" />
        <dc:title />
      </cc:Work>
    </rdf:RDF>
  </metadata>
  <g
     id="layer1"
     inkscape:groupmode="layer"
     inkscape:label="Layer 1">
    <rect
       style="opacity:1;fill:#fcfcfc;fill-opacity:1;fill-rule:nonzero;stroke:#fbfbfb;stroke-width:0.65399998;stroke-linecap:round;stroke-linejoin:round;stroke-miterlimit:3.5;stroke-dasharray:none;stroke-opacity:1;paint-order:stroke markers fill"
       id="rect4723"
       width="297"
       height="420"
       x="0"
       y="0" />
    <path
       style="fill:#ffd43b;fill-opacity:1;stroke:none;stroke-width:0.26458332px;stroke-linecap:butt;stroke-linejoin:miter;stroke-opacity:1"
       d="M 0,308.09522 297,235.39791 V 420 H 0 Z"
       id="path2029"
       inkscape:connector-curvature="0"
       sodipodi:nodetypes="ccccc" />
    <path
       style="fill:#5a9fd4;fill-opacity:1;stroke:none;stroke-width:0.26458332px;stroke-linecap:butt;stroke-linejoin:miter;stroke-opacity:1"
       d="M 0,9.6638996e-6 V 274.46647 L 297,201.76916 V 9.6638996e-6 Z"
       id="path2198"
       inkscape:connector-curvature="0"
       sodipodi:nodetypes="ccccc" />
    <text
       xml:space="preserve"
       style="font-style:normal;font-variant:normal;font-weight:bold;font-stretch:normal;font-size:4.23333311px;line-height:1.25;font-family:'Josefin Sans';-inkscape-font-specification:'Josefin Sans Bold';letter-spacing:0px;word-spacing:0px;fill:#ffffff;fill-opacity:1;stroke:none;stroke-width:0.26458332;"
       x="25.489962"
       y="52.801754"
       id="text2228-3"><tspan
         sodipodi:role="line"
         id="tspan2226-6"
         x="25.489962"
         y="52.801754"
         style="font-style:normal;font-variant:normal;font-weight:normal;font-stretch:normal;font-size:16.93333244px;font-family:Baumans;-inkscape-font-specification:Baumans;fill:#ffffff;fill-opacity:1;stroke-width:0.26458332">Open Source Summit</tspan></text>
    <circle
       style="opacity:1;fill:#ffffff;fill-opacity:1;fill-rule:nonzero;stroke:none;stroke-width:1.63091159;stroke-linecap:round;stroke-linejoin:round;stroke-miterlimit:3.5;stroke-dasharray:none;stroke-opacity:1;paint-order:stroke markers fill"
       id="path2200"
       cx="104.30917"
       cy="263.03104"
       r="57.081905" />
    <g
       id="g2216"
       transform="matrix(2.1430276,0,0,2.1430276,-62.131929,39.808386)">
      <path
         d="m 50.836941,54.87477 c 0,-3.852916 -1.098629,-5.830941 -3.295862,-5.939261 -0.874262,-0.04125 -1.727861,0.098 -2.558282,0.42037 -0.662781,0.237252 -1.108922,0.471937 -1.343607,0.709216 v 9.196414 c 1.405493,0.881988 2.653691,1.292039 3.742002,1.22756 2.30296,-0.152162 3.455749,-2.021866 3.455749,-5.614299 z m 2.710445,0.159888 c 0,1.957387 -0.459052,3.582114 -1.382316,4.874154 -1.028965,1.462246 -2.455122,2.215303 -4.278418,2.256551 -1.374564,0.04384 -2.790375,-0.386847 -4.247462,-1.289446 v 8.358266 l -2.357147,-0.84074 V 49.840728 c 0.386848,-0.47453 0.884582,-0.881989 1.488043,-1.227561 1.402927,-0.817536 3.107585,-1.237906 5.113999,-1.258517 l 0.03352,0.03352 c 1.833615,-0.02328 3.246861,0.729826 4.239736,2.256552 0.92583,1.40036 1.390042,3.195267 1.390042,5.389933 z"
         style="fill:#ffffff;fill-opacity:1;stroke-width:0.26458332"
         id="path46"
         inkscape:connector-curvature="0" />
      <path
         d="m 67.953207,60.520026 c 0,2.625328 -0.263049,4.443465 -0.789146,5.454411 -0.528664,1.01092 -1.534451,1.818138 -3.019901,2.419006 -1.204357,0.474531 -2.506716,0.73242 -3.904483,0.776261 l -0.389414,-1.48545 c 1.420972,-0.193437 2.421599,-0.386847 3.001857,-0.580257 1.142444,-0.386848 1.926458,-0.979991 2.35712,-1.774296 0.345572,-0.647303 0.515779,-1.882617 0.515779,-3.711073 v -0.61378 c -1.611816,0.73242 -3.300995,1.096037 -5.067565,1.096037 -1.160515,0 -2.184347,-0.363617 -3.066335,-1.096037 -0.990309,-0.796872 -1.485451,-1.807818 -1.485451,-3.032813 v -9.810194 l 2.35712,-0.807191 v 9.874673 c 0,1.054762 0.34044,1.867138 1.021266,2.437077 0.680825,0.569939 1.562814,0.843307 2.643399,0.822669 1.080558,-0.02328 2.23848,-0.441007 3.468634,-1.258517 V 47.710541 h 2.35712 z"
         style="fill:#ffffff;fill-opacity:1;stroke-width:0.26458332"
         id="path48"
         inkscape:connector-curvature="0" />
      <path
         d="m 77.15478,62.036432 c -0.281093,0.02328 -0.538982,0.03352 -0.776234,0.03352 -1.333315,0 -2.372625,-0.317209 -3.115337,-0.95422 -0.740145,-0.636984 -1.111514,-1.51638 -1.111514,-2.638213 v -9.284124 h -1.614408 v -1.482857 h 1.614408 v -3.938005 l 2.354553,-0.838147 v 4.776152 h 2.648532 v 1.482857 h -2.648532 v 9.219645 c 0,0.884555 0.237252,1.511247 0.711782,1.877457 0.407459,0.30173 1.054762,0.474503 1.93675,0.518345 z"
         style="fill:#ffffff;fill-opacity:1;stroke-width:0.26458332"
         id="path50"
         inkscape:connector-curvature="0" />
      <path
         d="m 91.426511,61.842995 h -2.35712 v -9.098412 c 0,-0.92583 -0.216641,-1.722729 -0.647303,-2.388076 -0.497734,-0.753057 -1.188879,-1.129559 -2.076027,-1.129559 -1.080584,0 -2.431917,0.569939 -4.054051,1.709816 V 61.842995 H 79.934863 V 40.094986 l 2.357147,-0.742712 v 9.905603 c 1.506087,-1.096036 3.151425,-1.645338 4.938606,-1.645338 1.248199,0 2.259145,0.42037 3.032813,1.258518 0.776261,0.838147 1.163082,1.882589 1.163082,3.130788 z"
         style="fill:#ffffff;fill-opacity:1;stroke-width:0.26458332"
         id="path52"
         inkscape:connector-curvature="0" />
      <path
         d="m 103.9549,54.503401 c 0,-1.480291 -0.28109,-2.702693 -0.84074,-3.669798 -0.66535,-1.17856 -1.6995,-1.800092 -3.09726,-1.864571 -2.584083,0.149595 -3.87353,2.001255 -3.87353,5.549847 0,1.627293 0.268208,2.986378 0.809758,4.077255 0.691171,1.390042 1.727888,2.076027 3.110172,2.052823 2.5944,-0.02064 3.8916,-2.068274 3.8916,-6.145556 z m 2.58149,0.01561 c 0,2.106983 -0.53898,3.860641 -1.61438,5.261001 -1.18372,1.567974 -2.81877,2.354528 -4.90511,2.354528 -2.068304,0 -3.680119,-0.786554 -4.843201,-2.354528 -1.054788,-1.40036 -1.580886,-3.154018 -1.580886,-5.261001 0,-1.980618 0.569939,-3.646593 1.709817,-5.003112 1.204357,-1.439016 2.787809,-2.161117 4.74522,-2.161117 1.95739,0 3.55116,0.722101 4.77872,2.161117 1.13988,1.356519 1.70982,3.022494 1.70982,5.003112 z"
         style="fill:#ffffff;fill-opacity:1;stroke-width:0.26458332"
         id="path54"
         inkscape:connector-curvature="0" />
      <path
         d="m 120.04993,61.842995 h -2.35715 v -9.614191 c 0,-1.054788 -0.31718,-1.877457 -0.9516,-2.4706 -0.63442,-0.590576 -1.48031,-0.876855 -2.53508,-0.853625 -1.11924,0.02064 -2.18434,0.386821 -3.19529,1.096037 v 11.842379 h -2.35712 V 49.709204 c 1.35652,-0.987743 2.60472,-1.632453 3.7446,-1.93421 1.07539,-0.281094 2.02443,-0.420344 2.84196,-0.420344 0.55962,0 1.08572,0.05416 1.58086,0.162454 0.92583,0.214048 1.67889,0.611214 2.25915,1.194038 0.6473,0.644737 0.96967,1.418405 0.96967,2.323624 z"
         style="fill:#ffffff;fill-opacity:1;stroke-width:0.26458332"
         id="path56"
         inkscape:connector-curvature="0" />
    </g>
    <g
       id="g2220"
       transform="matrix(0.81545579,0,0,0.81545579,-16.786014,111.2339)">
      <path
         d="m 148.05875,142.21565 c -3.49849,0.0162 -6.83946,0.31462 -9.77919,0.8348 -8.66002,1.52995 -10.23236,4.73225 -10.23236,10.63784 v 7.79949 h 20.46473 v 2.59983 h -20.46473 -7.68017 c -5.94767,0 -11.15555,3.57486 -12.78448,10.37546 -1.87896,7.79508 -1.96231,12.65933 0,20.79864 1.45468,6.05858 4.92869,10.37546 10.87636,10.37546 h 7.03617 v -9.34984 c 0,-6.75471 5.84433,-12.71293 12.78448,-12.71293 h 20.44088 c 5.69001,0 10.23236,-4.68497 10.23235,-10.39932 v -19.48679 c 0,-5.54606 -4.67872,-9.71222 -10.23235,-10.63784 -3.51553,-0.5852 -7.1632,-0.85106 -10.66169,-0.8348 z m -11.06718,6.27298 c 2.11386,0 3.84013,1.75445 3.84013,3.91167 0,2.14958 -1.72627,3.88782 -3.84013,3.88782 -2.12143,0 -3.84011,-1.73824 -3.84011,-3.88782 0,-2.15722 1.71868,-3.91167 3.84011,-3.91167 z"
         style="fill:#5a9fd4;fill-opacity:1;stroke-width:0.76325268"
         id="path1948"
         inkscape:connector-curvature="0" />
      <path
         d="m 171.50492,164.08761 v 9.08747 c 0,7.0454 -5.97313,12.9753 -12.78448,12.9753 h -20.44088 c -5.59908,0 -10.23236,4.79207 -10.23236,10.39932 v 19.48679 c 0,5.54606 4.82272,8.80818 10.23236,10.39932 6.47799,1.90478 12.69004,2.24902 20.44088,0 5.15207,-1.49169 10.23236,-4.49373 10.23235,-10.39932 V 208.237 h -20.44086 v -2.59983 h 20.44086 10.23237 c 5.94761,0 8.16394,-4.14859 10.23235,-10.37546 2.13659,-6.41047 2.04568,-12.57518 0,-20.79864 -1.46986,-5.92088 -4.27717,-10.37546 -10.23235,-10.37546 z m -11.49649,49.34905 c 2.12144,0 3.84011,1.73825 3.84011,3.88782 0,2.15722 -1.71867,3.91167 -3.84011,3.91167 -2.11387,0 -3.84012,-1.75445 -3.84012,-3.91167 1e-5,-2.14957 1.72625,-3.88782 3.84012,-3.88782 z"
         style="fill:#ffd43b;fill-opacity:1;stroke-width:0.76325268"
         id="path1950"
         inkscape:connector-curvature="0" />
    </g>
    <text
       xml:space="preserve"
       style="font-style:normal;font-variant:normal;font-weight:normal;font-stretch:normal;font-size:6.28414297px;line-height:1.25;font-family:Sawasdee;-inkscape-font-specification:Sawasdee;letter-spacing:0px;word-spacing:0px;fill:#ffffff;fill-opacity:1;stroke:none;stroke-width:0.39275894"
       x="23.703917"
       y="116.19226"
       id="text2224"><tspan
         sodipodi:role="line"
         id="tspan2222"
         x="23.703917"
         y="116.19226"
         style="font-style:normal;font-variant:normal;font-weight:bold;font-stretch:normal;font-size:37.70485687px;font-family:Sawasdee;-inkscape-font-specification:'Sawasdee Bold';fill:#ffffff;fill-opacity:1;stroke-width:0.39275894">Introduction to</tspan></text>
    <path
       inkscape:connector-curvature="0"
       style="color:#000000;font-style:normal;font-variant:normal;font-weight:normal;font-stretch:normal;font-size:medium;line-height:normal;font-family:sans-serif;font-variant-ligatures:normal;font-variant-position:normal;font-variant-caps:normal;font-variant-numeric:normal;font-variant-alternates:normal;font-feature-settings:normal;text-indent:0;text-align:start;text-decoration:none;text-decoration-line:none;text-decoration-style:solid;text-decoration-color:#000000;letter-spacing:normal;word-spacing:normal;text-transform:none;writing-mode:lr-tb;direction:ltr;text-orientation:mixed;dominant-baseline:auto;baseline-shift:baseline;text-anchor:start;white-space:normal;shape-padding:0;clip-rule:nonzero;display:inline;overflow:visible;visibility:visible;opacity:1;isolation:auto;mix-blend-mode:normal;color-interpolation:sRGB;color-interpolation-filters:linearRGB;solid-color:#000000;solid-opacity:1;vector-effect:none;fill:#ffffff;fill-opacity:1;fill-rule:nonzero;stroke:#ffffff;stroke-width:1.12360752;stroke-linecap:round;stroke-linejoin:round;stroke-miterlimit:3.5;stroke-dasharray:none;stroke-dashoffset:0;stroke-opacity:1;paint-order:stroke markers fill;color-rendering:auto;image-rendering:auto;shape-rendering:auto;text-rendering:auto;enable-background:accumulate"
       d="m 251.62457,13.504436 -10.84085,3.661264 -1.83982,2.802206 -0.001,-0.0014 -1.44188,2.197625 v -5.796616 h -7.1997 v 21.30651 h 7.196 l 0.002,-0.26752 c 0.0276,-2.398084 0.0117,-4.686467 0.002,-6.91111 l 4.35857,6.314741 9.74084,1.975499 -8.02417,-11.926874 z m 13.15632,0.748477 c -6.90207,0 -12.50489,5.585928 -12.50489,12.468194 0,6.882961 5.63542,12.171217 12.52951,12.171218 3.84317,0 7.04566,-1.707127 9.12901,-4.404914 3.5508,-0.992043 6.00459,-4.201158 6.0081,-7.857571 -0.002,-3.60095 -2.38452,-6.775073 -5.86275,-7.815556 -2.08494,-2.793788 -5.35988,-4.561371 -9.29898,-4.561371 z m -14.38816,0.239998 -7.14723,11.868928 -3.97129,-5.903319 1.8596,-2.835523 z m 14.38816,0.304218 c 3.52277,0 6.47475,1.454366 8.46455,3.812411 -0.51032,-0.09881 -1.02915,-0.149523 -1.54911,-0.151635 -2.41693,0.0086 -4.70871,1.066292 -6.26933,2.895403 -0.0117,-0.0085 -0.0241,-0.0146 -0.0364,-0.02365 -0.94374,-0.590793 -2.058,-0.931012 -3.2498,-0.931012 -3.40573,0 -6.17036,2.789026 -6.17036,6.21961 0,3.430587 2.76463,6.219609 6.17036,6.219609 1.18011,0 2.28305,-0.334426 3.22086,-0.914588 0.0154,-0.01155 0.03,-0.01863 0.0451,-0.02897 1.56287,1.839281 3.86344,2.903109 6.28959,2.907959 0.47032,-0.0014 0.93989,-0.04584 1.40281,-0.127961 -1.98043,2.271899 -4.86354,3.674302 -8.2936,3.674302 -6.61684,0 -11.98581,-5.040848 -11.98581,-11.627483 0,-6.587341 5.35229,-11.92398 11.96118,-11.92398 z m -33.93599,2.113605 h 6.1124 v 6.081507 l -2.25702,3.439617 2.2575,3.271572 c 0.007,2.380709 0.0253,4.857545 -2.6e-4,7.426832 h -6.11251 z m 31.29605,4.031639 c 1.08803,0 2.10104,0.309783 2.96154,0.848436 0.88992,0.557068 1.75977,1.356601 2.36374,2.295176 0.3734,0.790999 0.56909,1.655701 0.57271,2.531784 -0.002,0.876878 -0.19895,1.741972 -0.57271,2.53372 -0.60868,0.945347 -1.48786,1.749241 -2.38837,2.306277 -0.85505,0.528921 -1.85954,0.835881 -2.93691,0.835881 -3.1093,0 -5.62663,-2.536358 -5.62663,-5.675396 0,-3.139064 2.51733,-5.675878 5.62663,-5.675878 z m -21.45623,19.654552 -11.03449,6.49582 1.09954,8.949864 8.0821,3.91768 3.05525,-10.090933 11.49614,-6.372688 z m 24.07879,0.35347 -11.03451,6.495343 1.10001,8.950344 8.08213,3.917677 3.05523,-10.09093 11.49614,-6.372683 z m -23.988,0.223096 11.10016,2.541445 -20.68502,11.458956 -0.95952,-7.792863 z m 24.07876,0.353476 11.10068,2.541442 -20.68505,11.458956 -0.95999,-7.793345 z m -20.70869,9.952339 -2.74327,9.764014 -12.05002,6.549424 c 4.35009,0.96547 8.69916,1.935274 13.04862,2.903612 l 10.74621,-6.322462 -1.06669,-8.933934 z m 24.2956,0.305189 -2.95962,9.379635 -12.05,6.549419 c 4.35009,0.965428 8.69917,1.935274 13.04861,2.903612 l 10.74623,-6.322462 -1.06721,-8.933453 z m 7.27328,4.437269 0.92668,7.78465 -10.25176,6.03418 -11.41741,-2.545307 z m -24.07878,0.07919 0.92667,7.784658 -10.25222,6.034177 L 230.89271,67.574 Z"
       id="path1545-7"
       inkscape:export-filename="/home/xypnox/koss-sticker.png"
       inkscape:export-xdpi="650.23999"
       inkscape:export-ydpi="650.23999" />
    <text
       xml:space="preserve"
       style="font-style:normal;font-variant:normal;font-weight:bold;font-stretch:normal;font-size:4.23333311px;line-height:1.25;font-family:'Josefin Sans';-inkscape-font-specification:'Josefin Sans Bold';letter-spacing:0px;word-spacing:0px;fill:#ffffff;fill-opacity:1;stroke:none;stroke-width:0.26458332"
       x="25.348852"
       y="31.686773"
       id="text4696-5"
       inkscape:export-filename="/home/xypnox/text4696-5.png"
       inkscape:export-xdpi="180"
       inkscape:export-ydpi="180"><tspan
         sodipodi:role="line"
         id="tspan4694-3"
         x="25.348852"
         y="31.686773"
         style="font-style:normal;font-variant:normal;font-weight:bold;font-stretch:normal;font-size:9.87777805px;font-family:Sawasdee;-inkscape-font-specification:'Sawasdee Bold';fill:#ffffff;fill-opacity:1;stroke-width:0.26458332">KOSS and Kshitij         Present</tspan></text>
    <text
       xml:space="preserve"
       style="font-style:normal;font-variant:normal;font-weight:bold;font-stretch:normal;font-size:19.75555611px;line-height:1.25;font-family:Sawasdee;-inkscape-font-specification:'Sawasdee Bold';letter-spacing:0px;word-spacing:0px;fill:#606060;fill-opacity:1;stroke:none;stroke-width:0.26458332"
       x="162.75941"
       y="321.23615"
       id="text4650"><tspan
         sodipodi:role="line"
         id="tspan4648"
         x="162.75941"
         y="321.23615"
         style="font-style:normal;font-variant:normal;font-weight:bold;font-stretch:normal;font-size:19.75555611px;font-family:Sawasdee;-inkscape-font-specification:'Sawasdee Bold';fill:#606060;fill-opacity:1;stroke-width:0.26458332">19th January</tspan><tspan
         sodipodi:role="line"
         x="162.75941"
         y="345.9306"
         style="font-style:normal;font-variant:normal;font-weight:bold;font-stretch:normal;font-size:19.75555611px;font-family:Sawasdee;-inkscape-font-specification:'Sawasdee Bold';fill:#606060;fill-opacity:1;stroke-width:0.26458332"
         id="tspan4656" /><tspan
         sodipodi:role="line"
         x="162.75941"
         y="370.62503"
         style="font-style:normal;font-variant:normal;font-weight:bold;font-stretch:normal;font-size:19.75555611px;font-family:Sawasdee;-inkscape-font-specification:'Sawasdee Bold';fill:#606060;fill-opacity:1;stroke-width:0.26458332"
         id="tspan4658" /><tspan
         sodipodi:role="line"
         x="162.75941"
         y="395.31949"
         style="font-style:normal;font-variant:normal;font-weight:bold;font-stretch:normal;font-size:19.75555611px;font-family:Sawasdee;-inkscape-font-specification:'Sawasdee Bold';fill:#606060;fill-opacity:1;stroke-width:0.26458332"
         id="tspan4652" /><tspan
         sodipodi:role="line"
         x="162.75941"
         y="420.01392"
         style="font-style:normal;font-variant:normal;font-weight:bold;font-stretch:normal;font-size:19.75555611px;font-family:Sawasdee;-inkscape-font-specification:'Sawasdee Bold';fill:#606060;fill-opacity:1;stroke-width:0.26458332"
         id="tspan4654" /></text>
    <text
       xml:space="preserve"
       style="font-style:normal;font-variant:normal;font-weight:bold;font-stretch:normal;font-size:19.75555611px;line-height:1.25;font-family:Sawasdee;-inkscape-font-specification:'Sawasdee Bold';letter-spacing:0px;word-spacing:0px;fill:#606060;fill-opacity:1;stroke:none;stroke-width:0.26458332"
       x="156.96754"
       y="342.87732"
       id="text4672"><tspan
         sodipodi:role="line"
         id="tspan4670"
         x="156.96754"
         y="342.87732"
         style="font-style:normal;font-variant:normal;font-weight:bold;font-stretch:normal;font-size:19.75555611px;font-family:Sawasdee;-inkscape-font-specification:'Sawasdee Bold';fill:#606060;fill-opacity:1;stroke-width:0.26458332">10am to 1pm</tspan></text>
    <text
       xml:space="preserve"
       style="font-style:normal;font-variant:normal;font-weight:bold;font-stretch:normal;font-size:19.75555611px;line-height:1.25;font-family:Sawasdee;-inkscape-font-specification:'Sawasdee Bold';letter-spacing:0px;word-spacing:0px;fill:#606060;fill-opacity:1;stroke:none;stroke-width:0.26458332"
       x="136.29561"
       y="364.76486"
       id="text4682"><tspan
         sodipodi:role="line"
         id="tspan4680"
         x="136.29561"
         y="364.76486"
         style="font-style:normal;font-variant:normal;font-weight:bold;font-stretch:normal;font-size:19.75555611px;font-family:Sawasdee;-inkscape-font-specification:'Sawasdee Bold';fill:#606060;fill-opacity:1;stroke-width:0.26458332">Nalanda NR221</tspan></text>
    <text
       xml:space="preserve"
       style="font-style:normal;font-variant:normal;font-weight:normal;font-stretch:normal;font-size:4.23333311px;line-height:1.25;font-family:Sawasdee;-inkscape-font-specification:Sawasdee;letter-spacing:0px;word-spacing:0px;fill:#606060;fill-opacity:1;stroke:none;stroke-width:0.26458332"
       x="26.33663"
       y="382.74811"
       id="text4688"><tspan
         sodipodi:role="line"
         id="tspan4686"
         x="26.33663"
         y="382.74811"
         style="font-style:normal;font-variant:normal;font-weight:bold;font-stretch:normal;font-size:12.69999981px;font-family:Sawasdee;-inkscape-font-specification:'Sawasdee Bold';fill:#606060;fill-opacity:1;stroke-width:0.26458332">Contact</tspan><tspan
         sodipodi:role="line"
         x="26.33663"
         y="399.85782"
         style="font-style:normal;font-variant:normal;font-weight:bold;font-stretch:normal;font-size:14.11111069px;font-family:Sawasdee;-inkscape-font-specification:'Sawasdee Bold';fill:#606060;fill-opacity:1;stroke-width:0.26458332"
         id="tspan4692">Sayan 9433614242</tspan></text>
    <path
       style="fill:#ffffff;fill-opacity:1;stroke-width:0.14912398"
       d="m 114.73126,12.707463 c -0.0159,7.81e-4 -0.0344,0.0044 -0.0556,0.0044 -0.14753,0 -0.29295,0.525227 -0.84661,3.057227 -0.5321,2.433496 -0.48462,2.31142 -0.90275,2.31142 -0.20215,0 -0.58839,0.0921 -0.85809,0.204792 l -0.48997,0.204793 -1.5873,-1.966269 c -1.61794,-2.004469 -2.32289,-2.757863 -2.16086,-2.310783 0.0464,0.128254 0.8328,1.192509 1.74744,2.36565 1.51142,1.938562 1.64277,2.155974 1.43801,2.382236 -0.12392,0.136925 -0.32994,0.499757 -0.45806,0.806414 l -0.23351,0.557599 -2.82946,-0.101446 c -2.03581,-0.07309 -2.83011,-0.05533 -2.83011,0.0638 0,0.236272 0.66034,0.311311 3.25437,0.368756 1.78485,0.03952 2.31323,0.09731 2.41668,0.264765 0.17712,0.286578 0.11112,0.32838 -1.2715,0.802586 -0.65614,0.225047 -1.89746,0.778684 -2.75865,1.230035 -2.1074,1.104492 -5.42183,3.478294 -4.85634,3.478294 0.0359,0 0.72383,-0.447724 1.52861,-0.994618 3.01574,-2.049359 6.94795,-3.54547 10.66138,-4.056309 l 0.84724,-0.116754 -0.27434,0.533356 c -0.35156,0.682469 -1.31601,1.677512 -3.30094,3.405563 -1.62532,1.414992 -2.23083,2.130094 -2.53024,2.988961 -0.35434,1.01648 0.46067,2.552903 1.68683,3.178442 0.514,0.262193 0.8184,0.29968 2.07537,0.256471 1.26788,-0.04358 1.45806,-0.01967 1.3672,0.172892 -0.25474,0.539731 -0.0915,1.181749 0.49955,1.964359 0.32996,0.436896 0.76163,0.869019 0.95889,0.960166 0.19726,0.09115 0.60399,0.271821 0.90402,0.401294 0.30003,0.12947 0.66937,0.405071 0.82045,0.612466 0.15108,0.207392 0.3245,0.378922 0.38598,0.381513 0.22243,0.0093 0.10309,-0.327002 -0.34962,-0.985048 -0.34865,-0.506729 -0.70469,-0.787076 -1.45396,-1.145183 -0.9778,-0.467045 -0.99211,-0.483405 -0.97421,-1.046935 0.0111,-0.369064 0.17104,-0.786955 0.44787,-1.177081 0.37268,-0.525195 0.65459,-0.696855 2.14363,-1.304042 2.55951,-1.04369 3.80405,-1.854674 4.65091,-3.030432 l 0.30049,-0.417241 -0.38981,-0.588858 c -0.32482,-0.490832 -0.47372,-0.5895 -0.88808,-0.5895 -0.96066,0 -3.15634,1.431697 -5.06623,3.303487 -1.35089,1.323933 -1.73883,1.468451 -3.9453,1.468004 -1.66517,-2.91e-4 -2.31866,-0.281192 -2.3899,-1.027156 -0.0265,-0.277909 -0.01,-0.655365 0.0357,-0.838951 0.13713,-0.546319 1.09065,-1.574101 3.11401,-3.355802 2.04147,-1.797651 3.08721,-3.063762 3.08721,-3.738592 0,-0.389981 0.0465,-0.418345 0.85745,-0.521235 1.21794,-0.154522 7.03612,0.302303 7.27877,0.571636 0.0184,0.02041 -0.0231,0.372717 -0.0925,0.782808 -0.2475,1.462122 -0.32892,5.188374 -0.1512,6.934261 0.27308,2.68274 0.9913,5.322461 1.49352,5.489861 0.1505,0.0502 0.17355,-0.0062 0.0868,-0.212448 -0.62128,-1.477245 -1.12163,-4.809123 -1.12286,-7.48229 -10e-4,-2.252153 0.30039,-5.399907 0.51804,-5.399907 0.0958,0 0.67119,0.130193 1.27853,0.289645 0.60733,0.159445 1.1295,0.264466 1.16049,0.233503 0.16737,-0.167377 -0.23675,-0.369807 -1.20261,-0.602258 -0.59537,-0.143285 -1.12551,-0.284604 -1.17835,-0.31389 -0.29736,-0.164607 0.63493,-2.715453 1.22238,-3.344318 0.51788,-0.554393 0.52656,-0.587584 0.1563,-0.587584 -0.62343,0 -1.59572,1.64103 -1.88461,3.180994 -0.11593,0.618004 -0.11469,0.617951 -1.33658,0.336855 -1.5447,-0.355358 -3.47568,-0.570674 -5.30101,-0.590773 -1.69557,-0.01867 -1.76367,-0.03163 -1.82527,-0.35153 -0.0562,-0.291612 0.17564,-0.463004 1.89097,-1.400378 2.33797,-1.277619 3.12743,-1.767197 3.02151,-1.873124 -0.0433,-0.04338 -1.20999,0.510133 -2.59213,1.229398 l -2.51303,1.307231 -0.36684,-0.359823 c -0.20187,-0.198139 -0.51886,-0.461369 -0.70433,-0.584395 l -0.3375,-0.223295 0.52379,-2.657208 c 0.52267,-2.652153 0.56131,-2.796016 0.44978,-2.790548 z m 6.02194,14.066936 c 0.22388,0.04374 -0.43946,0.690036 -1.92289,1.575184 -2.6372,1.573599 -3.16558,1.565922 -0.24179,-0.412776 1.27914,-0.86568 1.99054,-1.196428 2.16468,-1.162408 z"
       id="path2407"
       inkscape:connector-curvature="0" />
  </g>
</svg>
