<?xml version="1.0" encoding="UTF-8" standalone="no"?>
<!-- Created with Inkscape (http://www.inkscape.org/) -->

<svg
   xmlns:dc="http://purl.org/dc/elements/1.1/"
   xmlns:cc="http://creativecommons.org/ns#"
   xmlns:rdf="http://www.w3.org/1999/02/22-rdf-syntax-ns#"
   xmlns:svg="http://www.w3.org/2000/svg"
   xmlns="http://www.w3.org/2000/svg"
   xmlns:sodipodi="http://sodipodi.sourceforge.net/DTD/sodipodi-0.dtd"
   xmlns:inkscape="http://www.inkscape.org/namespaces/inkscape"
   width="210mm"
   height="297mm"
   viewBox="0 0 210 297"
   version="1.1"
   id="svg1637"
   inkscape:export-filename="/home/xypnox/back-tee2.png"
   inkscape:export-xdpi="180"
   inkscape:export-ydpi="180"
   inkscape:version="0.92.3 (2405546, 2018-03-11)"
   sodipodi:docname="backteeshirt.svg">
  <defs
     id="defs1631" />
  <sodipodi:namedview
     id="base"
     pagecolor="#222129"
     bordercolor="#666666"
     borderopacity="1.0"
     inkscape:pageopacity="0"
     inkscape:pageshadow="2"
     inkscape:zoom="0.49497475"
     inkscape:cx="403.62516"
     inkscape:cy="350.74868"
     inkscape:document-units="mm"
     inkscape:current-layer="layer1-2"
     showgrid="false"
     showguides="true"
     inkscape:snap-bbox="true"
     inkscape:bbox-paths="true"
     inkscape:snap-bbox-edge-midpoints="true"
     inkscape:bbox-nodes="true"
     inkscape:snap-bbox-midpoints="true"
     inkscape:object-paths="true"
     inkscape:snap-intersection-paths="true"
     inkscape:snap-smooth-nodes="true"
     inkscape:snap-midpoints="true"
     inkscape:snap-object-midpoints="true"
     inkscape:snap-center="true"
     inkscape:snap-text-baseline="true"
     inkscape:snap-page="true"
     inkscape:guide-bbox="true"
     inkscape:window-width="1920"
     inkscape:window-height="1080"
     inkscape:window-x="0"
     inkscape:window-y="0"
     inkscape:window-maximized="0" />
  <metadata
     id="metadata1634">
    <rdf:RDF>
      <cc:Work
         rdf:about="">
        <dc:format>image/svg+xml</dc:format>
        <dc:type
           rdf:resource="http://purl.org/dc/dcmitype/StillImage" />
        <dc:title />
      </cc:Work>
    </rdf:RDF>
  </metadata>
  <g
     inkscape:label="Layer 1"
     inkscape:groupmode="layer"
     id="layer1">
    <g
       inkscape:label="Layer 1"
       id="layer1-2"
       transform="matrix(0.26458333,0,0,0.26458333,29.935711,83.897025)">
      <path
         inkscape:export-ydpi="650.23999"
         inkscape:export-xdpi="650.23999"
         inkscape:export-filename="/home/xypnox/koss-stssicker.png"
         id="path1545"
         d="m 43.345658,-144.51878 -27.683445,9.34949 -4.698172,7.15577 -0.0039,-0.004 -3.6820816,5.61191 v -14.80258 H -11.107612 v 54.408787 H 7.2682774 l 0.0098,-0.683145 c 0.0705,-6.123798 0.02954,-11.967462 0.0087,-17.648352 l 11.1300576,16.125484 24.874409,5.044675 -20.490681,-30.456729 z m 33.596239,1.91134 c -17.62525,0 -31.932767,14.26433 -31.932767,31.83903 0,17.576485 14.390727,31.080685 31.995657,31.080695 9.81401,0 17.99197,-4.35936 23.312053,-11.248486 9.06734,-2.533306 15.33343,-10.728169 15.34241,-20.065259 -0.009,-9.19547 -6.0892,-17.30098 -14.97125,-19.95798 -5.324193,-7.13428 -13.687143,-11.648 -23.746103,-11.648 z m -36.741921,0.61285 -18.251339,30.30874 -10.141143,-15.07483 4.748726,-7.24086 z m 36.741921,0.77686 c 8.99582,0 16.53406,3.7139 21.61528,9.73545 -1.30318,-0.25231 -2.62805,-0.38179 -3.95583,-0.3872 -6.17193,0.022 -12.02427,2.7229 -16.00954,7.39377 -0.0308,-0.022 -0.0614,-0.0373 -0.0925,-0.0604 -2.41005,-1.50866 -5.25545,-2.37745 -8.29886,-2.37745 -8.69697,0 -15.756745,7.12211 -15.756745,15.88253 0,8.76042 7.059785,15.882531 15.756745,15.882531 3.01356,0 5.83,-0.854004 8.22488,-2.335515 0.038,-0.02936 0.0766,-0.04754 0.11468,-0.074 3.99098,4.696824 9.86578,7.413443 16.06132,7.425823 1.20096,-0.0039 2.4,-0.11706 3.5822,-0.326776 -5.05733,5.801565 -12.4197,9.382781 -21.17876,9.382781 -16.89692,0 -30.607165,-12.872421 -30.607165,-29.692204 0,-16.82157 13.667685,-30.44932 30.544275,-30.44932 z m -86.6596656,5.39735 h 15.60878 v 15.52986 l -5.76358496,8.78348 5.76481696,8.35437 c 0.01552,6.079426 0.06513,12.404329 -0.0013,18.965307 h -15.608755 z m 79.9182156,10.29528 c 2.77849,0 5.36532,0.79106 7.56271,2.16658 2.27256,1.42254 4.4938,3.46424 6.03609,5.861 0.95349,2.01992 1.45325,4.22804 1.46248,6.46523 -0.009,2.23921 -0.50808,4.44834 -1.46248,6.47016 -1.55436,2.41406 -3.79944,4.4669 -6.09899,5.889355 -2.18346,1.35067 -4.74854,2.134528 -7.49981,2.134528 -7.93996,0 -14.36826,-6.476893 -14.36826,-14.492813 0,-8.01598 6.4283,-14.49404 14.36826,-14.49404 z m -54.79102,50.190274 -28.177922,16.587872 2.8078004,22.854559 20.6386576,10.004269 7.801919,-25.768413 29.356783,-16.273426 z m 61.48807,0.902639 -28.177925,16.586638 2.809039,22.855795 20.638656,10.004257 7.80193,-25.768404 29.356773,-16.273426 z m -61.256244,0.569708 28.345623,6.489876 -52.8217346,29.261839 -2.4501994,-19.900023 z m 61.488074,0.90263 28.346853,6.489895 -52.821733,29.261829 -2.451438,-19.901255 z m -52.88216,25.414516 -7.005335,24.933597 -30.771163,16.7247209 c 11.1085164,2.4654483 22.2143714,4.94196637 33.321245,7.414737 L 47.23367,-14.617474 44.509716,-37.431321 Z m 62.04174,0.779333 -7.55776,23.952035 -30.771169,16.7247376 c 11.108539,2.4653228 22.214359,4.9419394 33.321249,7.4147103 L 108.72299,-14.819692 105.9978,-37.632327 Z m 18.573183,11.331088 2.36636,19.87904 L 81.049397,-0.14685703 51.893614,-6.6466019 Z M 43.37402,-35.232681 45.740367,-15.35364 19.560096,0.05537287 -9.5956886,-6.4456086 Z"
         style="color:#000000;font-style:normal;font-variant:normal;font-weight:normal;font-stretch:normal;font-size:medium;line-height:normal;font-family:sans-serif;font-variant-ligatures:normal;font-variant-position:normal;font-variant-caps:normal;font-variant-numeric:normal;font-variant-alternates:normal;font-feature-settings:normal;text-indent:0;text-align:start;text-decoration:none;text-decoration-line:none;text-decoration-style:solid;text-decoration-color:#000000;letter-spacing:normal;word-spacing:normal;text-transform:none;writing-mode:lr-tb;direction:ltr;text-orientation:mixed;dominant-baseline:auto;baseline-shift:baseline;text-anchor:start;white-space:normal;shape-padding:0;clip-rule:nonzero;display:inline;overflow:visible;visibility:visible;opacity:1;isolation:auto;mix-blend-mode:normal;color-interpolation:sRGB;color-interpolation-filters:linearRGB;solid-color:#000000;solid-opacity:1;vector-effect:none;fill:#ffffff;fill-opacity:1;fill-rule:nonzero;stroke:#ffffff;stroke-width:2.42945457;stroke-linecap:round;stroke-linejoin:round;stroke-miterlimit:3.5;stroke-dasharray:none;stroke-dashoffset:0;stroke-opacity:1;paint-order:stroke markers fill;color-rendering:auto;image-rendering:auto;shape-rendering:auto;text-rendering:auto;enable-background:accumulate"
         inkscape:connector-curvature="0" />
      <text
         xml:space="preserve"
         style="font-style:normal;font-variant:normal;font-weight:normal;font-stretch:normal;font-size:54.59646606px;line-height:1.25;font-family:'Josefin Sans';-inkscape-font-specification:'Josefin Sans';letter-spacing:0px;word-spacing:0px;fill:#ffffff;fill-opacity:1;stroke:none;stroke-width:1.02368379"
         x="146.37"
         y="-85.812675"
         id="text2461"
         inkscape:export-filename="/home/xypnox/koss-stssicker.png"
         inkscape:export-xdpi="650.23999"
         inkscape:export-ydpi="650.23999"><tspan
           sodipodi:role="line"
           id="tspan2459"
           x="146.37"
           y="-85.812675"
           style="font-style:normal;font-variant:normal;font-weight:bold;font-stretch:normal;font-family:'Josefin Sans';-inkscape-font-specification:'Josefin Sans Bold';fill:#ffffff;stroke-width:1.02368379">Kharagpur Open</tspan><tspan
           sodipodi:role="line"
           x="146.37"
           y="-17.567093"
           id="tspan2463"
           style="font-style:normal;font-variant:normal;font-weight:bold;font-stretch:normal;font-family:'Josefin Sans';-inkscape-font-specification:'Josefin Sans Bold';fill:#ffffff;stroke-width:1.02368379">Source Society</tspan></text>
      <text
         xml:space="preserve"
         style="font-style:normal;font-variant:normal;font-weight:normal;font-stretch:normal;font-size:53.33333206px;line-height:1.25;font-family:'Josefin Sans';-inkscape-font-specification:'Josefin Sans';letter-spacing:0px;word-spacing:0px;fill:#ffffff;fill-opacity:1;stroke:none"
         x="203.86382"
         y="601.27539"
         id="text2467"><tspan
           sodipodi:role="line"
           id="tspan2465"
           x="203.86382"
           y="601.27539"
           style="font-style:normal;font-variant:normal;font-weight:normal;font-stretch:normal;font-family:Lato;-inkscape-font-specification:Lato;fill:#ffffff">NAME</tspan></text>
      <flowRoot
         xml:space="preserve"
         id="flowRoot2902"
         style="fill:black;fill-opacity:1;stroke:none;font-family:'Josefin Sans';font-style:normal;font-weight:normal;font-size:53.33333333px;line-height:1.25;letter-spacing:0px;word-spacing:0px;-inkscape-font-specification:'Josefin Sans';font-stretch:normal;font-variant:normal"><flowRegion
           id="flowRegion2904"><rect
             id="rect2906"
             width="598.57141"
             height="407.14285"
             x="711.42859"
             y="545.37683" /></flowRegion><flowPara
           id="flowPara2908" /></flowRoot>    </g>
  </g>
</svg>
