<svg width="2151" height="1521" viewBox="0 0 2151 1521" fill="none" xmlns="http://www.w3.org/2000/svg">
<rect width="2151" height="1521" fill="white"/>
<path d="M2151 0H0V1521H2151V0Z" fill="white"/>
<path d="M860.753 811.543L901.148 762.513H878.372L843.706 809.387V762.513H824.798V861.436H843.706V825.634L846.715 822.04L875.077 861.436H898.999L860.753 811.543Z" fill="#1A1A1A"/>
<path d="M918.239 762.513H897.325L924.542 861.436H946.888L958.634 814.131C961.069 804.498 963.218 794.721 965.08 785.087C966.799 794.433 969.234 804.785 971.526 814.131L983.415 861.436H1005.76L1033.41 762.513H1013.5L999.745 820.027C997.883 827.791 996.164 836.849 995.018 844.614C993.729 836.849 991.867 827.791 990.004 820.027L976.253 762.513H955.626L941.158 820.027C939.153 827.791 937.29 836.849 936.001 844.614C934.998 836.849 933.136 827.791 931.417 820.027L918.239 762.513Z" fill="#1A1A1A"/>
<path d="M1065.43 790.694C1046.23 790.694 1030.91 803.491 1030.91 826.784C1030.91 849.933 1046.23 862.874 1065.43 862.874C1084.62 862.874 1099.95 849.933 1099.95 826.784C1099.95 803.491 1084.62 790.694 1065.43 790.694ZM1065.43 805.36C1074.16 805.36 1080.04 812.549 1080.04 826.784C1080.04 840.875 1074.16 848.208 1065.43 848.208C1056.69 848.208 1050.82 840.875 1050.82 826.784C1050.82 812.549 1056.69 805.36 1065.43 805.36Z" fill="#1A1A1A"/>
<path d="M1186.75 841.019C1178.3 845.332 1170.85 847.345 1161.97 847.345C1142.92 847.345 1130.17 833.83 1130.17 810.824C1130.17 788.394 1145.07 776.604 1162.4 776.604C1172.71 776.604 1181.16 779.048 1187.75 782.643L1189.62 766.251C1183.74 762.8 1174.86 760.5 1162.4 760.5C1134.32 760.5 1109.83 778.473 1109.83 812.406C1109.83 845.907 1130.17 863.449 1159.1 863.449C1169.56 863.449 1180.16 861.58 1188.18 857.266L1186.75 841.019Z" fill="#1A1A1A"/>
<path d="M1243.95 861.436V766.251H1234.63L1206.27 784.512L1206.56 796.733L1232.2 781.205V861.436H1243.95Z" fill="url(#paint0_linear)"/>
<path d="M1274.2 862.874C1303.86 861.149 1326.2 837.568 1326.2 802.197C1326.2 776.892 1313.45 764.814 1296.84 764.814C1281.22 764.814 1268.19 777.035 1268.19 794.433C1268.19 807.086 1276.78 821.321 1293.97 821.321C1302.57 821.321 1310.16 816.432 1313.6 809.674C1311.45 833.686 1295.98 850.652 1272.63 852.09L1274.2 862.874ZM1297.27 774.879C1307.01 774.879 1313.31 783.649 1313.31 794.721C1313.31 803.204 1306.86 810.824 1297.55 810.824C1285.66 810.824 1280.94 801.91 1280.94 792.133C1280.94 782.787 1288.38 774.879 1297.27 774.879Z" fill="url(#paint1_linear)"/>
<g opacity="0.317" filter="url(#filter0_f)">
<path d="M934.891 297.813H1208.96C1235.28 297.813 1256.47 319.083 1256.47 345.502V620.606C1256.47 647.026 1235.28 668.295 1208.96 668.295H934.891C908.57 668.295 887.38 647.026 887.38 620.606V345.502C887.38 319.083 908.57 297.813 934.891 297.813Z" fill="url(#paint2_linear)"/>
</g>
<path d="M934.891 275.072H1208.96C1235.28 275.072 1256.47 296.342 1256.47 322.762V597.865C1256.47 624.285 1235.28 645.554 1208.96 645.554H934.891C908.57 645.554 887.38 624.285 887.38 597.865V322.762C887.38 296.342 908.57 275.072 934.891 275.072Z" fill="url(#paint3_linear)"/>
<path d="M1208.96 275.072C1235.28 275.072 1256.47 296.342 1256.47 322.762V460.313C1225.69 586.723 1079.93 615.83 934.891 645.554C908.57 645.554 887.38 624.285 887.38 597.865V487.379C1020.99 493.889 1117.22 391.034 1208.96 275.072Z" fill="url(#paint4_linear)"/>
<path d="M1071.93 324.511C1068.32 324.511 1065.21 328.146 1065.21 331.345V380.974L1033.67 346.915C1031.14 344.182 1026.89 344.024 1024.17 346.562C1021.45 349.099 1021.3 353.37 1023.83 356.096L1065.21 400.778V448.638L1023.92 424.708L1006.06 366.396C1004.97 362.832 1001.21 360.829 997.663 361.924C994.114 363.019 992.123 366.797 993.218 370.358L1006.83 414.806L964.013 389.991C960.546 387.982 956.565 389.274 954.76 392.412C952.955 395.551 954.538 400.068 957.298 401.667L1000.12 426.482L954.96 436.871C951.34 437.7 949.077 441.319 949.907 444.951C950.737 448.584 954.344 450.852 957.962 450.015L1017.2 436.384L1058.5 460.314L1017.2 484.244L957.962 470.613C954.344 469.776 950.737 472.044 949.907 475.676C949.077 479.309 951.34 482.928 954.96 483.757L1000.12 494.145L957.298 518.96C953.83 520.97 952.955 525.077 954.76 528.215C956.565 531.353 961.254 532.235 964.013 530.636L1006.83 505.821L993.218 550.27C992.123 553.831 994.113 557.608 997.662 558.703C1001.21 559.798 1004.97 557.795 1006.06 554.231L1023.92 495.919L1065.21 471.99V519.849L1023.83 564.531C1021.3 567.258 1021.45 571.529 1024.17 574.066C1026.89 576.604 1031.14 576.445 1033.67 573.713L1065.21 539.653V589.283C1065.21 593.301 1068.32 596.116 1071.93 596.116C1075.54 596.116 1078.64 592.482 1078.64 589.283V539.653L1110.18 573.713C1112.71 576.445 1116.96 576.604 1119.68 574.066C1122.4 571.529 1122.55 567.258 1120.02 564.531L1078.64 519.849V471.989L1119.94 495.919L1137.8 554.231C1138.88 557.795 1142.64 559.799 1146.19 558.704C1149.74 557.609 1151.73 553.831 1150.64 550.27L1137.02 505.821L1179.84 530.636C1183.31 532.645 1187.29 531.353 1189.09 528.215C1190.9 525.077 1189.32 520.56 1186.56 518.96L1143.74 494.145L1188.89 483.757C1192.51 482.928 1194.78 479.309 1193.95 475.676C1193.12 472.044 1189.51 469.776 1185.89 470.613L1126.65 484.244L1085.36 460.314L1126.65 436.384L1185.89 450.015C1189.51 450.852 1193.12 448.584 1193.95 444.951C1194.78 441.319 1192.51 437.7 1188.89 436.871L1143.74 426.482L1186.56 401.667C1190.02 399.658 1190.9 395.551 1189.09 392.412C1187.29 389.274 1182.6 388.392 1179.84 389.991L1137.02 414.806L1150.64 370.358C1151.73 366.797 1149.74 363.019 1146.19 361.924C1142.64 360.829 1138.88 362.832 1137.8 366.396L1119.94 424.708L1078.64 448.639V400.778L1120.02 356.096C1122.55 353.37 1122.4 349.099 1119.68 346.562C1116.96 344.024 1112.71 344.182 1110.18 346.915L1078.64 380.974V331.345C1078.64 327.326 1075.54 324.511 1071.93 324.511H1071.93Z" fill="white"/>
<path d="M1677.89 271.593C1674.01 271.593 1670.66 275.506 1670.66 278.95V332.379L1636.71 295.712C1633.99 292.77 1629.41 292.6 1626.48 295.332C1623.55 298.064 1623.39 302.661 1626.12 305.596L1670.66 353.698V405.222L1626.21 379.46L1606.98 316.684C1605.81 312.848 1601.76 310.692 1597.94 311.87C1594.12 313.049 1591.98 317.116 1593.16 320.949L1607.82 368.8L1561.72 342.086C1557.99 339.923 1553.7 341.314 1551.76 344.692C1549.81 348.071 1551.52 352.933 1554.49 354.655L1600.59 381.37L1551.97 392.554C1548.08 393.446 1545.64 397.342 1546.53 401.253C1547.43 405.163 1551.31 407.605 1555.2 406.704L1618.98 392.029L1663.43 417.791L1618.98 443.553L1555.2 428.879C1551.31 427.978 1547.43 430.419 1546.53 434.33C1545.64 438.24 1548.08 442.137 1551.97 443.029L1600.59 454.212L1554.49 480.927C1550.76 483.09 1549.81 487.512 1551.76 490.89C1553.7 494.268 1558.75 495.218 1561.72 493.496L1607.82 466.782L1593.16 514.634C1591.98 518.467 1594.12 522.533 1597.94 523.712C1601.76 524.89 1605.81 522.734 1606.98 518.898L1626.21 456.122L1670.66 430.362V481.884L1626.12 529.986C1623.39 532.921 1623.55 537.519 1626.48 540.251C1629.41 542.983 1633.99 542.812 1636.71 539.871L1670.66 503.204V556.632C1670.66 560.959 1674.01 563.989 1677.89 563.989C1681.78 563.989 1685.12 560.076 1685.12 556.632V503.203L1719.08 539.87C1721.8 542.812 1726.38 542.983 1729.3 540.251C1732.23 537.519 1732.4 532.921 1729.67 529.986L1685.12 481.884V430.36L1729.58 456.122L1748.8 518.898C1749.97 522.734 1754.02 524.891 1757.84 523.712C1761.66 522.534 1763.81 518.467 1762.63 514.633L1747.97 466.782L1794.07 493.496C1797.8 495.659 1802.09 494.268 1804.03 490.889C1805.97 487.511 1804.27 482.648 1801.3 480.926L1755.2 454.212L1803.81 443.028C1807.71 442.136 1810.15 438.24 1809.26 434.329C1808.36 430.419 1804.48 427.978 1800.58 428.879L1736.81 443.553L1692.35 417.791L1736.81 392.029L1800.58 406.704C1804.48 407.605 1808.36 405.163 1809.26 401.252C1810.15 397.342 1807.71 393.446 1803.81 392.554L1755.2 381.369L1801.3 354.655C1805.03 352.492 1805.97 348.07 1804.03 344.692C1802.09 341.314 1797.04 340.364 1794.07 342.085L1747.97 368.8L1762.63 320.949C1763.81 317.115 1761.66 313.049 1757.84 311.87C1754.02 310.691 1749.97 312.847 1748.8 316.684L1729.58 379.46L1685.12 405.222V353.698L1729.67 305.596C1732.4 302.661 1732.23 298.064 1729.3 295.332C1726.38 292.6 1721.8 292.77 1719.08 295.711L1685.12 332.378V278.95C1685.12 274.623 1681.78 271.593 1677.89 271.593V271.593Z" fill="url(#paint5_linear)"/>
<path d="M641.279 585.791C664.124 657.886 689.13 753.678 619.518 753.443C615.627 811.752 581.842 880.684 542.935 907.281C539.454 909.458 536.793 912.441 532.719 913.846C531.297 914.344 529.854 914.969 528.63 915.335C527.003 915.756 525.749 916.547 524.041 918.228C518.413 923.819 510.75 923.397 505.651 923.516C493.253 923.795 487.935 924.167 487.935 924.756C487.935 925.365 482.022 925.29 481.643 924.676C481.451 924.365 480.582 924.273 479.411 924.437C472.81 925.362 468.842 925.539 458.695 925.361C452.441 925.251 446.279 924.942 445.003 924.673C442.695 924.188 424.436 924.374 415.879 924.969C409.056 925.812 394.408 925.834 392.324 926.112C385.012 926.811 379.662 918.7 373.062 920.08C375.01 920.697 375.453 922.34 375.468 923.755C366.503 924.946 356.634 924.929 350.216 918.278C287.764 902.562 255.163 806.153 249.519 754.605C195.167 726.084 180.879 661.312 226.148 593.146L281.778 501.873C293.023 480.99 316.841 459.945 327.345 439.258C323.437 430.543 319.251 421.296 316.655 411.361C315.301 406.068 314.317 400.182 313.631 393.259C312.538 385.983 311.933 376.682 307.04 371.624C306.21 370.776 305.531 369.724 305.531 369.287C305.531 368.85 305.33 367.851 305.085 367.067C304.711 365.874 303.891 362.103 302.932 357.171C301.84 352.798 302.493 352.737 303.531 351.519C307.352 348.542 318.335 352.327 320.848 347.471C324.388 337.211 329.833 329.102 335.949 321.082C399.768 251.303 505.94 263.324 545.532 344.541L547.895 349.432L551.448 350.221C557.438 351.224 562.419 349.977 562.069 356.584C561.984 358.104 561.769 359.493 561.591 359.671C560.825 363.702 560.661 368.709 557.934 371.908C557.13 371.908 554.31 375.268 554.254 376.292C554.227 376.817 554.134 381.256 554.051 386.157C553.367 400.234 547.185 426.419 540.995 435.754C550.072 461.074 573.104 481.621 583.542 501.525L641.279 585.791ZM397.638 920.768C395.79 914.531 396.278 908.622 384.567 899.918C382.451 897.38 380.721 895.053 380.721 894.746C380.721 893.95 384.123 892.695 386.283 892.695C393.974 892.695 403.767 902.073 408.758 914.219C410.967 918.67 405.503 923.202 410.076 923.058C413.625 922.616 413.908 922.185 413.894 917.239L413.883 913.043L415.288 913.351C417.957 913.937 428.729 914.313 433.145 913.975C448.695 912.992 451.647 911.487 470.478 904.196C470.96 903.942 472.84 902.223 474.656 900.376C478.578 896.386 480.857 894.63 483.991 893.18C486.771 891.894 490.33 891.765 492.472 892.872C494.029 893.677 494.47 895.127 493.364 895.805C493.03 896.008 491.829 897.451 490.695 899.01C489.56 900.569 487.387 903.494 485.866 905.509C482.365 910.145 478.891 916.144 477.892 919.279C477.467 920.613 476.913 921.971 476.66 922.296C475.929 923.237 476.455 923.342 478.876 922.735C480.94 922.218 481.246 921.956 482.394 919.728C483.086 918.386 484.579 916.193 485.711 914.854C488.453 911.614 492.643 905.89 496.058 900.718C497.59 898.399 499.301 896.243 499.86 895.926C500.42 895.61 502.106 895.328 503.607 895.299C505.915 895.256 506.595 895.444 508.012 896.524C508.934 897.226 509.863 897.8 510.078 897.8C510.292 897.8 511.246 898.442 512.197 899.226C514.34 900.993 514.448 902.514 512.612 905.041C509.896 908.777 505.007 912.963 497.114 918.309C494.093 920.355 492.36 921.801 492.705 921.987C493.018 922.156 494.95 922.047 496.998 921.745C501.142 921.135 502.617 920.314 508.866 915.146C513.098 911.644 515.139 909.439 517.357 905.973C518.272 904.541 519.313 903.37 519.67 903.37C521.366 903.37 525.455 905.062 526.807 906.323C528.487 907.889 528.668 909.056 527.619 911.565C526.426 914.421 526.689 914.597 529.901 913.087C535.233 910.581 533.23 903.86 526.167 900.557C524.562 899.807 522.769 899.193 522.182 899.193C520.221 899.193 517.946 898.293 516.51 896.949C515.728 896.217 513.678 894.628 511.955 893.419C510.232 892.21 508.822 891.037 508.822 890.813C544.64 855.472 576.148 798.639 577.515 752.518H431.08H284.647C289.515 807.54 320.465 869.605 358.096 893.757C359.308 894.526 360.296 895.384 360.292 895.665C360.281 896.5 356.732 899.193 355.645 899.193C350.844 900.005 345.011 901.771 342.885 906.482C341.656 909.425 342.121 911.892 344.24 913.663C345.237 914.497 348.081 915.281 348.519 914.843C348.092 913.047 347.275 911.535 346.84 909.633C346.84 907.795 349.799 905.433 353.106 904.629C353.617 904.505 354.373 904.264 354.787 904.092C355.35 903.859 356.039 904.521 357.512 906.708C360.055 910.487 362.128 912.645 365.926 915.472C368.817 917.623 369.168 917.759 371.817 917.759C373.366 917.759 374.751 917.569 374.894 917.338C375.037 917.106 373.839 915.883 372.231 914.62C370.624 913.356 367.603 910.618 365.52 908.534C358.804 899.909 362.635 900.464 368.193 896.173C369.03 895.164 373.175 895.266 374.92 896.338C375.686 896.809 377.337 898.845 378.589 900.862C383.383 904.904 386.268 908.483 389.138 911.601C391.822 914.517 392.311 919.483 393.491 922.53C394.672 925.576 398.17 922.304 397.638 920.768ZM468.565 923.515C468.349 923.515 468.127 922.519 467.25 921.643C465.795 920.187 465.657 919.812 465.657 917.307C465.657 915.799 465.542 915.278 465.797 915.12C466.053 914.962 466.585 913.619 466.585 913.164C466.585 912.71 467.236 911.034 468.033 909.441C469.712 906.081 468.959 906.331 466.303 907.265C463.041 908.413 462.813 909.603 461.817 912.553C460.73 915.771 460.892 920.608 462.161 922.545C462.891 923.659 463.264 923.793 465.633 923.793C467.093 923.793 468.674 923.515 468.565 923.515H468.565ZM452.661 484.949C482.823 480.993 511.313 469.127 524.971 442.692C528.268 436.166 532.396 425.5 531.84 424.944C531.69 424.794 531.047 424.911 530.411 425.198C529.288 425.71 521.173 427.873 516.479 428.912C503.643 431.752 486.943 431.64 478.758 428.659C475.592 427.283 476.495 429.924 476.806 431.896C478.068 439.719 474.682 445.54 466.435 449.72C461.018 452.466 446.49 457.751 440.427 459.451C433.863 461.291 433.718 461.832 428.878 460.125C417.12 455.977 396.419 450.639 390.855 439.749C389.682 437.326 389.223 432.309 389.937 429.722C391.014 426.667 388.538 427.929 386.869 428.465C375.488 432.975 357.105 432.824 341.037 427.637C336.331 426.469 334.664 424.703 336.587 429.696C351.13 470 386.268 481.985 424.777 485.627C431.021 486.193 446.314 485.821 452.661 484.95L452.661 484.949ZM455.088 427.582C455.088 427.582 456.257 425.061 455.634 422.963C453.661 416.318 447.999 410.72 437.591 407.399C434.937 406.097 432.512 406.812 429.854 407.661C421.844 410.215 415.132 414.889 412.245 419.921C411.22 421.708 410.897 422.866 410.894 424.76C410.889 427.239 410.905 427.268 414.486 430.971C431.947 446.498 432.15 451.66 454.511 428.352L455.088 427.582ZM398.114 409.259C401.287 404.517 403.913 397.059 405.806 388.385C409.458 371.651 405.505 364.925 389.075 362.485C374.078 360.257 342.374 356.081 329.646 361.941C317.872 367.361 321.346 403.079 333.314 413.324C348.26 426.118 385.305 428.398 398.114 409.259V409.259ZM532.657 410.988C535.647 407.168 537.185 402.988 539.522 393.723C542.247 382.918 544.445 364.544 531.602 360.735C516.195 356.166 461.113 357.665 457.088 374.361C453.194 390.511 465.485 414.412 479.581 419.821C496.037 426.135 522.954 423.385 532.657 410.988ZM317.214 363.249C318.257 362.304 318.315 360.964 317.329 360.585C316.925 360.43 315.306 360.307 313.732 360.311C310.859 360.316 311.757 361.441 311.418 362.468C310.85 364.192 315.488 364.811 317.214 363.249V363.249ZM553.569 362.809C555.538 361.37 554.106 359.847 549.62 359.842C548.075 359.84 547.245 360.085 546.648 360.768C546.455 360.988 545.996 361.418 546.648 362.624C547.137 363.53 548.077 363.553 550.808 363.553C552.87 363.553 553.035 363.2 553.569 362.809Z" fill="#1A1A1A"/>
<path d="M235.845 501.547H628.716C639.228 501.547 649.752 512.252 648.789 522.719L630.229 724.35C629.266 734.818 621.767 743.34 611.256 743.325L256.199 742.807C245.687 742.79 238.272 734.291 237.225 723.832L216.871 520.522C215.824 510.062 225.333 501.547 235.845 501.547Z" fill="url(#paint6_linear)"/>
<path d="M312.425 742.889L256.198 742.807C244.395 742.79 238.13 732.872 237.225 723.832L232.792 679.557L553.439 501.547L567.69 501.547C586.658 502.443 612.717 500.752 630.304 501.627C643.393 503.138 650.646 516.719 648.608 524.676L645.545 557.955L312.425 742.889ZM356.864 742.954L643.146 584.023L640.178 616.269L409.496 743.031L356.864 742.954V742.954Z" fill="black" fill-opacity="0.392157"/>
<path d="M432.909 545.421C430.782 545.421 428.952 547.555 428.952 549.433V578.568L410.366 558.573C408.879 556.969 406.372 556.876 404.77 558.366C403.168 559.855 403.078 562.362 404.569 563.963L428.952 590.193V618.29L404.621 604.242L394.097 570.009C393.457 567.917 391.241 566.742 389.15 567.384C387.059 568.027 385.886 570.245 386.531 572.335L394.554 598.429L369.323 583.861C367.28 582.682 364.934 583.44 363.871 585.282C362.807 587.125 363.739 589.777 365.366 590.715L390.596 605.283L363.989 611.382C361.856 611.869 360.522 613.993 361.011 616.125C361.5 618.258 363.626 619.59 365.758 619.098L400.664 611.096L424.994 625.144L400.664 639.192L365.758 631.19C363.626 630.699 361.5 632.03 361.011 634.163C360.522 636.295 361.856 638.42 363.989 638.906L390.596 645.005L365.366 659.573C363.323 660.752 362.807 663.163 363.871 665.005C364.934 666.848 367.697 667.366 369.323 666.427L394.554 651.859L386.531 677.953C385.886 680.044 387.059 682.261 389.15 682.904C391.241 683.546 393.457 682.37 394.097 680.279L404.621 646.047L428.952 631.999V660.095L404.569 686.325C403.078 687.926 403.167 690.433 404.77 691.923C406.372 693.413 408.879 693.319 410.366 691.715L428.952 671.72V700.855C428.952 703.214 430.782 704.867 432.909 704.867C435.036 704.867 436.866 702.733 436.866 700.855V671.72L455.451 691.715C456.939 693.319 459.446 693.412 461.048 691.923C462.65 690.433 462.74 687.926 461.249 686.325L436.866 660.095V631.998L461.197 646.047L471.721 680.279C472.361 682.371 474.577 683.547 476.668 682.904C478.759 682.262 479.932 680.044 479.287 677.953L471.265 651.859L496.495 666.427C498.538 667.607 500.884 666.848 501.947 665.005C503.011 663.163 502.077 660.512 500.452 659.573L475.222 645.005L501.829 638.906C503.962 638.42 505.296 636.295 504.807 634.163C504.318 632.03 502.192 630.699 500.06 631.19L465.154 639.192L440.823 625.144L465.154 611.096L500.06 619.098C502.192 619.589 504.318 618.258 504.807 616.125C505.296 613.993 503.962 611.869 501.829 611.382L475.222 605.283L500.452 590.715C502.495 589.536 503.011 587.125 501.947 585.282C500.884 583.44 498.121 582.922 496.495 583.861L471.265 598.429L479.287 572.335C479.932 570.245 478.759 568.027 476.668 567.384C474.577 566.742 472.361 567.918 471.721 570.009L461.197 604.242L436.866 618.29V590.193L461.249 563.963C462.74 562.362 462.65 559.855 461.048 558.366C459.446 556.876 456.939 556.969 455.451 558.573L436.866 578.568V549.433C436.866 547.073 435.036 545.421 432.909 545.421Z" fill="white"/>
<path d="M1829.62 900.424H1540.2C1529.73 900.424 1521.23 904.841 1521.23 910.289C1521.23 915.738 1529.73 920.155 1540.2 920.155H1829.62C1840.09 920.155 1848.59 915.738 1848.59 910.289C1848.59 904.841 1840.09 900.424 1829.62 900.424Z" fill="url(#paint7_linear)"/>
<path d="M1511.05 680.25H1857.82C1867.09 680.25 1876.38 689.699 1875.53 698.938L1859.15 876.908C1858.3 886.147 1851.68 893.669 1842.41 893.656L1529.01 893.199C1519.74 893.184 1513.19 885.683 1512.27 876.45L1494.3 696.998C1493.38 687.766 1501.77 680.25 1511.05 680.25V680.25Z" fill="url(#paint8_linear)"/>
<path d="M1578.64 893.27L1529.01 893.198C1518.59 893.183 1513.06 884.429 1512.27 876.449L1508.35 837.37L1791.37 680.249L1803.95 680.249C1820.69 681.04 1843.7 679.547 1859.22 680.321C1870.77 681.655 1877.17 693.643 1875.37 700.666L1872.67 730.039L1578.64 893.27ZM1617.87 893.328L1870.55 753.047L1867.93 781.509L1664.32 893.396L1617.87 893.33V893.328Z" fill="black" fill-opacity="0.392157"/>
<path d="M1684.91 724.406C1683.24 724.406 1681.8 726.08 1681.8 727.553V750.411L1667.22 734.724C1666.06 733.466 1664.09 733.393 1662.83 734.562C1661.58 735.731 1661.51 737.698 1662.68 738.953L1681.8 759.532V781.575L1662.72 770.554L1654.46 743.697C1653.96 742.056 1652.22 741.133 1650.58 741.638C1648.94 742.142 1648.02 743.882 1648.52 745.522L1654.82 765.993L1635.02 754.564C1633.42 753.639 1631.58 754.234 1630.75 755.68C1629.91 757.125 1630.64 759.205 1631.92 759.942L1651.71 771.371L1630.84 776.156C1629.16 776.538 1628.12 778.204 1628.5 779.877C1628.89 781.55 1630.55 782.595 1632.23 782.209L1659.61 775.931L1678.7 786.953L1659.61 797.974L1632.23 791.697C1630.55 791.311 1628.89 792.355 1628.5 794.028C1628.12 795.701 1629.16 797.368 1630.84 797.75L1651.71 802.535L1631.92 813.964C1630.32 814.889 1629.91 816.781 1630.75 818.226C1631.58 819.671 1633.75 820.078 1635.02 819.341L1654.82 807.912L1648.52 828.384C1648.02 830.024 1648.94 831.764 1650.58 832.268C1652.22 832.772 1653.96 831.849 1654.46 830.209L1662.72 803.352L1681.8 792.331V814.373L1662.68 834.952C1661.51 836.208 1661.58 838.175 1662.83 839.344C1664.09 840.513 1666.06 840.44 1667.22 839.181L1681.8 823.494V846.352C1681.8 848.203 1683.24 849.499 1684.91 849.499C1686.58 849.499 1688.01 847.825 1688.01 846.352V823.494L1702.59 839.181C1703.76 840.439 1705.73 840.513 1706.99 839.344C1708.24 838.175 1708.31 836.208 1707.14 834.952L1688.01 814.373V792.33L1707.1 803.352L1715.36 830.209C1715.86 831.85 1717.6 832.773 1719.24 832.268C1720.88 831.764 1721.8 830.024 1721.29 828.384L1715 807.912L1734.8 819.341C1736.4 820.267 1738.24 819.672 1739.07 818.226C1739.91 816.781 1739.18 814.7 1737.9 813.964L1718.11 802.535L1738.98 797.75C1740.65 797.368 1741.7 795.701 1741.32 794.028C1740.93 792.355 1739.26 791.311 1737.59 791.697L1710.21 797.974L1691.12 786.953L1710.21 775.931L1737.59 782.209C1739.26 782.595 1740.93 781.55 1741.32 779.877C1741.7 778.204 1740.65 776.538 1738.98 776.156L1718.11 771.371L1737.9 759.942C1739.5 759.016 1739.91 757.125 1739.07 755.68C1738.24 754.234 1736.07 753.828 1734.8 754.564L1715 765.993L1721.29 745.522C1721.8 743.882 1720.88 742.142 1719.24 741.638C1717.6 741.133 1715.86 742.056 1715.36 743.697L1707.1 770.554L1688.01 781.576V759.532L1707.14 738.953C1708.31 737.698 1708.24 735.731 1706.99 734.562C1705.73 733.393 1703.76 733.466 1702.59 734.724L1688.01 750.411V727.553C1688.01 725.702 1686.58 724.406 1684.91 724.406Z" fill="white"/>
<path d="M1603.01 1070.83H1416.5V1257.35H1603.01V1070.83Z" fill="#007BFF"/>
<path d="M1352.51 1071H1166V1257.52H1352.51V1071Z" fill="#593AC6"/>
<path d="M1853.24 1070.83H1666.73V1257.35H1853.24V1070.83Z" fill="url(#paint9_linear)"/>
<path d="M1516.3 1104.62C1516.3 1106.95 1515.9 1108.68 1515.11 1109.81C1514.31 1110.94 1513.07 1111.5 1511.39 1111.5C1509.72 1111.5 1508.48 1110.95 1507.68 1109.85C1506.88 1108.74 1506.47 1107.09 1506.44 1104.89V1102.24C1506.44 1099.95 1506.84 1098.24 1507.63 1097.12C1508.42 1096.01 1509.67 1095.45 1511.36 1095.45C1513.04 1095.45 1514.28 1095.99 1515.08 1097.07C1515.87 1098.14 1516.28 1099.8 1516.3 1102.05V1104.62ZM1514.31 1101.91C1514.31 1100.23 1514.08 1099.01 1513.61 1098.24C1513.13 1097.47 1512.39 1097.08 1511.36 1097.08C1510.35 1097.08 1509.61 1097.46 1509.14 1098.23C1508.68 1098.99 1508.44 1100.17 1508.42 1101.76V1104.94C1508.42 1106.62 1508.67 1107.87 1509.15 1108.68C1509.65 1109.48 1510.39 1109.88 1511.39 1109.88C1512.37 1109.88 1513.09 1109.5 1513.56 1108.74C1514.04 1107.99 1514.29 1106.79 1514.31 1105.16V1101.91ZM1528.64 1104.62C1528.64 1106.95 1528.24 1108.68 1527.45 1109.81C1526.65 1110.94 1525.41 1111.5 1523.72 1111.5C1522.06 1111.5 1520.82 1110.95 1520.02 1109.85C1519.22 1108.74 1518.81 1107.09 1518.78 1104.89V1102.24C1518.78 1099.95 1519.17 1098.24 1519.97 1097.12C1520.76 1096.01 1522.01 1095.45 1523.7 1095.45C1525.38 1095.45 1526.62 1095.99 1527.42 1097.07C1528.21 1098.14 1528.62 1099.8 1528.64 1102.05V1104.62ZM1526.65 1101.91C1526.65 1100.23 1526.42 1099.01 1525.95 1098.24C1525.47 1097.47 1524.73 1097.08 1523.7 1097.08C1522.69 1097.08 1521.95 1097.46 1521.48 1098.23C1521.02 1098.99 1520.78 1100.17 1520.76 1101.76V1104.94C1520.76 1106.62 1521.01 1107.87 1521.49 1108.68C1521.99 1109.48 1522.73 1109.88 1523.72 1109.88C1524.7 1109.88 1525.43 1109.5 1525.9 1108.74C1526.38 1107.99 1526.63 1106.79 1526.65 1105.16V1101.91ZM1541.27 1096.78L1534.8 1111.29H1532.72L1539.16 1097.3H1530.71V1095.67H1541.27V1096.78ZM1544.03 1111.29V1095.67H1549.14C1550.84 1095.67 1552.11 1096.02 1552.96 1096.72C1553.82 1097.42 1554.25 1098.45 1554.25 1099.83C1554.25 1100.56 1554.04 1101.21 1553.63 1101.77C1553.21 1102.33 1552.65 1102.76 1551.93 1103.07C1552.78 1103.3 1553.44 1103.76 1553.93 1104.42C1554.42 1105.08 1554.67 1105.87 1554.67 1106.78C1554.67 1108.18 1554.21 1109.28 1553.31 1110.09C1552.4 1110.89 1551.11 1111.29 1549.45 1111.29H1544.03ZM1546.09 1103.98V1109.6H1549.5C1550.45 1109.6 1551.21 1109.36 1551.76 1108.86C1552.32 1108.36 1552.6 1107.67 1552.6 1106.8C1552.6 1104.92 1551.57 1103.98 1549.53 1103.98H1546.09ZM1546.09 1102.33H1549.21C1550.11 1102.33 1550.83 1102.1 1551.36 1101.65C1551.91 1101.2 1552.18 1100.59 1552.18 1099.82C1552.18 1098.96 1551.93 1098.34 1551.43 1097.95C1550.93 1097.56 1550.16 1097.36 1549.14 1097.36H1546.09V1102.33ZM1566.34 1104.39H1559.79V1111.29H1557.73V1095.67H1567.4V1097.36H1559.79V1102.7H1566.34V1104.39ZM1578.49 1104.39H1571.93V1111.29H1569.87V1095.67H1579.55V1097.36H1571.93V1102.7H1578.49V1104.39Z" fill="white"/>
<path d="M1765.39 1107.21H1758.84L1757.37 1111.29H1755.25L1761.22 1095.67H1763.02L1768.99 1111.29H1766.88L1765.39 1107.21ZM1759.47 1105.51H1764.78L1762.12 1098.21L1759.47 1105.51ZM1778.19 1104.42C1777.77 1104.91 1777.28 1105.31 1776.7 1105.61C1776.13 1105.91 1775.5 1106.06 1774.81 1106.06C1773.91 1106.06 1773.12 1105.84 1772.45 1105.4C1771.78 1104.95 1771.27 1104.33 1770.9 1103.53C1770.54 1102.72 1770.36 1101.83 1770.36 1100.86C1770.36 1099.81 1770.55 1098.87 1770.95 1098.04C1771.35 1097.2 1771.91 1096.56 1772.64 1096.12C1773.37 1095.67 1774.22 1095.45 1775.2 1095.45C1776.74 1095.45 1777.96 1096.03 1778.84 1097.19C1779.74 1098.34 1780.19 1099.91 1780.19 1101.91V1102.49C1780.19 1105.53 1779.58 1107.75 1778.38 1109.15C1777.18 1110.55 1775.37 1111.26 1772.94 1111.3H1772.56V1109.62H1772.97C1774.61 1109.6 1775.87 1109.17 1776.75 1108.35C1777.63 1107.52 1778.11 1106.21 1778.19 1104.42ZM1775.13 1104.42C1775.8 1104.42 1776.41 1104.22 1776.97 1103.81C1777.53 1103.4 1777.94 1102.9 1778.2 1102.3V1101.5C1778.2 1100.2 1777.92 1099.14 1777.35 1098.33C1776.79 1097.51 1776.07 1097.1 1775.21 1097.1C1774.33 1097.1 1773.63 1097.44 1773.1 1098.11C1772.57 1098.78 1772.31 1099.66 1772.31 1100.75C1772.31 1101.82 1772.56 1102.7 1773.07 1103.39C1773.59 1104.08 1774.27 1104.42 1775.13 1104.42ZM1792.72 1104.62C1792.72 1106.95 1792.32 1108.68 1791.53 1109.81C1790.73 1110.94 1789.49 1111.5 1787.8 1111.5C1786.14 1111.5 1784.9 1110.95 1784.1 1109.85C1783.3 1108.74 1782.89 1107.09 1782.86 1104.89V1102.24C1782.86 1099.95 1783.25 1098.24 1784.05 1097.12C1784.84 1096.01 1786.09 1095.45 1787.78 1095.45C1789.46 1095.45 1790.7 1095.99 1791.49 1097.07C1792.29 1098.14 1792.7 1099.8 1792.72 1102.05V1104.62ZM1790.73 1101.91C1790.73 1100.23 1790.5 1099.01 1790.02 1098.24C1789.55 1097.47 1788.8 1097.08 1787.78 1097.08C1786.77 1097.08 1786.03 1097.46 1785.56 1098.23C1785.1 1098.99 1784.86 1100.17 1784.84 1101.76V1104.94C1784.84 1106.62 1785.08 1107.87 1785.57 1108.68C1786.06 1109.48 1786.81 1109.88 1787.8 1109.88C1788.78 1109.88 1789.51 1109.5 1789.98 1108.74C1790.46 1107.99 1790.71 1106.79 1790.73 1105.16V1101.91ZM1805.06 1104.62C1805.06 1106.95 1804.66 1108.68 1803.86 1109.81C1803.07 1110.94 1801.83 1111.5 1800.14 1111.5C1798.48 1111.5 1797.24 1110.95 1796.44 1109.85C1795.64 1108.74 1795.22 1107.09 1795.2 1104.89V1102.24C1795.2 1099.95 1795.59 1098.24 1796.39 1097.12C1797.18 1096.01 1798.43 1095.45 1800.12 1095.45C1801.8 1095.45 1803.04 1095.99 1803.83 1097.07C1804.63 1098.14 1805.03 1099.8 1805.06 1102.05V1104.62ZM1803.07 1101.91C1803.07 1100.23 1802.83 1099.01 1802.36 1098.24C1801.89 1097.47 1801.14 1097.08 1800.12 1097.08C1799.1 1097.08 1798.36 1097.46 1797.9 1098.23C1797.43 1098.99 1797.19 1100.17 1797.18 1101.76V1104.94C1797.18 1106.62 1797.42 1107.87 1797.91 1108.68C1798.4 1109.48 1799.15 1109.88 1800.14 1109.88C1801.12 1109.88 1801.85 1109.5 1802.32 1108.74C1802.8 1107.99 1803.05 1106.79 1803.07 1105.16V1101.91ZM1815.21 1104.42C1814.79 1104.91 1814.29 1105.31 1813.71 1105.61C1813.14 1105.91 1812.51 1106.06 1811.83 1106.06C1810.92 1106.06 1810.14 1105.84 1809.47 1105.4C1808.8 1104.95 1808.29 1104.33 1807.92 1103.53C1807.56 1102.72 1807.37 1101.83 1807.37 1100.86C1807.37 1099.81 1807.57 1098.87 1807.96 1098.04C1808.36 1097.2 1808.93 1096.56 1809.66 1096.12C1810.39 1095.67 1811.24 1095.45 1812.21 1095.45C1813.76 1095.45 1814.97 1096.03 1815.86 1097.19C1816.75 1098.34 1817.2 1099.91 1817.2 1101.91V1102.49C1817.2 1105.53 1816.6 1107.75 1815.4 1109.15C1814.2 1110.55 1812.38 1111.26 1809.96 1111.3H1809.57V1109.62H1809.99C1811.63 1109.6 1812.89 1109.17 1813.77 1108.35C1814.65 1107.52 1815.13 1106.21 1815.21 1104.42ZM1812.15 1104.42C1812.81 1104.42 1813.42 1104.22 1813.98 1103.81C1814.55 1103.4 1814.96 1102.9 1815.22 1102.3V1101.5C1815.22 1100.2 1814.93 1099.14 1814.37 1098.33C1813.8 1097.51 1813.09 1097.1 1812.22 1097.1C1811.35 1097.1 1810.65 1097.44 1810.12 1098.11C1809.59 1098.78 1809.33 1099.66 1809.33 1100.75C1809.33 1101.82 1809.58 1102.7 1810.09 1103.39C1810.6 1104.08 1811.29 1104.42 1812.15 1104.42ZM1822.82 1102.51H1824.32C1825.25 1102.5 1825.99 1102.25 1826.53 1101.77C1827.06 1101.29 1827.33 1100.64 1827.33 1099.83C1827.33 1098 1826.42 1097.08 1824.59 1097.08C1823.74 1097.08 1823.05 1097.33 1822.53 1097.82C1822.03 1098.31 1821.77 1098.96 1821.77 1099.76H1819.79C1819.79 1098.53 1820.24 1097.5 1821.14 1096.68C1822.05 1095.86 1823.2 1095.45 1824.59 1095.45C1826.07 1095.45 1827.22 1095.84 1828.06 1096.62C1828.9 1097.4 1829.32 1098.48 1829.32 1099.87C1829.32 1100.55 1829.09 1101.21 1828.65 1101.85C1828.21 1102.48 1827.62 1102.96 1826.86 1103.27C1827.72 1103.54 1828.38 1103.99 1828.84 1104.62C1829.32 1105.25 1829.55 1106.02 1829.55 1106.93C1829.55 1108.33 1829.09 1109.45 1828.18 1110.27C1827.26 1111.09 1826.07 1111.5 1824.6 1111.5C1823.14 1111.5 1821.94 1111.1 1821.02 1110.31C1820.11 1109.52 1819.65 1108.47 1819.65 1107.17H1821.64C1821.64 1107.99 1821.91 1108.65 1822.45 1109.14C1822.98 1109.63 1823.7 1109.88 1824.6 1109.88C1825.56 1109.88 1826.3 1109.63 1826.8 1109.13C1827.31 1108.63 1827.57 1107.91 1827.57 1106.97C1827.57 1106.07 1827.29 1105.37 1826.73 1104.88C1826.17 1104.4 1825.37 1104.14 1824.32 1104.13H1822.82V1102.51Z" fill="white"/>
<path d="M368.723 1154H413.277C417.555 1154 421 1157.44 421 1161.72V1206.28C421 1210.56 417.555 1214 413.277 1214H368.723C364.445 1214 361 1210.56 361 1206.28V1161.72C361 1157.44 364.445 1154 368.723 1154Z" fill="url(#paint10_linear)"/>
<path d="M413.277 1154C417.555 1154 421 1157.44 421 1161.72V1184C415.996 1204.47 392.3 1209.19 368.723 1214C364.445 1214 361 1210.56 361 1206.28V1188.38C382.72 1189.44 398.362 1172.78 413.277 1154Z" fill="url(#paint11_linear)"/>
<path d="M391 1162.01C390.413 1162.01 389.908 1162.6 389.908 1163.11V1171.15L384.781 1165.63C384.37 1165.19 383.679 1165.17 383.237 1165.58C382.795 1165.99 382.77 1166.68 383.182 1167.12L389.908 1174.36V1182.11L383.196 1178.23L380.292 1168.79C380.116 1168.21 379.504 1167.89 378.928 1168.07C378.351 1168.24 378.027 1168.85 378.205 1169.43L380.418 1176.63L373.458 1172.61C372.894 1172.29 372.247 1172.5 371.953 1173C371.66 1173.51 371.917 1174.24 372.366 1174.5L379.327 1178.52L371.986 1180.2C371.397 1180.34 371.029 1180.92 371.164 1181.51C371.299 1182.1 371.886 1182.47 372.474 1182.33L382.104 1180.12L388.817 1184L382.104 1187.88L372.474 1185.67C371.886 1185.53 371.299 1185.9 371.164 1186.49C371.029 1187.08 371.397 1187.66 371.986 1187.8L379.327 1189.48L372.366 1193.5C371.802 1193.82 371.66 1194.49 371.953 1195C372.247 1195.5 373.009 1195.65 373.458 1195.39L380.418 1191.37L378.205 1198.57C378.027 1199.15 378.351 1199.76 378.927 1199.93C379.504 1200.11 380.116 1199.79 380.292 1199.21L383.196 1189.77L389.908 1185.89V1193.64L383.181 1200.88C382.77 1201.32 382.795 1202.01 383.237 1202.42C383.679 1202.83 384.37 1202.81 384.781 1202.37L389.908 1196.85V1204.89C389.908 1205.54 390.413 1205.99 391 1205.99C391.587 1205.99 392.092 1205.4 392.092 1204.89V1196.85L397.219 1202.37C397.63 1202.81 398.321 1202.83 398.763 1202.42C399.205 1202.01 399.23 1201.32 398.819 1200.88L392.092 1193.64V1185.89L398.804 1189.77L401.708 1199.21C401.884 1199.79 402.496 1200.11 403.073 1199.93C403.65 1199.76 403.973 1199.15 403.795 1198.57L401.582 1191.37L408.543 1195.39C409.106 1195.71 409.753 1195.5 410.047 1195C410.34 1194.49 410.083 1193.76 409.634 1193.5L402.674 1189.48L410.014 1187.8C410.603 1187.66 410.971 1187.08 410.836 1186.49C410.701 1185.9 410.114 1185.53 409.526 1185.67L399.896 1187.88L393.183 1184L399.896 1180.12L409.526 1182.33C410.114 1182.47 410.701 1182.1 410.836 1181.51C410.971 1180.92 410.603 1180.34 410.014 1180.2L402.674 1178.52L409.634 1174.5C410.198 1174.18 410.34 1173.51 410.047 1173C409.753 1172.5 408.991 1172.35 408.543 1172.61L401.582 1176.63L403.795 1169.43C403.973 1168.85 403.65 1168.24 403.073 1168.07C402.496 1167.89 401.884 1168.21 401.708 1168.79L398.804 1178.23L392.092 1182.11V1174.36L398.819 1167.12C399.23 1166.68 399.205 1165.99 398.763 1165.58C398.321 1165.17 397.63 1165.19 397.219 1165.63L392.092 1171.15V1163.11C392.092 1162.46 391.587 1162.01 391 1162.01H391Z" fill="white"/>
<defs>
<filter id="filter0_f" x="787.38" y="197.813" width="569.094" height="570.482" filterUnits="userSpaceOnUse" color-interpolation-filters="sRGB">
<feFlood flood-opacity="0" result="BackgroundImageFix"/>
<feBlend mode="normal" in="SourceGraphic" in2="BackgroundImageFix" result="shape"/>
<feGaussianBlur stdDeviation="50" result="effect1_foregroundBlur"/>
</filter>
<linearGradient id="paint0_linear" x1="1206.27" y1="813.844" x2="1326.2" y2="813.844" gradientUnits="userSpaceOnUse">
<stop stop-color="#007BFF"/>
<stop offset="1" stop-color="#A90093"/>
</linearGradient>
<linearGradient id="paint1_linear" x1="1206.27" y1="813.844" x2="1326.2" y2="813.844" gradientUnits="userSpaceOnUse">
<stop stop-color="#007BFF"/>
<stop offset="1" stop-color="#A90093"/>
</linearGradient>
<linearGradient id="paint2_linear" x1="887.38" y1="297.813" x2="1257.86" y2="666.905" gradientUnits="userSpaceOnUse">
<stop stop-color="#007BFF"/>
<stop offset="1" stop-color="#A90093"/>
</linearGradient>
<linearGradient id="paint3_linear" x1="887.38" y1="275.072" x2="1257.86" y2="644.164" gradientUnits="userSpaceOnUse">
<stop stop-color="#007BFF"/>
<stop offset="1" stop-color="#A90093"/>
</linearGradient>
<linearGradient id="paint4_linear" x1="1032.97" y1="365.967" x2="1257.5" y2="644.732" gradientUnits="userSpaceOnUse">
<stop stop-opacity="0.543269"/>
<stop offset="1" stop-opacity="0"/>
</linearGradient>
<linearGradient id="paint5_linear" x1="1561.72" y1="342.086" x2="1763.26" y2="513.886" gradientUnits="userSpaceOnUse">
<stop stop-color="#007BFF"/>
<stop offset="1" stop-color="#A90093"/>
</linearGradient>
<linearGradient id="paint6_linear" x1="216.792" y1="622.436" x2="648.85" y2="622.436" gradientUnits="userSpaceOnUse">
<stop stop-color="#007BFF"/>
<stop offset="1" stop-color="#A90093"/>
</linearGradient>
<linearGradient id="paint7_linear" x1="1521.23" y1="910.289" x2="1848.59" y2="910.289" gradientUnits="userSpaceOnUse">
<stop stop-color="#0C4293"/>
<stop offset="1" stop-color="#62035C"/>
</linearGradient>
<linearGradient id="paint8_linear" x1="1494.23" y1="786.953" x2="1875.59" y2="786.953" gradientUnits="userSpaceOnUse">
<stop stop-color="#007BFF"/>
<stop offset="1" stop-color="#A90093"/>
</linearGradient>
<linearGradient id="paint9_linear" x1="1666.73" y1="1070.83" x2="1853.26" y2="1257.34" gradientUnits="userSpaceOnUse">
<stop stop-color="#007BFF"/>
<stop offset="1" stop-color="#A90093"/>
</linearGradient>
<linearGradient id="paint10_linear" x1="361" y1="1154" x2="421" y2="1214" gradientUnits="userSpaceOnUse">
<stop stop-color="#007BFF"/>
<stop offset="1" stop-color="#A90093"/>
</linearGradient>
<linearGradient id="paint11_linear" x1="384.668" y1="1168.72" x2="421" y2="1214" gradientUnits="userSpaceOnUse">
<stop stop-opacity="0.543269"/>
<stop offset="1" stop-opacity="0"/>
</linearGradient>
</defs>
</svg>
