<svg width="1654" height="2339" viewBox="0 0 1654 2339" fill="none" xmlns="http://www.w3.org/2000/svg">
<rect width="1654" height="2339" fill="#FF9500"/>
<path d="M507.5 380V205H540.5V274.5H545L601.75 205H644L571 291.25L646.5 380H603L545 309H540.5V380H507.5ZM740.676 383.5C718.676 383.5 701.176 377.5 688.176 365.5C675.176 353.333 668.676 336 668.676 313.5V271.5C668.676 249 675.176 231.75 688.176 219.75C701.176 207.583 718.676 201.5 740.676 201.5C762.676 201.5 780.176 207.583 793.176 219.75C806.176 231.75 812.676 249 812.676 271.5V313.5C812.676 336 806.176 353.333 793.176 365.5C780.176 377.5 762.676 383.5 740.676 383.5ZM740.676 354C753.009 354 762.592 350.417 769.426 343.25C776.259 336.083 779.676 326.5 779.676 314.5V270.5C779.676 258.5 776.259 248.917 769.426 241.75C762.592 234.583 753.009 231 740.676 231C728.509 231 718.926 234.583 711.926 241.75C705.092 248.917 701.676 258.5 701.676 270.5V314.5C701.676 326.5 705.092 336.083 711.926 343.25C718.926 350.417 728.509 354 740.676 354ZM918.621 383.5C905.121 383.5 893.204 381.083 882.871 376.25C872.538 371.417 864.454 364.5 858.621 355.5C852.788 346.5 849.871 335.667 849.871 323V316H882.371V323C882.371 333.5 885.621 341.417 892.121 346.75C898.621 351.917 907.454 354.5 918.621 354.5C929.954 354.5 938.371 352.25 943.871 347.75C949.538 343.25 952.371 337.5 952.371 330.5C952.371 325.667 950.954 321.75 948.121 318.75C945.454 315.75 941.454 313.333 936.121 311.5C930.954 309.5 924.621 307.667 917.121 306L911.371 304.75C899.371 302.083 889.038 298.75 880.371 294.75C871.871 290.583 865.288 285.167 860.621 278.5C856.121 271.833 853.871 263.167 853.871 252.5C853.871 241.833 856.371 232.75 861.371 225.25C866.538 217.583 873.704 211.75 882.871 207.75C892.204 203.583 903.121 201.5 915.621 201.5C928.121 201.5 939.204 203.667 948.871 208C958.704 212.167 966.371 218.5 971.871 227C977.538 235.333 980.371 245.833 980.371 258.5V266H947.871V258.5C947.871 251.833 946.538 246.5 943.871 242.5C941.371 238.333 937.704 235.333 932.871 233.5C928.038 231.5 922.288 230.5 915.621 230.5C905.621 230.5 898.204 232.417 893.371 236.25C888.704 239.917 886.371 245 886.371 251.5C886.371 255.833 887.454 259.5 889.621 262.5C891.954 265.5 895.371 268 899.871 270C904.371 272 910.121 273.75 917.121 275.25L922.871 276.5C935.371 279.167 946.204 282.583 955.371 286.75C964.704 290.917 971.954 296.417 977.121 303.25C982.288 310.083 984.871 318.833 984.871 329.5C984.871 340.167 982.121 349.583 976.621 357.75C971.288 365.75 963.621 372.083 953.621 376.75C943.788 381.25 932.121 383.5 918.621 383.5ZM1086.48 383.5C1072.98 383.5 1061.07 381.083 1050.73 376.25C1040.4 371.417 1032.32 364.5 1026.48 355.5C1020.65 346.5 1017.73 335.667 1017.73 323V316H1050.23V323C1050.23 333.5 1053.48 341.417 1059.98 346.75C1066.48 351.917 1075.32 354.5 1086.48 354.5C1097.82 354.5 1106.23 352.25 1111.73 347.75C1117.4 343.25 1120.23 337.5 1120.23 330.5C1120.23 325.667 1118.82 321.75 1115.98 318.75C1113.32 315.75 1109.32 313.333 1103.98 311.5C1098.82 309.5 1092.48 307.667 1084.98 306L1079.23 304.75C1067.23 302.083 1056.9 298.75 1048.23 294.75C1039.73 290.583 1033.15 285.167 1028.48 278.5C1023.98 271.833 1021.73 263.167 1021.73 252.5C1021.73 241.833 1024.23 232.75 1029.23 225.25C1034.4 217.583 1041.57 211.75 1050.73 207.75C1060.07 203.583 1070.98 201.5 1083.48 201.5C1095.98 201.5 1107.07 203.667 1116.73 208C1126.57 212.167 1134.23 218.5 1139.73 227C1145.4 235.333 1148.23 245.833 1148.23 258.5V266H1115.73V258.5C1115.73 251.833 1114.4 246.5 1111.73 242.5C1109.23 238.333 1105.57 235.333 1100.73 233.5C1095.9 231.5 1090.15 230.5 1083.48 230.5C1073.48 230.5 1066.07 232.417 1061.23 236.25C1056.57 239.917 1054.23 245 1054.23 251.5C1054.23 255.833 1055.32 259.5 1057.48 262.5C1059.82 265.5 1063.23 268 1067.73 270C1072.23 272 1077.98 273.75 1084.98 275.25L1090.73 276.5C1103.23 279.167 1114.07 282.583 1123.23 286.75C1132.57 290.917 1139.82 296.417 1144.98 303.25C1150.15 310.083 1152.73 318.833 1152.73 329.5C1152.73 340.167 1149.98 349.583 1144.48 357.75C1139.15 365.75 1131.48 372.083 1121.48 376.75C1111.65 381.25 1099.98 383.5 1086.48 383.5Z" fill="black"/>
<path d="M587.8 568V456H601.24V555.84H657.88V568H587.8ZM712.659 570.24C699.325 570.24 688.659 566.4 680.659 558.72C672.765 550.933 668.819 539.627 668.819 524.8V499.2C668.819 484.373 672.765 473.12 680.659 465.44C688.659 457.653 699.325 453.76 712.659 453.76C726.099 453.76 736.765 457.653 744.659 465.44C752.659 473.12 756.659 484.373 756.659 499.2V524.8C756.659 539.627 752.659 550.933 744.659 558.72C736.765 566.4 726.099 570.24 712.659 570.24ZM712.659 558.24C722.365 558.24 729.885 555.36 735.219 549.6C740.552 543.733 743.219 535.627 743.219 525.28V498.72C743.219 488.373 740.552 480.32 735.219 474.56C729.885 468.693 722.365 465.76 712.659 465.76C703.059 465.76 695.592 468.693 690.259 474.56C684.925 480.32 682.259 488.373 682.259 498.72V525.28C682.259 535.627 684.925 543.733 690.259 549.6C695.592 555.36 703.059 558.24 712.659 558.24ZM818.09 570.24C809.77 570.24 802.41 568.533 796.01 565.12C789.717 561.6 784.757 556.48 781.13 549.76C777.61 543.04 775.85 534.72 775.85 524.8V499.2C775.85 484.373 779.797 473.12 787.69 465.44C795.583 457.653 806.197 453.76 819.53 453.76C832.757 453.76 842.837 457.387 849.77 464.64C856.703 471.893 860.17 481.6 860.17 493.76V494.56H846.89V493.44C846.89 488.107 845.93 483.36 844.01 479.2C842.09 475.04 839.103 471.787 835.05 469.44C830.997 466.987 825.823 465.76 819.53 465.76C810.037 465.76 802.623 468.693 797.29 474.56C791.957 480.32 789.29 488.427 789.29 498.88V525.12C789.29 535.573 791.957 543.733 797.29 549.6C802.623 555.36 810.09 558.24 819.69 558.24C829.077 558.24 835.957 555.573 840.33 550.24C844.81 544.907 847.05 537.813 847.05 528.96V526.24H813.13V514.72H860.17V568H848.01V555.84H845.77C844.597 558.187 842.943 560.48 840.81 562.72C838.677 564.96 835.797 566.773 832.17 568.16C828.543 569.547 823.85 570.24 818.09 570.24ZM925.315 570.24C911.982 570.24 901.315 566.4 893.315 558.72C885.422 550.933 881.475 539.627 881.475 524.8V499.2C881.475 484.373 885.422 473.12 893.315 465.44C901.315 457.653 911.982 453.76 925.315 453.76C938.755 453.76 949.422 457.653 957.315 465.44C965.315 473.12 969.315 484.373 969.315 499.2V524.8C969.315 539.627 965.315 550.933 957.315 558.72C949.422 566.4 938.755 570.24 925.315 570.24ZM925.315 558.24C935.022 558.24 942.542 555.36 947.875 549.6C953.208 543.733 955.875 535.627 955.875 525.28V498.72C955.875 488.373 953.208 480.32 947.875 474.56C942.542 468.693 935.022 465.76 925.315 465.76C915.715 465.76 908.248 468.693 902.915 474.56C897.582 480.32 894.915 488.373 894.915 498.72V525.28C894.915 535.627 897.582 543.733 902.915 549.6C908.248 555.36 915.715 558.24 925.315 558.24ZM1028.99 570.24C1020.88 570.24 1013.63 568.8 1007.23 565.92C1000.83 563.04 995.76 558.72 992.026 552.96C988.4 547.093 986.586 539.787 986.586 531.04V527.68H999.866V531.04C999.866 540.32 1002.59 547.253 1008.03 551.84C1013.47 556.32 1020.45 558.56 1028.99 558.56C1037.73 558.56 1044.4 556.587 1048.99 552.64C1053.57 548.693 1055.87 543.733 1055.87 537.76C1055.87 533.6 1054.8 530.293 1052.67 527.84C1050.64 525.387 1047.76 523.413 1044.03 521.92C1040.29 520.32 1035.92 518.933 1030.91 517.76L1022.59 515.68C1016.08 513.973 1010.32 511.893 1005.31 509.44C1000.29 506.987 996.346 503.787 993.466 499.84C990.693 495.787 989.306 490.613 989.306 484.32C989.306 478.027 990.853 472.587 993.946 468C997.146 463.413 1001.57 459.893 1007.23 457.44C1012.99 454.987 1019.6 453.76 1027.07 453.76C1034.64 453.76 1041.41 455.093 1047.39 457.76C1053.47 460.32 1058.21 464.16 1061.63 469.28C1065.15 474.293 1066.91 480.64 1066.91 488.32V495.04H1053.63V488.32C1053.63 482.88 1052.45 478.507 1050.11 475.2C1047.87 471.893 1044.72 469.44 1040.67 467.84C1036.72 466.24 1032.19 465.44 1027.07 465.44C1019.71 465.44 1013.79 467.093 1009.31 470.4C1004.83 473.6 1002.59 478.187 1002.59 484.16C1002.59 488.107 1003.55 491.307 1005.47 493.76C1007.39 496.213 1010.11 498.24 1013.63 499.84C1017.15 501.333 1021.36 502.667 1026.27 503.84L1034.59 505.92C1041.09 507.307 1046.91 509.227 1052.03 511.68C1057.25 514.027 1061.41 517.28 1064.51 521.44C1067.6 525.493 1069.15 530.827 1069.15 537.44C1069.15 544.053 1067.49 549.813 1064.19 554.72C1060.88 559.627 1056.19 563.467 1050.11 566.24C1044.13 568.907 1037.09 570.24 1028.99 570.24Z" fill="black"/>
<path d="M367.7 1393V1383.4H377.1V1332.6H367.7V1323H395.7C405.033 1323 412.167 1325.37 417.1 1330.1C422.1 1334.83 424.6 1341.97 424.6 1351.5V1364.6C424.6 1374.13 422.1 1381.27 417.1 1386C412.167 1390.67 405.033 1393 395.7 1393H367.7ZM388 1383.2H395.8C401.867 1383.2 406.367 1381.67 409.3 1378.6C412.233 1375.53 413.7 1370.97 413.7 1364.9V1351.1C413.7 1344.97 412.233 1340.4 409.3 1337.4C406.367 1334.4 401.867 1332.9 395.8 1332.9H388V1383.2ZM430.823 1393L450.823 1323H469.823L489.723 1393H478.623L474.023 1376.5H446.623L442.023 1393H430.823ZM449.323 1366.5H471.323L461.123 1329.7H459.523L449.323 1366.5ZM499.206 1393V1323H528.606C532.94 1323 536.74 1323.77 540.006 1325.3C543.34 1326.77 545.906 1328.9 547.706 1331.7C549.573 1334.5 550.506 1337.83 550.506 1341.7V1342.8C550.506 1347.2 549.44 1350.73 547.306 1353.4C545.24 1356 542.706 1357.83 539.706 1358.9V1360.5C542.24 1360.63 544.273 1361.5 545.806 1363.1C547.34 1364.63 548.106 1366.87 548.106 1369.8V1393H537.206V1371.3C537.206 1369.5 536.74 1368.07 535.806 1367C534.873 1365.93 533.373 1365.4 531.306 1365.4H510.006V1393H499.206ZM510.006 1355.6H527.406C531.273 1355.6 534.273 1354.63 536.406 1352.7C538.54 1350.7 539.606 1348 539.606 1344.6V1343.8C539.606 1340.4 538.54 1337.73 536.406 1335.8C534.34 1333.8 531.34 1332.8 527.406 1332.8H510.006V1355.6ZM562.39 1393V1323H573.19V1352.1H574.79L600.89 1323H614.99L583.39 1357.5L616.09 1393H601.59L574.79 1363.3H573.19V1393H562.39Z" fill="black"/>
<path d="M1037.3 1393V1323H1048.1V1383.2H1081.8V1393H1037.3ZM1091.69 1393V1323H1102.49V1393H1091.69ZM1141.39 1394.4C1136.39 1394.4 1131.92 1393.33 1127.99 1391.2C1124.05 1389 1120.95 1385.8 1118.69 1381.6C1116.42 1377.4 1115.29 1372.27 1115.29 1366.2V1349.8C1115.29 1340.67 1117.79 1333.7 1122.79 1328.9C1127.79 1324.03 1134.55 1321.6 1143.09 1321.6C1151.49 1321.6 1157.95 1323.9 1162.49 1328.5C1167.02 1333.03 1169.29 1339.13 1169.29 1346.8V1347.3H1158.59V1346.5C1158.59 1343.63 1158.02 1341.07 1156.89 1338.8C1155.75 1336.47 1154.05 1334.63 1151.79 1333.3C1149.52 1331.97 1146.62 1331.3 1143.09 1331.3C1137.75 1331.3 1133.59 1332.93 1130.59 1336.2C1127.59 1339.4 1126.09 1343.87 1126.09 1349.6V1366.4C1126.09 1372.07 1127.59 1376.57 1130.59 1379.9C1133.59 1383.17 1137.79 1384.8 1143.19 1384.8C1148.52 1384.8 1152.42 1383.33 1154.89 1380.4C1157.35 1377.47 1158.59 1373.67 1158.59 1369V1367.7H1139.79V1358.4H1169.29V1393H1159.29V1385.9H1157.69C1157.09 1387.17 1156.19 1388.47 1154.99 1389.8C1153.85 1391.13 1152.19 1392.23 1149.99 1393.1C1147.85 1393.97 1144.99 1394.4 1141.39 1394.4ZM1183.2 1393V1323H1194V1353H1223.4V1323H1234.2V1393H1223.4V1362.8H1194V1393H1183.2ZM1265.52 1393V1332.8H1244.02V1323H1297.82V1332.8H1276.32V1393H1265.52Z" fill="black"/>
<path d="M335.1 2158.4C329.833 2158.4 325.167 2157.47 321.1 2155.6C317.033 2153.73 313.833 2151 311.5 2147.4C309.233 2143.73 308.1 2139.3 308.1 2134.1V2131.6H318.8V2134.1C318.8 2139.03 320.267 2142.73 323.2 2145.2C326.2 2147.67 330.167 2148.9 335.1 2148.9C340.1 2148.9 343.867 2147.87 346.4 2145.8C348.933 2143.67 350.2 2140.93 350.2 2137.6C350.2 2135.4 349.6 2133.6 348.4 2132.2C347.2 2130.8 345.5 2129.7 343.3 2128.9C341.1 2128.03 338.467 2127.23 335.4 2126.5L331.7 2125.6C327.233 2124.53 323.333 2123.23 320 2121.7C316.733 2120.1 314.2 2118 312.4 2115.4C310.6 2112.8 309.7 2109.47 309.7 2105.4C309.7 2101.27 310.7 2097.73 312.7 2094.8C314.767 2091.87 317.6 2089.6 321.2 2088C324.8 2086.4 329.033 2085.6 333.9 2085.6C338.767 2085.6 343.1 2086.43 346.9 2088.1C350.767 2089.77 353.8 2092.23 356 2095.5C358.2 2098.77 359.3 2102.87 359.3 2107.8V2111.4H348.6V2107.8C348.6 2104.8 347.967 2102.37 346.7 2100.5C345.5 2098.63 343.8 2097.27 341.6 2096.4C339.4 2095.53 336.833 2095.1 333.9 2095.1C329.633 2095.1 326.3 2096 323.9 2097.8C321.567 2099.53 320.4 2101.97 320.4 2105.1C320.4 2107.23 320.9 2109 321.9 2110.4C322.967 2111.73 324.5 2112.83 326.5 2113.7C328.5 2114.57 331 2115.33 334 2116L337.7 2116.9C342.233 2117.9 346.233 2119.2 349.7 2120.8C353.167 2122.33 355.9 2124.43 357.9 2127.1C359.9 2129.77 360.9 2133.2 360.9 2137.4C360.9 2141.6 359.833 2145.27 357.7 2148.4C355.633 2151.53 352.667 2154 348.8 2155.8C344.933 2157.53 340.367 2158.4 335.1 2158.4ZM398.538 2158.4C389.938 2158.4 383.104 2156 378.038 2151.2C372.971 2146.33 370.438 2139.33 370.438 2130.2V2113.8C370.438 2104.67 372.971 2097.7 378.038 2092.9C383.104 2088.03 389.938 2085.6 398.538 2085.6C407.138 2085.6 413.971 2088.03 419.038 2092.9C424.171 2097.7 426.738 2104.67 426.738 2113.8V2130.2C426.738 2139.33 424.171 2146.33 419.038 2151.2C413.971 2156 407.138 2158.4 398.538 2158.4ZM398.538 2148.7C404.071 2148.7 408.338 2147.1 411.338 2143.9C414.338 2140.63 415.838 2136.2 415.838 2130.6V2113.4C415.838 2107.8 414.338 2103.4 411.338 2100.2C408.338 2096.93 404.071 2095.3 398.538 2095.3C393.138 2095.3 388.904 2096.93 385.838 2100.2C382.771 2103.4 381.238 2107.8 381.238 2113.4V2130.6C381.238 2136.2 382.771 2140.63 385.838 2143.9C388.904 2147.1 393.138 2148.7 398.538 2148.7ZM402.838 2174.1C399.971 2174.1 397.638 2173.2 395.838 2171.4C394.104 2169.67 393.238 2167.3 393.238 2164.3V2157H403.838V2162.5C403.838 2164.5 404.771 2165.5 406.638 2165.5H412.838V2174.1H402.838ZM465.723 2158.4C460.189 2158.4 455.423 2157.4 451.423 2155.4C447.489 2153.4 444.423 2150.53 442.223 2146.8C440.089 2143 439.023 2138.4 439.023 2133V2087H449.923V2133.3C449.923 2138.23 451.289 2142.03 454.023 2144.7C456.756 2147.37 460.656 2148.7 465.723 2148.7C470.789 2148.7 474.689 2147.37 477.423 2144.7C480.156 2142.03 481.523 2138.23 481.523 2133.3V2087H492.323V2133C492.323 2138.4 491.256 2143 489.123 2146.8C486.989 2150.53 483.923 2153.4 479.923 2155.4C475.923 2157.4 471.189 2158.4 465.723 2158.4ZM500.045 2157L520.045 2087H539.045L558.945 2157H547.845L543.245 2140.5H515.845L511.245 2157H500.045ZM518.545 2130.5H540.545L530.345 2093.7H528.745L518.545 2130.5ZM568.429 2157V2087H597.829C602.162 2087 605.962 2087.77 609.229 2089.3C612.562 2090.77 615.129 2092.9 616.929 2095.7C618.796 2098.5 619.729 2101.83 619.729 2105.7V2106.8C619.729 2111.2 618.662 2114.73 616.529 2117.4C614.462 2120 611.929 2121.83 608.929 2122.9V2124.5C611.462 2124.63 613.496 2125.5 615.029 2127.1C616.562 2128.63 617.329 2130.87 617.329 2133.8V2157H606.429V2135.3C606.429 2133.5 605.962 2132.07 605.029 2131C604.096 2129.93 602.596 2129.4 600.529 2129.4H579.229V2157H568.429ZM579.229 2119.6H596.629C600.496 2119.6 603.496 2118.63 605.629 2116.7C607.762 2114.7 608.829 2112 608.829 2108.6V2107.8C608.829 2104.4 607.762 2101.73 605.629 2099.8C603.562 2097.8 600.562 2096.8 596.629 2096.8H579.229V2119.6ZM631.613 2157V2087H675.712V2096.8H642.413V2116.9H672.913V2126.7H642.413V2147.2H676.213V2157H631.613Z" fill="black"/>
<path d="M1065.3 2157V2087H1093.1C1097.37 2087 1101.17 2087.87 1104.5 2089.6C1107.9 2091.27 1110.53 2093.67 1112.4 2096.8C1114.33 2099.87 1115.3 2103.57 1115.3 2107.9V2109.2C1115.3 2113.53 1114.3 2117.27 1112.3 2120.4C1110.37 2123.53 1107.73 2125.93 1104.4 2127.6C1101.07 2129.27 1097.3 2130.1 1093.1 2130.1H1076.1V2157H1065.3ZM1076.1 2120.3H1092C1095.8 2120.3 1098.83 2119.3 1101.1 2117.3C1103.37 2115.3 1104.5 2112.57 1104.5 2109.1V2108.1C1104.5 2104.57 1103.37 2101.8 1101.1 2099.8C1098.83 2097.8 1095.8 2096.8 1092 2096.8H1076.1V2120.3ZM1114.89 2157L1134.89 2087H1153.89L1173.79 2157H1162.69L1158.09 2140.5H1130.69L1126.09 2157H1114.89ZM1133.39 2130.5H1155.39L1145.19 2093.7H1143.59L1133.39 2130.5ZM1206.97 2158.4C1201.7 2158.4 1197.04 2157.47 1192.97 2155.6C1188.9 2153.73 1185.7 2151 1183.37 2147.4C1181.1 2143.73 1179.97 2139.3 1179.97 2134.1V2131.6H1190.67V2134.1C1190.67 2139.03 1192.14 2142.73 1195.07 2145.2C1198.07 2147.67 1202.04 2148.9 1206.97 2148.9C1211.97 2148.9 1215.74 2147.87 1218.27 2145.8C1220.8 2143.67 1222.07 2140.93 1222.07 2137.6C1222.07 2135.4 1221.47 2133.6 1220.27 2132.2C1219.07 2130.8 1217.37 2129.7 1215.17 2128.9C1212.97 2128.03 1210.34 2127.23 1207.27 2126.5L1203.57 2125.6C1199.1 2124.53 1195.2 2123.23 1191.87 2121.7C1188.6 2120.1 1186.07 2118 1184.27 2115.4C1182.47 2112.8 1181.57 2109.47 1181.57 2105.4C1181.57 2101.27 1182.57 2097.73 1184.57 2094.8C1186.64 2091.87 1189.47 2089.6 1193.07 2088C1196.67 2086.4 1200.9 2085.6 1205.77 2085.6C1210.64 2085.6 1214.97 2086.43 1218.77 2088.1C1222.64 2089.77 1225.67 2092.23 1227.87 2095.5C1230.07 2098.77 1231.17 2102.87 1231.17 2107.8V2111.4H1220.47V2107.8C1220.47 2104.8 1219.84 2102.37 1218.57 2100.5C1217.37 2098.63 1215.67 2097.27 1213.47 2096.4C1211.27 2095.53 1208.7 2095.1 1205.77 2095.1C1201.5 2095.1 1198.17 2096 1195.77 2097.8C1193.44 2099.53 1192.27 2101.97 1192.27 2105.1C1192.27 2107.23 1192.77 2109 1193.77 2110.4C1194.84 2111.73 1196.37 2112.83 1198.37 2113.7C1200.37 2114.57 1202.87 2115.33 1205.87 2116L1209.57 2116.9C1214.1 2117.9 1218.1 2119.2 1221.57 2120.8C1225.04 2122.33 1227.77 2124.43 1229.77 2127.1C1231.77 2129.77 1232.77 2133.2 1232.77 2137.4C1232.77 2141.6 1231.7 2145.27 1229.57 2148.4C1227.5 2151.53 1224.54 2154 1220.67 2155.8C1216.8 2157.53 1212.24 2158.4 1206.97 2158.4ZM1258.17 2157V2096.8H1236.67V2087H1290.47V2096.8H1268.97V2157H1258.17Z" fill="black"/>
<g clip-path="url(#clip0_523_9)">
<path d="M662.429 791H319.571C281.7 791 251 821.7 251 859.571V1202.43C251 1240.3 281.7 1271 319.571 1271H662.429C700.3 1271 731 1240.3 731 1202.43V859.571C731 821.7 700.3 791 662.429 791Z" fill="#111319"/>
<path fill-rule="evenodd" clip-rule="evenodd" d="M621.339 979.339C644.441 972.885 660.406 952.007 660.429 928.218C660.406 904.79 644.915 884.139 622.285 877.37L616.856 876.037C613.536 875.395 610.161 875.065 606.778 875.051C591.053 875.105 576.143 881.988 565.989 893.888C565.91 893.834 565.834 893.792 565.755 893.733C559.614 889.889 552.365 887.677 544.611 887.677C522.453 887.677 504.466 905.822 504.466 928.141C504.466 950.461 522.453 968.607 544.611 968.607C552.289 968.607 559.465 966.431 565.566 962.656C565.663 962.581 565.763 962.535 565.86 962.467C576.027 974.434 590.995 981.355 606.78 981.387C609.84 981.377 612.895 981.089 615.907 980.554L621.339 979.339ZM563.878 896.735C558.28 893.23 551.689 891.215 544.61 891.215C524.381 891.215 508.003 907.719 508.003 928.143C508.003 948.565 524.381 965.067 544.61 965.067C551.619 965.067 558.155 963.069 563.718 959.629C569.576 956.005 575.296 950.774 579.256 944.624C581.688 939.473 582.96 933.844 582.983 928.139C582.959 922.44 581.686 916.813 579.256 911.667C575.327 905.561 569.668 900.359 563.878 896.735Z" fill="#00689F"/>
<path fill-rule="evenodd" clip-rule="evenodd" d="M476.19 842.824L405.659 866.644L393.689 884.875L393.679 884.865L380.764 904.551L366.08 926.93L380.767 948.215L412.677 994.451L476.051 1007.3L423.846 929.707L476.19 842.824ZM421.675 926.474L468.175 849.254L407.937 869.619L395.838 888.067L421.675 926.474Z" fill="#00689F"/>
<path fill-rule="evenodd" clip-rule="evenodd" d="M468.175 849.254L421.675 926.474L395.838 888.067L407.937 869.619L468.175 849.254Z" fill="#00689F"/>
<path d="M340.377 1119.58L392.96 1145.07L412.838 1079.41L487.632 1037.95L477.823 1039.37L343.246 1113.93L339.904 1115.72L340.377 1119.58Z" fill="#00689F"/>
<path d="M427.532 1089.89L409.683 1153.41L331.286 1196.03L341.307 1194.6L476.262 1121.26L479.614 1119.49L479.156 1115.66L427.532 1089.89Z" fill="#00689F"/>
<path d="M500.397 1120.02L552.979 1145.5L572.857 1079.85L647.652 1038.39L637.843 1039.81L503.266 1114.36L499.923 1116.16L500.397 1120.02Z" fill="#00689F"/>
<path d="M587.551 1090.33L569.703 1153.85L491.305 1196.46L501.327 1195.04L636.282 1121.7L639.633 1119.93L639.175 1116.09L587.551 1090.33Z" fill="#00689F"/>
<path d="M340.997 871.842C340.997 868.055 344.067 864.985 347.854 864.985H373.907C377.694 864.985 380.764 868.055 380.764 871.842V902.502C380.764 903.839 380.374 905.147 379.641 906.264L368.612 923.071C367.082 925.404 367.117 928.431 368.701 930.728L379.56 946.464C380.347 947.605 380.769 948.955 380.774 950.341C380.812 963.062 380.897 976.202 380.819 989.747C380.797 993.506 377.737 996.534 373.977 996.534H347.854C344.067 996.534 340.997 993.464 340.997 989.677V871.842Z" fill="#39B8FF"/>
<path d="M450.456 855.245C456.506 853.199 461.821 859.807 458.527 865.278L427.23 917.251C424.642 921.548 418.466 921.703 415.666 917.541L398.381 891.846C396.84 889.556 396.822 886.566 398.336 884.258L406.64 871.597C407.48 870.315 408.726 869.352 410.178 868.861L450.456 855.245Z" fill="#39B8FF"/>
<path d="M561.787 851.233C580.836 851.233 597.321 857.771 609.778 868.788C612.307 871.025 610.155 875.065 606.778 875.051C591.092 875.105 576.217 881.954 566.065 893.801C566.022 893.85 565.948 893.86 565.893 893.825C565.847 893.797 565.801 893.768 565.755 893.733C559.614 889.889 552.365 887.677 544.611 887.677C522.453 887.677 504.466 905.822 504.466 928.141C504.466 950.461 522.453 968.607 544.611 968.607C552.289 968.607 559.465 966.431 565.566 962.656C565.622 962.613 565.679 962.579 565.736 962.545C565.807 962.503 565.901 962.516 565.954 962.579C576.121 974.477 591.045 981.355 606.78 981.387C609.833 981.377 611.733 985.039 609.442 987.058C597.071 997.965 580.776 1004.46 561.948 1004.46C518.899 1004.46 483.968 971.663 483.968 928.811C483.968 885.953 518.79 851.234 561.787 851.233Z" fill="#39B8FF"/>
<path d="M403.256 1024.22C404.765 1023.33 406.557 1023.06 408.265 1023.45L460.357 1035.37C466.489 1036.78 467.653 1045.01 462.15 1048.06L352.134 1109C347.882 1111.36 342.599 1108.67 342.005 1103.84L337.553 1067.69C337.22 1064.98 338.527 1062.33 340.88 1060.94L403.256 1024.22Z" fill="#39B8FF"/>
<path d="M467.375 1126.09C471.634 1123.77 476.885 1126.49 477.458 1131.3L481.762 1167.46C482.084 1170.16 480.776 1172.8 478.431 1174.18L417.921 1209.79C416.423 1210.67 414.647 1210.95 412.95 1210.58L359.165 1198.58C352.979 1197.2 351.815 1188.89 357.383 1185.87L467.375 1126.09Z" fill="#39B8FF"/>
<path d="M559.913 1026.52C561.423 1025.63 563.215 1025.36 564.922 1025.75L617.018 1037.67C623.149 1039.08 624.313 1047.31 618.81 1050.36L508.794 1111.3C504.543 1113.66 499.259 1110.97 498.665 1106.14L494.212 1069.99C493.878 1067.28 495.185 1064.63 497.539 1063.24L559.913 1026.52Z" fill="#39B8FF"/>
<path d="M627.454 1126.5C631.713 1124.18 636.964 1126.9 637.538 1131.71L641.841 1167.86C642.163 1170.57 640.856 1173.2 638.511 1174.58L578.003 1210.2C576.506 1211.08 574.729 1211.36 573.033 1210.98L519.248 1198.99C513.062 1197.61 511.897 1189.3 517.465 1186.27L627.454 1126.5Z" fill="#39B8FF"/>
</g>
<g clip-path="url(#clip1_523_9)">
<path d="M1332.43 791H989.571C951.7 791 921 821.7 921 859.571V1202.43C921 1240.3 951.7 1271 989.571 1271H1332.43C1370.3 1271 1401 1240.3 1401 1202.43V859.571C1401 821.7 1370.3 791 1332.43 791Z" fill="#F9F9F9"/>
<path fill-rule="evenodd" clip-rule="evenodd" d="M1294.34 982.339C1317.44 975.885 1333.41 955.007 1333.43 931.218C1333.41 907.79 1317.91 887.139 1295.29 880.37L1289.86 879.037C1286.54 878.395 1283.16 878.065 1279.78 878.051C1264.05 878.105 1249.14 884.988 1238.99 896.888C1238.91 896.834 1238.83 896.792 1238.75 896.733C1232.61 892.889 1225.36 890.677 1217.61 890.677C1195.45 890.677 1177.47 908.822 1177.47 931.141C1177.47 953.461 1195.45 971.607 1217.61 971.607C1225.29 971.607 1232.46 969.431 1238.57 965.656C1238.66 965.581 1238.76 965.535 1238.86 965.467C1249.03 977.434 1264 984.355 1279.78 984.387C1282.84 984.377 1285.89 984.089 1288.91 983.554L1294.34 982.339ZM1236.88 899.735C1231.28 896.23 1224.69 894.215 1217.61 894.215C1197.38 894.215 1181 910.719 1181 931.143C1181 951.565 1197.38 968.067 1217.61 968.067C1224.62 968.067 1231.15 966.069 1236.72 962.629C1242.58 959.005 1248.3 953.774 1252.26 947.624C1254.69 942.473 1255.96 936.844 1255.98 931.139C1255.96 925.44 1254.69 919.813 1252.26 914.667C1248.33 908.561 1242.67 903.359 1236.88 899.735Z" fill="#00689F"/>
<path fill-rule="evenodd" clip-rule="evenodd" d="M1149.19 845.824L1078.66 869.644L1066.69 887.875L1066.68 887.865L1053.76 907.551L1039.08 929.93L1053.77 951.215L1085.68 997.451L1149.05 1010.3L1096.85 932.707L1149.19 845.824ZM1094.68 929.474L1141.18 852.254L1080.94 872.619L1068.84 891.067L1094.68 929.474Z" fill="#00689F"/>
<path fill-rule="evenodd" clip-rule="evenodd" d="M1141.18 852.254L1094.67 929.474L1068.84 891.067L1080.94 872.619L1141.18 852.254Z" fill="#00689F"/>
<path d="M1013.38 1122.58L1065.96 1148.07L1085.84 1082.41L1160.63 1040.95L1150.82 1042.37L1016.25 1116.93L1012.9 1118.72L1013.38 1122.58Z" fill="#00689F"/>
<path d="M1100.53 1092.89L1082.68 1156.41L1004.29 1199.03L1014.31 1197.6L1149.26 1124.26L1152.61 1122.49L1152.16 1118.66L1100.53 1092.89Z" fill="#00689F"/>
<path d="M1173.4 1123.02L1225.98 1148.5L1245.86 1082.85L1320.65 1041.39L1310.84 1042.81L1176.27 1117.36L1172.92 1119.16L1173.4 1123.02Z" fill="#00689F"/>
<path d="M1260.55 1093.33L1242.7 1156.85L1164.3 1199.46L1174.33 1198.04L1309.28 1124.7L1312.63 1122.93L1312.17 1119.09L1260.55 1093.33Z" fill="#00689F"/>
<path d="M1014 874.842C1014 871.055 1017.07 867.985 1020.85 867.985H1046.91C1050.69 867.985 1053.76 871.055 1053.76 874.842V905.502C1053.76 906.839 1053.37 908.147 1052.64 909.264L1041.61 926.071C1040.08 928.404 1040.12 931.431 1041.7 933.728L1052.56 949.464C1053.35 950.605 1053.77 951.955 1053.77 953.341C1053.81 966.062 1053.9 979.202 1053.82 992.747C1053.8 996.506 1050.74 999.534 1046.98 999.534H1020.85C1017.07 999.534 1014 996.464 1014 992.677V874.842Z" fill="#39B8FF"/>
<path d="M1123.46 858.245C1129.51 856.199 1134.82 862.807 1131.53 868.278L1100.23 920.251C1097.64 924.548 1091.47 924.703 1088.67 920.541L1071.38 894.846C1069.84 892.556 1069.82 889.566 1071.34 887.258L1079.64 874.597C1080.48 873.315 1081.73 872.352 1083.18 871.861L1123.46 858.245Z" fill="#39B8FF"/>
<path d="M1234.79 854.233C1253.84 854.233 1270.32 860.771 1282.78 871.788C1285.31 874.025 1283.15 878.065 1279.78 878.051C1264.09 878.105 1249.22 884.954 1239.06 896.801C1239.02 896.85 1238.95 896.86 1238.89 896.825C1238.85 896.797 1238.8 896.768 1238.75 896.733C1232.61 892.889 1225.36 890.677 1217.61 890.677C1195.45 890.677 1177.47 908.822 1177.47 931.141C1177.47 953.461 1195.45 971.607 1217.61 971.607C1225.29 971.607 1232.46 969.431 1238.57 965.656C1238.62 965.613 1238.68 965.579 1238.74 965.545C1238.81 965.503 1238.9 965.516 1238.95 965.579C1249.12 977.477 1264.04 984.355 1279.78 984.387C1282.83 984.377 1284.73 988.039 1282.44 990.058C1270.07 1000.96 1253.78 1007.46 1234.95 1007.46C1191.9 1007.46 1156.97 974.663 1156.97 931.811C1156.97 888.953 1191.79 854.234 1234.79 854.233Z" fill="#39B8FF"/>
<path d="M1076.26 1027.22C1077.77 1026.33 1079.56 1026.06 1081.26 1026.45L1133.36 1038.37C1139.49 1039.78 1140.65 1048.01 1135.15 1051.06L1025.13 1112C1020.88 1114.36 1015.6 1111.67 1015.01 1106.84L1010.55 1070.69C1010.22 1067.98 1011.53 1065.33 1013.88 1063.94L1076.26 1027.22Z" fill="#39B8FF"/>
<path d="M1140.37 1129.09C1144.63 1126.77 1149.88 1129.49 1150.46 1134.3L1154.76 1170.46C1155.08 1173.16 1153.78 1175.8 1151.43 1177.18L1090.92 1212.79C1089.42 1213.67 1087.65 1213.95 1085.95 1213.58L1032.16 1201.58C1025.98 1200.2 1024.81 1191.89 1030.38 1188.87L1140.37 1129.09Z" fill="#39B8FF"/>
<path d="M1232.91 1029.52C1234.42 1028.63 1236.21 1028.36 1237.92 1028.75L1290.02 1040.67C1296.15 1042.08 1297.31 1050.31 1291.81 1053.36L1181.79 1114.3C1177.54 1116.66 1172.26 1113.97 1171.67 1109.14L1167.21 1072.99C1166.88 1070.28 1168.18 1067.63 1170.54 1066.24L1232.91 1029.52Z" fill="#39B8FF"/>
<path d="M1300.45 1129.5C1304.71 1127.18 1309.96 1129.9 1310.54 1134.71L1314.84 1170.86C1315.16 1173.57 1313.86 1176.2 1311.51 1177.58L1251 1213.2C1249.51 1214.08 1247.73 1214.36 1246.03 1213.98L1192.25 1201.99C1186.06 1200.61 1184.9 1192.3 1190.47 1189.27L1300.45 1129.5Z" fill="#39B8FF"/>
</g>
<g clip-path="url(#clip2_523_9)">
<path d="M731 1555H251V2035H731V1555Z" fill="#F9F9F9"/>
<path fill-rule="evenodd" clip-rule="evenodd" d="M622.339 1745.34C645.441 1738.89 661.406 1718.01 661.429 1694.22C661.406 1670.79 645.915 1650.14 623.285 1643.37L617.856 1642.04C614.536 1641.39 611.161 1641.06 607.778 1641.05C592.053 1641.11 577.143 1647.99 566.989 1659.89C566.91 1659.83 566.834 1659.79 566.755 1659.73C560.614 1655.89 553.365 1653.68 545.611 1653.68C523.453 1653.68 505.466 1671.82 505.466 1694.14C505.466 1716.46 523.453 1734.61 545.611 1734.61C553.289 1734.61 560.465 1732.43 566.566 1728.66C566.663 1728.58 566.763 1728.53 566.86 1728.47C577.027 1740.43 591.995 1747.36 607.78 1747.39C610.84 1747.38 613.895 1747.09 616.907 1746.55L622.339 1745.34ZM564.878 1662.73C559.28 1659.23 552.689 1657.21 545.61 1657.21C525.381 1657.21 509.003 1673.72 509.003 1694.14C509.003 1714.57 525.381 1731.07 545.61 1731.07C552.619 1731.07 559.155 1729.07 564.718 1725.63C570.576 1722 576.296 1716.77 580.256 1710.62C582.688 1705.47 583.96 1699.84 583.983 1694.14C583.959 1688.44 582.686 1682.81 580.256 1677.67C576.327 1671.56 570.668 1666.36 564.878 1662.73Z" fill="#00689F"/>
<path fill-rule="evenodd" clip-rule="evenodd" d="M477.19 1608.82L406.659 1632.64L394.689 1650.88L394.679 1650.87L381.764 1670.55L367.08 1692.93L381.767 1714.21L413.677 1760.45L477.051 1773.3L424.846 1695.71L477.19 1608.82ZM422.675 1692.47L469.175 1615.25L408.937 1635.62L396.838 1654.07L422.675 1692.47Z" fill="#00689F"/>
<path fill-rule="evenodd" clip-rule="evenodd" d="M469.176 1615.25L422.675 1692.47L396.838 1654.07L408.937 1635.62L469.176 1615.25Z" fill="#00689F"/>
<path d="M341.377 1885.58L393.96 1911.07L413.838 1845.41L488.632 1803.95L478.823 1805.37L344.246 1879.93L340.904 1881.72L341.377 1885.58Z" fill="#00689F"/>
<path d="M428.532 1855.89L410.683 1919.41L332.286 1962.03L342.307 1960.6L477.262 1887.26L480.614 1885.49L480.156 1881.66L428.532 1855.89Z" fill="#00689F"/>
<path d="M501.397 1886.02L553.979 1911.5L573.857 1845.85L648.652 1804.39L638.843 1805.81L504.266 1880.36L500.923 1882.16L501.397 1886.02Z" fill="#00689F"/>
<path d="M588.551 1856.33L570.703 1919.85L492.305 1962.46L502.327 1961.04L637.282 1887.7L640.633 1885.93L640.175 1882.09L588.551 1856.33Z" fill="#00689F"/>
<path d="M341.997 1637.84C341.997 1634.05 345.067 1630.98 348.854 1630.98H374.907C378.694 1630.98 381.764 1634.05 381.764 1637.84V1668.5C381.764 1669.84 381.374 1671.15 380.641 1672.26L369.612 1689.07C368.082 1691.4 368.117 1694.43 369.701 1696.73L380.56 1712.46C381.347 1713.6 381.769 1714.96 381.774 1716.34C381.812 1729.06 381.897 1742.2 381.819 1755.75C381.797 1759.51 378.737 1762.53 374.977 1762.53H348.854C345.067 1762.53 341.997 1759.46 341.997 1755.68V1637.84Z" fill="#39B8FF"/>
<path d="M451.456 1621.24C457.506 1619.2 462.821 1625.81 459.527 1631.28L428.23 1683.25C425.642 1687.55 419.466 1687.7 416.666 1683.54L399.381 1657.85C397.84 1655.56 397.822 1652.57 399.336 1650.26L407.64 1637.6C408.48 1636.32 409.726 1635.35 411.178 1634.86L451.456 1621.24Z" fill="#39B8FF"/>
<path d="M562.787 1617.23C581.836 1617.23 598.321 1623.77 610.778 1634.79C613.307 1637.02 611.155 1641.06 607.778 1641.05C592.092 1641.11 577.217 1647.95 567.065 1659.8C567.022 1659.85 566.948 1659.86 566.893 1659.83C566.847 1659.8 566.801 1659.77 566.755 1659.73C560.614 1655.89 553.365 1653.68 545.611 1653.68C523.453 1653.68 505.466 1671.82 505.466 1694.14C505.466 1716.46 523.453 1734.61 545.611 1734.61C553.289 1734.61 560.465 1732.43 566.566 1728.66C566.622 1728.61 566.679 1728.58 566.736 1728.54C566.807 1728.5 566.901 1728.52 566.954 1728.58C577.121 1740.48 592.045 1747.36 607.78 1747.39C610.833 1747.38 612.733 1751.04 610.442 1753.06C598.071 1763.96 581.776 1770.46 562.948 1770.46C519.899 1770.46 484.968 1737.66 484.968 1694.81C484.968 1651.95 519.79 1617.23 562.787 1617.23Z" fill="#39B8FF"/>
<path d="M404.256 1790.22C405.765 1789.33 407.557 1789.06 409.265 1789.45L461.357 1801.37C467.489 1802.78 468.653 1811.01 463.15 1814.06L353.134 1875C348.882 1877.36 343.599 1874.67 343.005 1869.84L338.553 1833.69C338.22 1830.98 339.527 1828.33 341.88 1826.94L404.256 1790.22Z" fill="#39B8FF"/>
<path d="M468.375 1892.09C472.634 1889.77 477.885 1892.49 478.458 1897.3L482.762 1933.46C483.084 1936.16 481.776 1938.8 479.431 1940.18L418.921 1975.79C417.423 1976.67 415.647 1976.95 413.95 1976.58L360.165 1964.58C353.979 1963.2 352.815 1954.89 358.383 1951.87L468.375 1892.09Z" fill="#39B8FF"/>
<path d="M560.913 1792.52C562.423 1791.63 564.215 1791.36 565.922 1791.75L618.018 1803.67C624.149 1805.08 625.313 1813.31 619.81 1816.36L509.794 1877.3C505.543 1879.66 500.259 1876.97 499.665 1872.14L495.212 1835.99C494.878 1833.28 496.185 1830.63 498.539 1829.24L560.913 1792.52Z" fill="#39B8FF"/>
<path d="M628.454 1892.5C632.713 1890.18 637.964 1892.9 638.538 1897.71L642.841 1933.86C643.163 1936.57 641.856 1939.2 639.511 1940.58L579.003 1976.2C577.506 1977.08 575.729 1977.36 574.033 1976.98L520.248 1964.99C514.062 1963.61 512.897 1955.3 518.465 1952.27L628.454 1892.5Z" fill="#39B8FF"/>
</g>
<g clip-path="url(#clip3_523_9)">
<path d="M1326.33 1555H995.667C954.429 1555 921 1588.43 921 1629.67V1960.33C921 2001.57 954.429 2035 995.667 2035H1326.33C1367.57 2035 1401 2001.57 1401 1960.33V1629.67C1401 1588.43 1367.57 1555 1326.33 1555Z" fill="#232B40"/>
<path d="M1155.72 1611.39L1086.11 1634.9L1074.3 1652.89L1074.29 1652.88L1065.03 1666.99V1629.77H1018.8V1766.58H1065.01L1065.03 1764.86C1065.21 1749.46 1065.1 1734.77 1065.05 1720.49L1093.04 1761.03L1155.58 1773.72L1104.06 1697.14L1155.72 1611.39ZM1240.19 1616.2C1195.88 1616.2 1159.9 1652.06 1159.9 1696.25C1159.9 1740.45 1196.09 1774.4 1240.35 1774.4C1265.03 1774.4 1285.59 1763.44 1298.97 1746.12C1321.77 1739.75 1337.52 1719.14 1337.55 1695.67C1337.52 1672.54 1322.24 1652.16 1299.9 1645.48C1286.52 1627.54 1265.49 1616.2 1240.19 1616.2V1616.2ZM1147.81 1617.74L1101.92 1693.95L1076.42 1656.04L1088.36 1637.83L1147.81 1617.74ZM1240.19 1619.69C1262.81 1619.69 1281.77 1629.03 1294.54 1644.17C1291.27 1643.53 1287.94 1643.21 1284.6 1643.19C1269.08 1643.25 1254.36 1650.04 1244.34 1661.79C1244.27 1661.73 1244.19 1661.69 1244.11 1661.63C1238.05 1657.84 1230.9 1655.66 1223.24 1655.66C1201.38 1655.66 1183.62 1673.56 1183.62 1695.59C1183.62 1717.62 1201.38 1735.53 1223.24 1735.53C1230.82 1735.53 1237.9 1733.38 1243.92 1729.65C1244.02 1729.58 1244.12 1729.54 1244.21 1729.47C1254.25 1741.28 1269.02 1748.11 1284.6 1748.14C1287.62 1748.13 1290.63 1747.85 1293.61 1747.32C1280.89 1761.91 1262.38 1770.91 1240.35 1770.91C1197.87 1770.91 1163.39 1738.54 1163.39 1696.25C1163.39 1653.96 1197.76 1619.69 1240.19 1619.69L1240.19 1619.69ZM1022.29 1633.26H1061.54V1672.31L1047.05 1694.39L1061.55 1715.4C1061.58 1730.69 1061.71 1746.59 1061.54 1763.09H1022.29L1022.29 1633.26ZM1223.24 1659.15C1230.23 1659.15 1236.73 1661.14 1242.26 1664.6C1247.97 1668.17 1253.56 1673.31 1257.44 1679.33C1259.83 1684.41 1261.09 1689.96 1261.11 1695.59C1261.09 1701.22 1259.84 1706.77 1257.44 1711.86C1253.53 1717.93 1247.88 1723.09 1242.1 1726.67C1236.61 1730.06 1230.16 1732.03 1223.24 1732.03C1203.28 1732.03 1187.12 1715.75 1187.12 1695.59C1187.12 1675.44 1203.28 1659.15 1223.24 1659.15V1659.15ZM1085.48 1785.35L1014.62 1827.06L1021.68 1884.52L1073.58 1909.68L1093.2 1844.88L1167.01 1803.97L1085.48 1785.35ZM1240.08 1787.62L1169.23 1829.32L1176.29 1886.79L1228.19 1911.95L1247.81 1847.15L1321.62 1806.24L1240.08 1787.62ZM1086.06 1789.05L1157.33 1805.37L1024.51 1878.94L1018.35 1828.91L1086.06 1789.05ZM1240.67 1791.32L1311.94 1807.64L1179.13 1881.21L1172.96 1831.17L1240.67 1791.32ZM1107.7 1855.22L1090.08 1917.92L1012.71 1959.97C1040.64 1966.17 1068.57 1972.4 1096.49 1978.61L1165.5 1938.02L1158.65 1880.65L1107.7 1855.22ZM1263.7 1857.18L1244.69 1917.41L1167.32 1959.46C1195.25 1965.66 1223.18 1971.89 1251.11 1978.1L1320.11 1937.51L1313.25 1880.15L1263.7 1857.18ZM1310.4 1885.67L1316.35 1935.66L1250.52 1974.4L1177.21 1958.06L1310.4 1885.67ZM1155.79 1886.18L1161.74 1936.17L1095.91 1974.91L1022.6 1958.56L1155.79 1886.18Z" fill="url(#paint0_linear_523_9)" stroke="url(#paint1_linear_523_9)" stroke-width="1.62899" stroke-miterlimit="3.5" stroke-linecap="round" stroke-linejoin="round"/>
</g>
<defs>
<linearGradient id="paint0_linear_523_9" x1="1206.01" y1="1938.43" x2="1065.03" y2="1629.77" gradientUnits="userSpaceOnUse">
<stop stop-color="#FF41BE"/>
<stop offset="0.242859" stop-color="#166EF2"/>
<stop offset="1" stop-color="#5AFFD6"/>
</linearGradient>
<linearGradient id="paint1_linear_523_9" x1="1206.01" y1="1938.43" x2="1065.03" y2="1629.77" gradientUnits="userSpaceOnUse">
<stop stop-color="#FF41BE"/>
<stop offset="0.242859" stop-color="#166EF2"/>
<stop offset="1" stop-color="#5AFFD6"/>
</linearGradient>
<clipPath id="clip0_523_9">
<rect width="480" height="480" fill="white" transform="translate(251 791)"/>
</clipPath>
<clipPath id="clip1_523_9">
<rect width="480" height="480" fill="white" transform="translate(921 791)"/>
</clipPath>
<clipPath id="clip2_523_9">
<rect width="480" height="480" fill="white" transform="translate(251 1555)"/>
</clipPath>
<clipPath id="clip3_523_9">
<rect width="480" height="480" fill="white" transform="translate(921 1555)"/>
</clipPath>
</defs>
</svg>
