<?xml version="1.0" encoding="UTF-8" standalone="no"?>
<!-- Created with Inkscape (http://www.inkscape.org/) -->

<svg
   xmlns:dc="http://purl.org/dc/elements/1.1/"
   xmlns:cc="http://creativecommons.org/ns#"
   xmlns:rdf="http://www.w3.org/1999/02/22-rdf-syntax-ns#"
   xmlns:svg="http://www.w3.org/2000/svg"
   xmlns="http://www.w3.org/2000/svg"
   xmlns:xlink="http://www.w3.org/1999/xlink"
   xmlns:sodipodi="http://sodipodi.sourceforge.net/DTD/sodipodi-0.dtd"
   xmlns:inkscape="http://www.inkscape.org/namespaces/inkscape"
   width="210mm"
   height="297mm"
   viewBox="0 0 210 297"
   version="1.1"
   id="svg8"
   inkscape:version="0.92.3 (2405546, 2018-03-11)"
   sodipodi:docname="all-logos.svg"
   inkscape:export-filename="/home/xypnox/logos.png"
   inkscape:export-xdpi="200"
   inkscape:export-ydpi="200">
  <defs
     id="defs2">
    <linearGradient
       y2="304.99863"
       x2="217.85042"
       y1="835.21771"
       x1="460.02142"
       gradientTransform="matrix(0.15523734,0,0,0.15523734,4.5895995,-27.407846)"
       gradientUnits="userSpaceOnUse"
       id="linearGradient926"
       xlink:href="#linearGradient969"
       inkscape:collect="always" />
    <linearGradient
       inkscape:collect="always"
       id="linearGradient969">
      <stop
         style="stop-color:#ff41be;stop-opacity:1"
         offset="0"
         id="stop963" />
      <stop
         id="stop965"
         offset="0.24285854"
         style="stop-color:#166ef2;stop-opacity:1" />
      <stop
         style="stop-color:#5affd6;stop-opacity:1"
         offset="1"
         id="stop967" />
    </linearGradient>
    <linearGradient
       y2="157.19157"
       x2="39.242439"
       y1="181.59468"
       x1="50.38826"
       gradientTransform="matrix(3.3729223,0,0,3.3729223,-93.953589,-510.25561)"
       gradientUnits="userSpaceOnUse"
       id="linearGradient928"
       xlink:href="#linearGradient969"
       inkscape:collect="always" />
    <linearGradient
       id="linearGradient846"
       inkscape:collect="always">
      <stop
         id="stop840"
         offset="0"
         style="stop-color:#ff3079;stop-opacity:1" />
      <stop
         style="stop-color:#166ef2;stop-opacity:1"
         offset="0.24285854"
         id="stop842" />
      <stop
         id="stop844"
         offset="1"
         style="stop-color:#00d79e;stop-opacity:1" />
    </linearGradient>
    <linearGradient
       y2="419.06769"
       x2="261.33142"
       y1="806.75714"
       x1="524.95026"
       gradientTransform="matrix(0.15523734,0,0,0.15523734,4.5896377,-27.408152)"
       gradientUnits="userSpaceOnUse"
       id="linearGradient926-7"
       xlink:href="#linearGradient846"
       inkscape:collect="always" />
    <linearGradient
       y2="162.44154"
       x2="41.243637"
       y1="180.28479"
       x1="53.376583"
       gradientTransform="matrix(3.3729223,0,0,3.3729223,-93.953551,-510.25591)"
       gradientUnits="userSpaceOnUse"
       id="linearGradient928-0"
       xlink:href="#linearGradient846"
       inkscape:collect="always" />
    <linearGradient
       inkscape:collect="always"
       xlink:href="#linearGradient969"
       id="linearGradient1266"
       gradientUnits="userSpaceOnUse"
       gradientTransform="matrix(0.15523734,0,0,0.15523734,4.5895995,-27.407846)"
       x1="460.02142"
       y1="835.21771"
       x2="217.85042"
       y2="304.99863" />
    <linearGradient
       inkscape:collect="always"
       xlink:href="#linearGradient969"
       id="linearGradient1268"
       gradientUnits="userSpaceOnUse"
       gradientTransform="matrix(3.3729223,0,0,3.3729223,-93.953589,-510.25561)"
       x1="50.38826"
       y1="181.59468"
       x2="39.242439"
       y2="157.19157" />
  </defs>
  <sodipodi:namedview
     id="base"
     pagecolor="#ffffff"
     bordercolor="#666666"
     borderopacity="1.0"
     inkscape:pageopacity="0.0"
     inkscape:pageshadow="2"
     inkscape:zoom="0.35"
     inkscape:cx="511.11378"
     inkscape:cy="224.68357"
     inkscape:document-units="mm"
     inkscape:current-layer="layer1"
     showgrid="false"
     showguides="true"
     inkscape:guide-bbox="true"
     inkscape:snap-bbox="true"
     inkscape:bbox-paths="true"
     inkscape:bbox-nodes="true"
     inkscape:snap-bbox-edge-midpoints="true"
     inkscape:snap-bbox-midpoints="true"
     inkscape:object-paths="true"
     inkscape:snap-intersection-paths="true"
     inkscape:snap-smooth-nodes="true"
     inkscape:snap-midpoints="true"
     inkscape:snap-object-midpoints="true"
     inkscape:snap-center="true"
     inkscape:snap-text-baseline="true"
     inkscape:snap-page="true"
     inkscape:window-width="1920"
     inkscape:window-height="1080"
     inkscape:window-x="0"
     inkscape:window-y="0"
     inkscape:window-maximized="0">
    <sodipodi:guide
       position="29.969997,247.69043"
       orientation="0,1"
       id="guide1278"
       inkscape:locked="false" />
    <sodipodi:guide
       position="61.969997,215.69043"
       orientation="1,0"
       id="guide1284"
       inkscape:locked="false" />
    <sodipodi:guide
       position="152.2873,98.281143"
       orientation="1,0"
       id="guide1286"
       inkscape:locked="false" />
    <sodipodi:guide
       position="58.498006,181.84135"
       orientation="0,1"
       id="guide1288"
       inkscape:locked="false" />
    <sodipodi:guide
       position="61.969994,121.7312"
       orientation="0,1"
       id="guide1294"
       inkscape:locked="false" />
  </sodipodi:namedview>
  <metadata
     id="metadata5">
    <rdf:RDF>
      <cc:Work
         rdf:about="">
        <dc:format>image/svg+xml</dc:format>
        <dc:type
           rdf:resource="http://purl.org/dc/dcmitype/StillImage" />
        <dc:title></dc:title>
      </cc:Work>
    </rdf:RDF>
  </metadata>
  <g
     inkscape:label="Layer 1"
     inkscape:groupmode="layer"
     id="layer1">
    <rect
       style="opacity:1;fill:#ffffff;fill-opacity:1;fill-rule:nonzero;stroke:none;stroke-width:0.26458332;stroke-linecap:round;stroke-linejoin:round;stroke-miterlimit:4;stroke-dasharray:none;stroke-opacity:0.46078431;paint-order:markers fill stroke"
       id="rect1333"
       width="210"
       height="297"
       x="0"
       y="0" />
    <g
       inkscape:label="Layer 1"
       id="layer1-6"
       transform="matrix(0.5,0,0,0.5,120.2873,198.71886)">
      <rect
         inkscape:export-ydpi="650.23999"
         inkscape:export-xdpi="650.23999"
         inkscape:export-filename="/home/xypnox/koss-sticker.png"
         ry="0"
         y="0"
         x="7.1054274e-15"
         height="128"
         width="128"
         id="rect896"
         style="opacity:1;fill:#232b40;fill-opacity:1;fill-rule:nonzero;stroke:none;stroke-width:1.88148141;stroke-linecap:round;stroke-linejoin:round;stroke-miterlimit:3.5;stroke-dasharray:none;stroke-opacity:1;paint-order:stroke markers fill" />
      <path
         inkscape:export-ydpi="650.23999"
         inkscape:export-xdpi="650.23999"
         inkscape:export-filename="/home/xypnox/koss-sticker.png"
         id="path1545"
         d="m 62.591861,15.037093 -18.562176,6.26897 -3.150196,4.798056 -0.0026,-0.0026 -2.468893,3.762871 v -9.925165 h -12.32789 v 36.481928 h 12.321316 l 0.0066,-0.458059 c 0.04727,-4.106101 0.01981,-8.024368 0.0058,-11.833491 l 7.462875,10.812385 16.678674,3.382532 -13.739317,-20.4217 z m 22.526792,1.281575 c -11.818001,0 -21.411408,9.564457 -21.411408,21.348567 0,11.785297 9.6492,20.840071 21.453576,20.840078 6.580445,0 12.063898,-2.923018 15.631089,-7.542283 6.07979,-1.698621 10.2813,-7.193402 10.28732,-13.454063 -0.006,-6.165707 -4.0829,-11.60057 -10.03845,-13.38213 -3.569951,-4.783641 -9.177439,-7.810169 -15.922127,-7.810169 z m -24.63602,0.410933 -12.237804,20.322476 -6.799792,-10.107908 3.184094,-4.855105 z m 24.63602,0.520895 c 6.03183,0 11.086342,2.490224 14.493375,6.52777 -0.873798,-0.169177 -1.762146,-0.256002 -2.652446,-0.259626 -4.138375,0.01474 -8.062451,1.825752 -10.73464,4.957631 -0.02066,-0.01474 -0.04119,-0.02502 -0.06201,-0.04051 -1.615982,-1.011576 -3.523865,-1.594117 -5.564519,-1.594117 -5.831451,0 -10.565141,4.775488 -10.565141,10.649479 0,5.873997 4.733692,10.64948 10.565141,10.64948 2.020639,0 3.909105,-0.572622 5.51491,-1.565998 0.02548,-0.01969 0.05141,-0.03188 0.07689,-0.04962 2.676017,3.149292 6.615163,4.970827 10.769366,4.979128 0.805265,-0.0026 1.609239,-0.07849 2.401922,-0.219108 -3.391021,3.890039 -8.327604,6.291299 -14.200685,6.291299 -11.329645,0 -20.522573,-8.631156 -20.522573,-19.909075 0,-11.279119 9.164387,-20.416739 20.480405,-20.416739 z M 27.012017,20.8695 h 10.465927 v 10.41301 l -3.864572,5.88946 3.865398,5.601725 c 0.01041,4.076353 0.04367,8.317298 -8.82e-4,12.716535 h -10.4659 z m 53.586391,6.903145 c 1.863019,0 3.597526,0.530419 5.070908,1.452727 1.523793,0.953833 3.013167,2.322826 4.047295,3.929892 0.639331,1.354384 0.974425,2.834962 0.980614,4.335031 -0.0059,1.501424 -0.340674,2.982675 -0.980614,4.338341 -1.042217,1.618663 -2.547581,2.995123 -4.089463,3.948905 -1.464047,0.905642 -3.183974,1.431231 -5.028739,1.431231 -5.323865,0 -9.634138,-4.342858 -9.634138,-9.717651 0,-5.374839 4.310272,-9.718476 9.634137,-9.718476 z M 43.860188,61.425992 24.966458,72.548415 26.849131,87.872749 40.687669,94.580765 45.918976,77.302648 65.60315,66.391065 Z M 85.088884,62.031225 66.195152,73.152821 68.078657,88.477983 81.917195,95.185992 87.148502,77.90788 106.83267,66.996298 Z M 44.015631,62.413223 63.021808,66.764785 27.604022,86.385298 25.961126,73.042027 Z M 85.244325,63.01845 104.25133,67.370025 68.833548,86.990531 67.189822,73.646434 Z M 49.786029,80.059274 45.088844,96.777635 24.456306,107.99182 c 7.448431,1.65312 14.895078,3.31366 22.342407,4.97169 l 18.40012,-10.8256 -1.826453,-15.297035 z m 41.599938,0.522555 -5.067596,16.060208 -20.632538,11.214193 c 7.448444,1.65304 14.895072,3.31365 22.342407,4.97168 l 18.40012,-10.82559 -1.82728,-15.296223 z m 12.453603,7.597669 1.58668,13.329202 -17.553455,10.33198 -19.549396,-4.35818 z M 62.610878,88.315097 64.19755,101.6443 46.643276,111.97628 27.093873,107.61727 Z"
         style="color:#000000;font-style:normal;font-variant:normal;font-weight:normal;font-stretch:normal;font-size:medium;line-height:normal;font-family:sans-serif;font-variant-ligatures:normal;font-variant-position:normal;font-variant-caps:normal;font-variant-numeric:normal;font-variant-alternates:normal;font-feature-settings:normal;text-indent:0;text-align:start;text-decoration:none;text-decoration-line:none;text-decoration-style:solid;text-decoration-color:#000000;letter-spacing:normal;word-spacing:normal;text-transform:none;writing-mode:lr-tb;direction:ltr;text-orientation:mixed;dominant-baseline:auto;baseline-shift:baseline;text-anchor:start;white-space:normal;shape-padding:0;clip-rule:nonzero;display:inline;overflow:visible;visibility:visible;opacity:1;isolation:auto;mix-blend-mode:normal;color-interpolation:sRGB;color-interpolation-filters:linearRGB;solid-color:#000000;solid-opacity:1;vector-effect:none;fill:url(#linearGradient926);fill-opacity:1;fill-rule:nonzero;stroke:url(#linearGradient928);stroke-width:1.6289866;stroke-linecap:round;stroke-linejoin:round;stroke-miterlimit:3.5;stroke-dasharray:none;stroke-dashoffset:0;stroke-opacity:1;paint-order:stroke markers fill;color-rendering:auto;image-rendering:auto;shape-rendering:auto;text-rendering:auto;enable-background:accumulate"
         inkscape:connector-curvature="0" />
    </g>
    <g
       inkscape:label="Layer 1"
       id="layer1-62"
       transform="matrix(0.5,0,0,0.5,29.969997,17.309567)">
      <rect
         inkscape:export-ydpi="650.23999"
         inkscape:export-xdpi="650.23999"
         inkscape:export-filename="/home/xypnox/koss-sticker.png"
         ry="19.91111"
         y="0"
         x="7.1054274e-15"
         height="128"
         width="128"
         id="rect896-9"
         style="opacity:1;fill:#232b40;fill-opacity:1;fill-rule:nonzero;stroke:none;stroke-width:1.88148141;stroke-linecap:round;stroke-linejoin:round;stroke-miterlimit:3.5;stroke-dasharray:none;stroke-opacity:1;paint-order:stroke markers fill" />
      <path
         inkscape:export-ydpi="650.23999"
         inkscape:export-xdpi="650.23999"
         inkscape:export-filename="/home/xypnox/koss-sticker.png"
         id="path1545-1"
         d="m 62.591861,15.037093 -18.562176,6.26897 -3.150196,4.798056 -0.0026,-0.0026 -2.468893,3.762871 v -9.925165 h -12.32789 v 36.481928 h 12.321316 l 0.0066,-0.458059 c 0.04727,-4.106101 0.01981,-8.024368 0.0058,-11.833491 l 7.462875,10.812385 16.678674,3.382532 -13.739317,-20.4217 z m 22.526792,1.281575 c -11.818001,0 -21.411408,9.564457 -21.411408,21.348567 0,11.785297 9.6492,20.840071 21.453576,20.840078 6.580445,0 12.063898,-2.923018 15.631089,-7.542283 6.07979,-1.698621 10.2813,-7.193402 10.28732,-13.454063 -0.006,-6.165707 -4.0829,-11.60057 -10.03845,-13.38213 -3.569951,-4.783641 -9.177439,-7.810169 -15.922127,-7.810169 z m -24.63602,0.410933 -12.237804,20.322476 -6.799792,-10.107908 3.184094,-4.855105 z m 24.63602,0.520895 c 6.03183,0 11.086342,2.490224 14.493375,6.52777 -0.873798,-0.169177 -1.762146,-0.256002 -2.652446,-0.259626 -4.138375,0.01474 -8.062451,1.825752 -10.73464,4.957631 -0.02066,-0.01474 -0.04119,-0.02502 -0.06201,-0.04051 -1.615982,-1.011576 -3.523865,-1.594117 -5.564519,-1.594117 -5.831451,0 -10.565141,4.775488 -10.565141,10.649479 0,5.873997 4.733692,10.64948 10.565141,10.64948 2.020639,0 3.909105,-0.572622 5.51491,-1.565998 0.02548,-0.01969 0.05141,-0.03188 0.07689,-0.04962 2.676017,3.149292 6.615163,4.970827 10.769366,4.979128 0.805265,-0.0026 1.609239,-0.07849 2.401922,-0.219108 -3.391021,3.890039 -8.327604,6.291299 -14.200685,6.291299 -11.329645,0 -20.522573,-8.631156 -20.522573,-19.909075 0,-11.279119 9.164387,-20.416739 20.480405,-20.416739 z M 27.012017,20.8695 h 10.465927 v 10.41301 l -3.864572,5.88946 3.865398,5.601725 c 0.01041,4.076353 0.04367,8.317298 -8.82e-4,12.716535 h -10.4659 z m 53.586391,6.903145 c 1.863019,0 3.597526,0.530419 5.070908,1.452727 1.523793,0.953833 3.013167,2.322826 4.047295,3.929892 0.639331,1.354384 0.974425,2.834962 0.980614,4.335031 -0.0059,1.501424 -0.340674,2.982675 -0.980614,4.338341 -1.042217,1.618663 -2.547581,2.995123 -4.089463,3.948905 -1.464047,0.905642 -3.183974,1.431231 -5.028739,1.431231 -5.323865,0 -9.634138,-4.342858 -9.634138,-9.717651 0,-5.374839 4.310272,-9.718476 9.634137,-9.718476 z M 43.860188,61.425992 24.966458,72.548415 26.849131,87.872749 40.687669,94.580765 45.918976,77.302648 65.60315,66.391065 Z M 85.088884,62.031225 66.195152,73.152821 68.078657,88.477983 81.917195,95.185992 87.148502,77.90788 106.83267,66.996298 Z M 44.015631,62.413223 63.021808,66.764785 27.604022,86.385298 25.961126,73.042027 Z M 85.244325,63.01845 104.25133,67.370025 68.833548,86.990531 67.189822,73.646434 Z M 49.786029,80.059274 45.088844,96.777635 24.456306,107.99182 c 7.448431,1.65312 14.895078,3.31366 22.342407,4.97169 l 18.40012,-10.8256 -1.826453,-15.297035 z m 41.599938,0.522555 -5.067596,16.060208 -20.632538,11.214193 c 7.448444,1.65304 14.895072,3.31365 22.342407,4.97168 l 18.40012,-10.82559 -1.82728,-15.296223 z m 12.453603,7.597669 1.58668,13.329202 -17.553455,10.33198 -19.549396,-4.35818 z M 62.610878,88.315097 64.19755,101.6443 46.643276,111.97628 27.093873,107.61727 Z"
         style="color:#000000;font-style:normal;font-variant:normal;font-weight:normal;font-stretch:normal;font-size:medium;line-height:normal;font-family:sans-serif;font-variant-ligatures:normal;font-variant-position:normal;font-variant-caps:normal;font-variant-numeric:normal;font-variant-alternates:normal;font-feature-settings:normal;text-indent:0;text-align:start;text-decoration:none;text-decoration-line:none;text-decoration-style:solid;text-decoration-color:#000000;letter-spacing:normal;word-spacing:normal;text-transform:none;writing-mode:lr-tb;direction:ltr;text-orientation:mixed;dominant-baseline:auto;baseline-shift:baseline;text-anchor:start;white-space:normal;shape-padding:0;clip-rule:nonzero;display:inline;overflow:visible;visibility:visible;opacity:1;isolation:auto;mix-blend-mode:normal;color-interpolation:sRGB;color-interpolation-filters:linearRGB;solid-color:#000000;solid-opacity:1;vector-effect:none;fill:url(#linearGradient1266);fill-opacity:1;fill-rule:nonzero;stroke:url(#linearGradient1268);stroke-width:1.6289866;stroke-linecap:round;stroke-linejoin:round;stroke-miterlimit:3.5;stroke-dasharray:none;stroke-dashoffset:0;stroke-opacity:1;paint-order:stroke markers fill;color-rendering:auto;image-rendering:auto;shape-rendering:auto;text-rendering:auto;enable-background:accumulate"
         inkscape:connector-curvature="0" />
    </g>
    <g
       inkscape:label="Layer 1"
       id="layer1-626"
       transform="matrix(0.50000134,0,0,0.50000134,117.12065,17.355374)">
      <path
         inkscape:export-ydpi="650.23999"
         inkscape:export-xdpi="650.23999"
         inkscape:export-filename="/home/xypnox/koss-sticker.png"
         id="path1545-18"
         d="m 62.5919,15.036787 -18.562176,6.26897 -3.150196,4.798056 -0.0026,-0.0026 -2.468893,3.762871 v -9.925165 h -12.32789 v 36.481928 h 12.321316 l 0.0066,-0.458059 c 0.04727,-4.106101 0.01981,-8.024368 0.0058,-11.833491 l 7.462875,10.812385 16.678674,3.382532 -13.739317,-20.4217 z m 22.526791,1.281575 c -11.818001,0 -21.411408,9.564457 -21.411408,21.348567 0,11.785297 9.649201,20.840071 21.453576,20.840078 6.580445,0 12.063899,-2.923018 15.631081,-7.542283 6.0798,-1.698621 10.28131,-7.193402 10.28733,-13.454063 -0.006,-6.165707 -4.0829,-11.60057 -10.03846,-13.38213 C 97.470867,19.34489 91.86338,16.318362 85.118691,16.318362 Z M 60.482672,16.729295 48.244868,37.051771 41.445076,26.943863 44.62917,22.088758 Z m 24.636019,0.520895 c 6.03183,0 11.086342,2.490224 14.493375,6.52777 -0.873798,-0.169177 -1.762146,-0.256002 -2.652446,-0.259626 -4.138375,0.01474 -8.062451,1.825752 -10.73464,4.957631 -0.02066,-0.01474 -0.04119,-0.02502 -0.06201,-0.04051 -1.615982,-1.011576 -3.523865,-1.594117 -5.564518,-1.594117 -5.831451,0 -10.565142,4.775488 -10.565142,10.649479 0,5.873997 4.733692,10.64948 10.565142,10.64948 2.020638,0 3.909105,-0.572622 5.51491,-1.565998 0.02548,-0.01969 0.05141,-0.03188 0.07689,-0.04962 2.676017,3.149292 6.615163,4.970827 10.769366,4.979128 0.805265,-0.0026 1.609239,-0.07849 2.401922,-0.219108 -3.391021,3.890039 -8.327604,6.291299 -14.200685,6.291299 -11.329645,0 -20.522573,-8.631156 -20.522573,-19.909075 0,-11.279119 9.164387,-20.416739 20.480405,-20.416739 z m -58.106635,3.619004 h 10.465926 v 10.41301 l -3.864572,5.88946 3.865398,5.601725 c 0.01041,4.076353 0.04367,8.317298 -8.82e-4,12.716535 h -10.4659 z m 53.586391,6.903145 c 1.863019,0 3.597525,0.530419 5.070907,1.452727 1.523793,0.953833 3.013168,2.322826 4.047295,3.929892 0.639331,1.354384 0.974425,2.834962 0.980614,4.335031 -0.0059,1.501424 -0.340674,2.982675 -0.980614,4.338341 -1.042217,1.618663 -2.547581,2.995123 -4.089463,3.948905 -1.464047,0.905642 -3.183974,1.431231 -5.028739,1.431231 -5.323865,0 -9.634138,-4.342858 -9.634138,-9.717651 0,-5.374839 4.310273,-9.718476 9.634138,-9.718476 z m -36.73822,33.653347 -18.89373,11.122423 1.882673,15.324334 13.838538,6.708015 5.231307,-17.278117 19.684174,-10.911583 z m 41.228695,0.605233 -18.893731,11.121596 1.883504,15.325162 13.838538,6.708009 5.231307,-17.278112 19.68417,-10.911582 z M 44.01567,62.412917 63.021847,66.764479 27.604061,86.384992 25.961165,73.041721 Z M 85.244364,63.018144 104.25137,67.369719 68.833587,86.990225 67.18986,73.646127 Z M 49.786068,80.058968 45.088883,96.777329 24.456345,107.99152 c 7.448431,1.65312 14.895078,3.31366 22.342407,4.97169 l 18.40012,-10.8256 -1.826454,-15.297041 z m 41.599937,0.522555 -5.067596,16.060208 -20.632538,11.214199 c 7.448444,1.65304 14.895072,3.31365 22.342407,4.97168 L 106.4284,102.00202 104.60112,86.705791 Z m 12.453605,7.597669 1.58668,13.329208 -17.553457,10.33198 -19.549396,-4.35818 z M 62.610917,88.314791 64.197588,101.644 46.643314,111.97598 27.093912,107.61697 Z"
         style="color:#000000;font-style:normal;font-variant:normal;font-weight:normal;font-stretch:normal;font-size:medium;line-height:normal;font-family:sans-serif;font-variant-ligatures:normal;font-variant-position:normal;font-variant-caps:normal;font-variant-numeric:normal;font-variant-alternates:normal;font-feature-settings:normal;text-indent:0;text-align:start;text-decoration:none;text-decoration-line:none;text-decoration-style:solid;text-decoration-color:#000000;letter-spacing:normal;word-spacing:normal;text-transform:none;writing-mode:lr-tb;direction:ltr;text-orientation:mixed;dominant-baseline:auto;baseline-shift:baseline;text-anchor:start;white-space:normal;shape-padding:0;clip-rule:nonzero;display:inline;overflow:visible;visibility:visible;opacity:1;isolation:auto;mix-blend-mode:normal;color-interpolation:sRGB;color-interpolation-filters:linearRGB;solid-color:#000000;solid-opacity:1;vector-effect:none;fill:url(#linearGradient926-7);fill-opacity:1;fill-rule:nonzero;stroke:url(#linearGradient928-0);stroke-width:1.6289866;stroke-linecap:round;stroke-linejoin:round;stroke-miterlimit:3.5;stroke-dasharray:none;stroke-dashoffset:0;stroke-opacity:1;paint-order:stroke markers fill;color-rendering:auto;image-rendering:auto;shape-rendering:auto;text-rendering:auto;enable-background:accumulate"
         inkscape:connector-curvature="0" />
    </g>
    <g
       inkscape:label="Layer 1"
       id="layer1-9"
       transform="matrix(0.50000134,0,0,0.50000134,118.40327,108.04745)">
      <path
         inkscape:export-ydpi="650.23999"
         inkscape:export-xdpi="650.23999"
         inkscape:export-filename="/home/xypnox/koss-sticker.png"
         id="path1545-2"
         d="m 62.5919,15.036787 -18.562176,6.26897 -3.150196,4.798056 -0.0026,-0.0026 -2.468893,3.762871 v -9.925165 h -12.32789 v 36.481928 h 12.321316 l 0.0066,-0.458059 c 0.04727,-4.106101 0.01981,-8.024368 0.0058,-11.833491 l 7.462875,10.812385 16.678674,3.382532 -13.739317,-20.4217 z m 22.526791,1.281575 c -11.818001,0 -21.411408,9.564457 -21.411408,21.348567 0,11.785297 9.649201,20.840071 21.453576,20.840078 6.580445,0 12.063899,-2.923018 15.631081,-7.542283 6.0798,-1.698621 10.28131,-7.193402 10.28733,-13.454063 -0.006,-6.165707 -4.0829,-11.60057 -10.03846,-13.38213 C 97.470867,19.34489 91.86338,16.318362 85.118691,16.318362 Z M 60.482672,16.729295 48.244868,37.051771 41.445076,26.943863 44.62917,22.088758 Z m 24.636019,0.520895 c 6.03183,0 11.086342,2.490224 14.493375,6.52777 -0.873798,-0.169177 -1.762146,-0.256002 -2.652446,-0.259626 -4.138375,0.01474 -8.062451,1.825752 -10.73464,4.957631 -0.02066,-0.01474 -0.04119,-0.02502 -0.06201,-0.04051 -1.615982,-1.011576 -3.523865,-1.594117 -5.564518,-1.594117 -5.831451,0 -10.565142,4.775488 -10.565142,10.649479 0,5.873997 4.733692,10.64948 10.565142,10.64948 2.020638,0 3.909105,-0.572622 5.51491,-1.565998 0.02548,-0.01969 0.05141,-0.03188 0.07689,-0.04962 2.676017,3.149292 6.615163,4.970827 10.769366,4.979128 0.805265,-0.0026 1.609239,-0.07849 2.401922,-0.219108 -3.391021,3.890039 -8.327604,6.291299 -14.200685,6.291299 -11.329645,0 -20.522573,-8.631156 -20.522573,-19.909075 0,-11.279119 9.164387,-20.416739 20.480405,-20.416739 z m -58.106635,3.619004 h 10.465926 v 10.41301 l -3.864572,5.88946 3.865398,5.601725 c 0.01041,4.076353 0.04367,8.317298 -8.82e-4,12.716535 h -10.4659 z m 53.586391,6.903145 c 1.863019,0 3.597525,0.530419 5.070907,1.452727 1.523793,0.953833 3.013168,2.322826 4.047295,3.929892 0.639331,1.354384 0.974425,2.834962 0.980614,4.335031 -0.0059,1.501424 -0.340674,2.982675 -0.980614,4.338341 -1.042217,1.618663 -2.547581,2.995123 -4.089463,3.948905 -1.464047,0.905642 -3.183974,1.431231 -5.028739,1.431231 -5.323865,0 -9.634138,-4.342858 -9.634138,-9.717651 0,-5.374839 4.310273,-9.718476 9.634138,-9.718476 z m -36.73822,33.653347 -18.89373,11.122423 1.882673,15.324334 13.838538,6.708015 5.231307,-17.278117 19.684174,-10.911583 z m 41.228695,0.605233 -18.893731,11.121596 1.883504,15.325162 13.838538,6.708009 5.231307,-17.278112 19.68417,-10.911582 z M 44.01567,62.412917 63.021847,66.764479 27.604061,86.384992 25.961165,73.041721 Z M 85.244364,63.018144 104.25137,67.369719 68.833587,86.990225 67.18986,73.646127 Z M 49.786068,80.058968 45.088883,96.777329 24.456345,107.99152 c 7.448431,1.65312 14.895078,3.31366 22.342407,4.97169 l 18.40012,-10.8256 -1.826454,-15.297041 z m 41.599937,0.522555 -5.067596,16.060208 -20.632538,11.214199 c 7.448444,1.65304 14.895072,3.31365 22.342407,4.97168 L 106.4284,102.00202 104.60112,86.705791 Z m 12.453605,7.597669 1.58668,13.329208 -17.553457,10.33198 -19.549396,-4.35818 z M 62.610917,88.314791 64.197588,101.644 46.643314,111.97598 27.093912,107.61697 Z"
         style="color:#000000;font-style:normal;font-variant:normal;font-weight:normal;font-stretch:normal;font-size:medium;line-height:normal;font-family:sans-serif;font-variant-ligatures:normal;font-variant-position:normal;font-variant-caps:normal;font-variant-numeric:normal;font-variant-alternates:normal;font-feature-settings:normal;text-indent:0;text-align:start;text-decoration:none;text-decoration-line:none;text-decoration-style:solid;text-decoration-color:#000000;letter-spacing:normal;word-spacing:normal;text-transform:none;writing-mode:lr-tb;direction:ltr;text-orientation:mixed;dominant-baseline:auto;baseline-shift:baseline;text-anchor:start;white-space:normal;shape-padding:0;clip-rule:nonzero;display:inline;overflow:visible;visibility:visible;opacity:1;isolation:auto;mix-blend-mode:normal;color-interpolation:sRGB;color-interpolation-filters:linearRGB;solid-color:#000000;solid-opacity:1;vector-effect:none;fill:#55b1ed;fill-opacity:1;fill-rule:nonzero;stroke:#55b1ed;stroke-width:1.6289866;stroke-linecap:round;stroke-linejoin:round;stroke-miterlimit:3.5;stroke-dasharray:none;stroke-dashoffset:0;stroke-opacity:1;paint-order:stroke markers fill;color-rendering:auto;image-rendering:auto;shape-rendering:auto;text-rendering:auto;enable-background:accumulate"
         inkscape:connector-curvature="0" />
    </g>
    <g
       inkscape:label="Layer 1"
       id="layer1-2"
       transform="matrix(0.5,0,0,0.5,29.969997,199.01106)">
      <rect
         inkscape:export-ydpi="650.23999"
         inkscape:export-xdpi="650.23999"
         inkscape:export-filename="/home/xypnox/koss-sticker.png"
         ry="19.91111"
         y="0"
         x="7.1054274e-15"
         height="128"
         width="128"
         id="rect896-3"
         style="opacity:1;fill:#232b40;fill-opacity:1;fill-rule:nonzero;stroke:none;stroke-width:1.88148141;stroke-linecap:round;stroke-linejoin:round;stroke-miterlimit:3.5;stroke-dasharray:none;stroke-opacity:1;paint-order:stroke markers fill" />
      <path
         inkscape:export-ydpi="650.23999"
         inkscape:export-xdpi="650.23999"
         inkscape:export-filename="/home/xypnox/koss-sticker.png"
         id="path1545-7"
         d="m 62.5919,15.036787 -18.562176,6.26897 -3.150196,4.798056 -0.0026,-0.0026 -2.468893,3.762871 v -9.925165 h -12.32789 v 36.481928 h 12.321316 l 0.0066,-0.458059 c 0.04727,-4.106101 0.01981,-8.024368 0.0058,-11.833491 l 7.462875,10.812385 16.678674,3.382532 -13.739317,-20.4217 z m 22.526791,1.281575 c -11.818001,0 -21.411408,9.564457 -21.411408,21.348567 0,11.785297 9.649201,20.840071 21.453576,20.840078 6.580445,0 12.063899,-2.923018 15.631081,-7.542283 6.0798,-1.698621 10.28131,-7.193402 10.28733,-13.454063 -0.006,-6.165707 -4.0829,-11.60057 -10.03846,-13.38213 C 97.470867,19.34489 91.86338,16.318362 85.118691,16.318362 Z M 60.482672,16.729295 48.244868,37.051771 41.445076,26.943863 44.62917,22.088758 Z m 24.636019,0.520895 c 6.03183,0 11.086342,2.490224 14.493375,6.52777 -0.873798,-0.169177 -1.762146,-0.256002 -2.652446,-0.259626 -4.138375,0.01474 -8.062451,1.825752 -10.73464,4.957631 -0.02066,-0.01474 -0.04119,-0.02502 -0.06201,-0.04051 -1.615982,-1.011576 -3.523865,-1.594117 -5.564518,-1.594117 -5.831451,0 -10.565142,4.775488 -10.565142,10.649479 0,5.873997 4.733692,10.64948 10.565142,10.64948 2.020638,0 3.909105,-0.572622 5.51491,-1.565998 0.02548,-0.01969 0.05141,-0.03188 0.07689,-0.04962 2.676017,3.149292 6.615163,4.970827 10.769366,4.979128 0.805265,-0.0026 1.609239,-0.07849 2.401922,-0.219108 -3.391021,3.890039 -8.327604,6.291299 -14.200685,6.291299 -11.329645,0 -20.522573,-8.631156 -20.522573,-19.909075 0,-11.279119 9.164387,-20.416739 20.480405,-20.416739 z m -58.106635,3.619004 h 10.465926 v 10.41301 l -3.864572,5.88946 3.865398,5.601725 c 0.01041,4.076353 0.04367,8.317298 -8.82e-4,12.716535 h -10.4659 z m 53.586391,6.903145 c 1.863019,0 3.597525,0.530419 5.070907,1.452727 1.523793,0.953833 3.013168,2.322826 4.047295,3.929892 0.639331,1.354384 0.974425,2.834962 0.980614,4.335031 -0.0059,1.501424 -0.340674,2.982675 -0.980614,4.338341 -1.042217,1.618663 -2.547581,2.995123 -4.089463,3.948905 -1.464047,0.905642 -3.183974,1.431231 -5.028739,1.431231 -5.323865,0 -9.634138,-4.342858 -9.634138,-9.717651 0,-5.374839 4.310273,-9.718476 9.634138,-9.718476 z m -36.73822,33.653347 -18.89373,11.122423 1.882673,15.324334 13.838538,6.708015 5.231307,-17.278117 19.684174,-10.911583 z m 41.228695,0.605233 -18.893731,11.121596 1.883504,15.325162 13.838538,6.708009 5.231307,-17.278112 19.68417,-10.911582 z M 44.01567,62.412917 63.021847,66.764479 27.604061,86.384992 25.961165,73.041721 Z M 85.244364,63.018144 104.25137,67.369719 68.833587,86.990225 67.18986,73.646127 Z M 49.786068,80.058968 45.088883,96.777329 24.456345,107.99152 c 7.448431,1.65312 14.895078,3.31366 22.342407,4.97169 l 18.40012,-10.8256 -1.826454,-15.297041 z m 41.599937,0.522555 -5.067596,16.060208 -20.632538,11.214199 c 7.448444,1.65304 14.895072,3.31365 22.342407,4.97168 L 106.4284,102.00202 104.60112,86.705791 Z m 12.453605,7.597669 1.58668,13.329208 -17.553457,10.33198 -19.549396,-4.35818 z M 62.610917,88.314791 64.197588,101.644 46.643314,111.97598 27.093912,107.61697 Z"
         style="color:#000000;font-style:normal;font-variant:normal;font-weight:normal;font-stretch:normal;font-size:medium;line-height:normal;font-family:sans-serif;font-variant-ligatures:normal;font-variant-position:normal;font-variant-caps:normal;font-variant-numeric:normal;font-variant-alternates:normal;font-feature-settings:normal;text-indent:0;text-align:start;text-decoration:none;text-decoration-line:none;text-decoration-style:solid;text-decoration-color:#000000;letter-spacing:normal;word-spacing:normal;text-transform:none;writing-mode:lr-tb;direction:ltr;text-orientation:mixed;dominant-baseline:auto;baseline-shift:baseline;text-anchor:start;white-space:normal;shape-padding:0;clip-rule:nonzero;display:inline;overflow:visible;visibility:visible;opacity:1;isolation:auto;mix-blend-mode:normal;color-interpolation:sRGB;color-interpolation-filters:linearRGB;solid-color:#000000;solid-opacity:1;vector-effect:none;fill:#55b1ed;fill-opacity:1;fill-rule:nonzero;stroke:#55b1ed;stroke-width:1.6289866;stroke-linecap:round;stroke-linejoin:round;stroke-miterlimit:3.5;stroke-dasharray:none;stroke-dashoffset:0;stroke-opacity:1;paint-order:stroke markers fill;color-rendering:auto;image-rendering:auto;shape-rendering:auto;text-rendering:auto;enable-background:accumulate"
         inkscape:connector-curvature="0" />
    </g>
    <g
       inkscape:label="Layer 1"
       id="layer1-92"
       transform="matrix(1.8610544,0,0,1.8610544,32.188819,109.57832)">
      <g
         transform="translate(-0.57452389,1.281631)"
         id="g1457">
        <path
           sodipodi:nodetypes="cccccc"
           inkscape:connector-curvature="0"
           style="fill:#0691ce;stroke-width:0.06341463"
           d="m 16.285778,26.201036 5.30101,-2.880725 c 1.240244,-1.328679 2.522352,-2.61618 5.006938,-2.720917 l 0.472539,3.962834 -4.978048,2.929684 z"
           id="path1513" />
        <path
           sodipodi:nodetypes="cccccc"
           inkscape:connector-curvature="0"
           style="fill:#0691ce;stroke-width:0.06341463"
           d="m 16.7114,21.044662 -0.488142,-3.969747 5.115439,-3.012196 c 0.153678,-0.08286 5.591342,1.237758 5.643054,1.28947 l -5.040067,2.793521 c -1.726764,1.482899 -3.348749,2.335907 -5.230284,2.898952 z"
           id="path1515" />
        <path
           inkscape:connector-curvature="0"
           style="fill:#6c6d71;stroke:none;stroke-width:0.06341463;stroke-linejoin:miter;stroke-miterlimit:3.97000003;stroke-dasharray:none;stroke-opacity:1"
           d="m 22.75407,18.539257 3.839656,2.060137 -4.999522,2.716887 z"
           id="path1517" />
        <path
           inkscape:connector-curvature="0"
           style="fill:#6c6d71;stroke:none;stroke-width:0.06341463;stroke-linejoin:miter;stroke-miterlimit:3.97000003;stroke-dasharray:none;stroke-opacity:1"
           d="m 16.7114,21.044662 5.230284,-2.898952 -1.502248,4.96205 z"
           id="path1519" />
        <path
           id="path1545-28"
           d="m 4.7842506,25.792723 5.3010104,-2.880725 c 1.240244,-1.328679 2.522352,-2.61618 5.006938,-2.720917 l 0.472539,3.962834 -4.978048,2.929684 z"
           style="fill:#0691ce;stroke-width:0.06341463"
           inkscape:connector-curvature="0"
           sodipodi:nodetypes="cccccc" />
        <path
           id="path1547"
           d="m 5.2098726,20.636349 -0.488142,-3.969747 5.115439,-3.012196 c 0.153678,-0.08286 5.5913424,1.237758 5.6430544,1.28947 l -5.040067,2.793521 c -1.7267644,1.482899 -3.3487494,2.335907 -5.2302844,2.898952 z"
           style="fill:#0691ce;stroke-width:0.06341463"
           inkscape:connector-curvature="0"
           sodipodi:nodetypes="cccccc" />
        <path
           id="path1549"
           d="m 11.252543,18.130944 3.839656,2.060137 -4.999522,2.716887 z"
           style="fill:#6c6d71;stroke:none;stroke-width:0.06341463;stroke-linejoin:miter;stroke-miterlimit:3.97000003;stroke-dasharray:none;stroke-opacity:1"
           inkscape:connector-curvature="0" />
        <path
           id="path1551"
           d="m 5.2098726,20.636349 5.2302844,-2.898952 -1.5022484,4.96205 z"
           style="fill:#6c6d71;stroke:none;stroke-width:0.06341463;stroke-linejoin:miter;stroke-miterlimit:3.97000003;stroke-dasharray:none;stroke-opacity:1"
           inkscape:connector-curvature="0" />
        <path
           sodipodi:nodetypes="ssssssssssss"
           inkscape:connector-curvature="0"
           id="path1522"
           transform="translate(0.57452389,-1.281631)"
           d="m 20.667969,3.4199219 c -3.203355,-2e-7 -5.800781,2.5896479 -5.800781,5.7832031 0,3.193555 2.609144,5.642578 5.8125,5.642578 3.203354,0 5.435546,-2.538867 5.435546,-5.7324218 0,-3.1935549 -2.24391,-5.693359 -5.447265,-5.6933593 z m -1.251953,2.9140625 c 0.540541,0 1.045268,0.1546269 1.473052,0.4224086 0.794669,0.4974414 1.566011,1.3853595 1.566011,2.3979039 -1e-6,1.0178891 -0.776944,1.9098331 -1.578618,2.4057481 -0.425079,0.262955 -0.925204,0.414564 -1.460445,0.414564 -1.544671,0 -2.796875,-1.262697 -2.796875,-2.8203121 0,-1.5576156 1.252204,-2.8203125 2.796875,-2.8203125 z"
           style="opacity:1;fill:#0691ce;fill-opacity:1;stroke:none;stroke-width:0.1;stroke-linecap:round;stroke-linejoin:miter;stroke-miterlimit:19.39999962;stroke-dasharray:none;stroke-opacity:1;paint-order:stroke fill markers" />
        <path
           id="path1525"
           transform="translate(0.57452389,-1.281631)"
           d="m 23.947266,5.2851562 a 3.9096963,3.875 0 0 0 -3.0625,1.4746094 2.796875,2.8203125 0 0 1 1.328125,2.3945313 2.796875,2.8203125 0 0 1 -1.335938,2.4023441 3.9096963,3.875 0 0 0 3.070313,1.478515 3.9096963,3.875 0 0 0 3.910156,-3.8749998 3.9096963,3.875 0 0 0 -3.910156,-3.875 z"
           style="opacity:1;fill:#6c6d71;fill-opacity:1;stroke:none;stroke-width:0.1;stroke-linecap:round;stroke-linejoin:miter;stroke-miterlimit:3.97000003;stroke-dasharray:none;stroke-opacity:1;paint-order:stroke fill markers"
           inkscape:connector-curvature="0" />
        <path
           id="path1463"
           d="m 8.1769329,9.5065535 c 0.00262,1.2112985 0.015178,1.9907065 0,3.3087595 H 5.0219612 l -4.3e-6,-9.846276 3.154976,2e-7 V 6.0238877 L 9.9462039,3.327323 14.711235,1.7168497 11.067912,7.7677003 Z"
           style="fill:#0691ce;stroke-width:0.06341463"
           inkscape:connector-curvature="0" />
        <path
           id="path1495"
           d="M 10.374957,12.533575 7.0026119,7.8136827 9.014345,4.747579 l 5.979662,8.722823 z"
           style="fill:#6c6d71;stroke:none;stroke-width:0.06341463;stroke-linejoin:miter;stroke-miterlimit:3.97000003;stroke-dasharray:none;stroke-opacity:1"
           inkscape:connector-curvature="0" />
      </g>
    </g>
    <text
       xml:space="preserve"
       style="font-style:normal;font-variant:normal;font-weight:normal;font-stretch:normal;font-size:14.11111069px;line-height:1.25;font-family:'Josefin Sans';-inkscape-font-specification:'Josefin Sans';letter-spacing:0px;word-spacing:0px;fill:#232b40;fill-opacity:1;stroke:none;stroke-width:0.26458332;"
       x="45.870213"
       y="98.953278"
       id="text1272"><tspan
         sodipodi:role="line"
         id="tspan1270"
         x="45.870213"
         y="98.953278"
         style="font-style:normal;font-variant:normal;font-weight:bold;font-stretch:normal;font-family:Lato;-inkscape-font-specification:'Lato Bold';stroke-width:0.26458332;fill:#232b40;fill-opacity:1;">Main</tspan></text>
    <text
       id="text1276"
       y="95.746048"
       x="133.63477"
       style="font-style:normal;font-variant:normal;font-weight:normal;font-stretch:normal;font-size:14.11111069px;line-height:1.25;font-family:'Josefin Sans';-inkscape-font-specification:'Josefin Sans';letter-spacing:0px;word-spacing:0px;fill:#232b40;fill-opacity:1;stroke:none;stroke-width:0.26458332;"
       xml:space="preserve"><tspan
         style="font-style:normal;font-variant:normal;font-weight:bold;font-stretch:normal;font-family:Lato;-inkscape-font-specification:'Lato Bold';stroke-width:0.26458332;fill:#232b40;fill-opacity:1;"
         y="95.746048"
         x="133.63477"
         id="tspan1274"
         sodipodi:role="line">Light</tspan></text>
    <text
       id="text1282"
       y="180.45464"
       x="50.731709"
       style="font-style:normal;font-variant:normal;font-weight:normal;font-stretch:normal;font-size:14.11111069px;line-height:1.25;font-family:'Josefin Sans';-inkscape-font-specification:'Josefin Sans';letter-spacing:0px;word-spacing:0px;fill:#232b40;fill-opacity:1;stroke:none;stroke-width:0.26458332;"
       xml:space="preserve"><tspan
         style="font-style:normal;font-variant:normal;font-weight:bold;font-stretch:normal;font-family:Lato;-inkscape-font-specification:'Lato Bold';stroke-width:0.26458332;fill:#232b40;fill-opacity:1;"
         y="180.45464"
         x="50.731709"
         id="tspan1280"
         sodipodi:role="line">Old</tspan></text>
    <text
       xml:space="preserve"
       style="font-style:normal;font-variant:normal;font-weight:normal;font-stretch:normal;font-size:9.87777805px;line-height:1.25;font-family:'Josefin Sans';-inkscape-font-specification:'Josefin Sans';text-align:center;letter-spacing:0px;word-spacing:0px;text-anchor:middle;fill:#232b40;fill-opacity:1;stroke:none;stroke-width:0.26458332;"
       x="152.16853"
       y="178.04692"
       id="text1292"><tspan
         sodipodi:role="line"
         id="tspan1290"
         x="152.16853"
         y="178.04692"
         style="font-style:normal;font-variant:normal;font-weight:bold;font-stretch:normal;font-family:Lato;-inkscape-font-specification:'Lato Bold';text-align:center;text-anchor:middle;stroke-width:0.26458332;fill:#232b40;fill-opacity:1;">Light Plain</tspan></text>
    <text
       id="text1298"
       y="274.9978"
       x="61.851231"
       style="font-style:normal;font-variant:normal;font-weight:normal;font-stretch:normal;font-size:9.87777805px;line-height:1.25;font-family:'Josefin Sans';-inkscape-font-specification:'Josefin Sans';text-align:center;letter-spacing:0px;word-spacing:0px;text-anchor:middle;fill:#232b40;fill-opacity:1;stroke:none;stroke-width:0.26458332;"
       xml:space="preserve"><tspan
         style="font-style:normal;font-variant:normal;font-weight:bold;font-stretch:normal;font-family:Lato;-inkscape-font-specification:'Lato Bold';text-align:center;text-anchor:middle;stroke-width:0.26458332;fill:#232b40;fill-opacity:1;"
         y="274.9978"
         x="61.851231"
         id="tspan1296"
         sodipodi:role="line">Dark Plain</tspan></text>
    <text
       xml:space="preserve"
       style="font-style:normal;font-variant:normal;font-weight:normal;font-stretch:normal;font-size:9.87777805px;line-height:1.25;font-family:'Josefin Sans';-inkscape-font-specification:'Josefin Sans';text-align:center;letter-spacing:0px;word-spacing:0px;text-anchor:middle;fill:#232b40;fill-opacity:1;stroke:none;stroke-width:0.26458332;"
       x="152.16853"
       y="274.05286"
       id="text1302"><tspan
         sodipodi:role="line"
         id="tspan1300"
         x="152.16853"
         y="274.05286"
         style="font-style:normal;font-variant:normal;font-weight:bold;font-stretch:normal;font-family:Lato;-inkscape-font-specification:'Lato Bold';text-align:center;text-anchor:middle;stroke-width:0.26458332;fill:#232b40;fill-opacity:1;">Square</tspan></text>
  </g>
</svg>
