<?xml version="1.0" encoding="UTF-8" standalone="no"?>
<!-- Created with Inkscape (http://www.inkscape.org/) -->

<svg
   xmlns:dc="http://purl.org/dc/elements/1.1/"
   xmlns:cc="http://creativecommons.org/ns#"
   xmlns:rdf="http://www.w3.org/1999/02/22-rdf-syntax-ns#"
   xmlns:svg="http://www.w3.org/2000/svg"
   xmlns="http://www.w3.org/2000/svg"
   xmlns:sodipodi="http://sodipodi.sourceforge.net/DTD/sodipodi-0.dtd"
   xmlns:inkscape="http://www.inkscape.org/namespaces/inkscape"
   width="32px"
   height="32px"
   viewBox="0 0 32 32"
   version="1.1"
   id="SVGRoot"
   inkscape:version="0.92.3 (2405546, 2018-03-11)"
   sodipodi:docname="KOSS_Vector.svg">
  <sodipodi:namedview
     id="base"
     pagecolor="#ffffff"
     bordercolor="#666666"
     borderopacity="1.0"
     inkscape:pageopacity="0.0"
     inkscape:pageshadow="2"
     inkscape:zoom="5.6568543"
     inkscape:cx="-10.157135"
     inkscape:cy="31.565812"
     inkscape:document-units="px"
     inkscape:current-layer="layer1"
     showgrid="false"
     inkscape:window-width="1920"
     inkscape:window-height="1057"
     inkscape:window-x="0"
     inkscape:window-y="0"
     inkscape:window-maximized="0"
     inkscape:grid-bbox="true"
     showguides="true"
     inkscape:guide-bbox="true"
     inkscape:snap-bbox="true"
     inkscape:bbox-paths="true"
     inkscape:bbox-nodes="true"
     inkscape:snap-bbox-edge-midpoints="true"
     inkscape:snap-bbox-midpoints="true"
     inkscape:object-paths="true"
     inkscape:snap-intersection-paths="true"
     inkscape:snap-smooth-nodes="true"
     inkscape:snap-midpoints="true"
     inkscape:snap-object-midpoints="true"
     inkscape:snap-center="true"
     inkscape:snap-text-baseline="true"
     inkscape:measure-start="0,0"
     inkscape:measure-end="0,0"
     inkscape:snap-global="true">
    <sodipodi:guide
       position="7.602409,27.749332"
       orientation="1,0"
       id="guide1467"
       inkscape:locked="false" />
    <sodipodi:guide
       position="7.602409,27.749332"
       orientation="0,1"
       id="guide1471"
       inkscape:locked="false" />
    <sodipodi:guide
       position="4.4474373,27.749332"
       orientation="1,0"
       id="guide1473"
       inkscape:locked="false" />
    <sodipodi:guide
       position="7.602409,17.903056"
       orientation="0,1"
       id="guide1475"
       inkscape:locked="false" />
    <sodipodi:guide
       position="8.4398211,25.97079"
       orientation="-0.83609762,0.54858069"
       id="guide1477"
       inkscape:locked="false" />
  </sodipodi:namedview>
  <defs
     id="defs815" />
  <metadata
     id="metadata818">
    <rdf:RDF>
      <cc:Work
         rdf:about="">
        <dc:format>image/svg+xml</dc:format>
        <dc:type
           rdf:resource="http://purl.org/dc/dcmitype/StillImage" />
        <dc:title></dc:title>
      </cc:Work>
    </rdf:RDF>
  </metadata>
  <g
     id="layer1"
     inkscape:groupmode="layer"
     inkscape:label="Layer 1">
    <g
       id="g1457"
       transform="translate(-0.57452389,1.281631)">
      <path
         id="path1513"
         d="m 16.285778,26.201036 5.30101,-2.880725 c 1.240244,-1.328679 2.522352,-2.61618 5.006938,-2.720917 l 0.472539,3.962834 -4.978048,2.929684 z"
         style="fill:#0691ce;stroke-width:0.06341463"
         inkscape:connector-curvature="0"
         sodipodi:nodetypes="cccccc" />
      <path
         id="path1515"
         d="m 16.7114,21.044662 -0.488142,-3.969747 5.115439,-3.012196 c 0.153678,-0.08286 5.591342,1.237758 5.643054,1.28947 l -5.040067,2.793521 c -1.726764,1.482899 -3.348749,2.335907 -5.230284,2.898952 z"
         style="fill:#0691ce;stroke-width:0.06341463"
         inkscape:connector-curvature="0"
         sodipodi:nodetypes="cccccc" />
      <path
         id="path1517"
         d="m 22.75407,18.539257 3.839656,2.060137 -4.999522,2.716887 z"
         style="fill:#6c6d71;stroke-width:0.06341463;stroke:none;stroke-opacity:1;stroke-linejoin:miter;stroke-miterlimit:3.97000008;stroke-dasharray:none"
         inkscape:connector-curvature="0" />
      <path
         id="path1519"
         d="m 16.7114,21.044662 5.230284,-2.898952 -1.502248,4.96205 z"
         style="fill:#6c6d71;stroke-width:0.06341463;stroke:none;stroke-opacity:1;stroke-linejoin:miter;stroke-miterlimit:3.97000008;stroke-dasharray:none"
         inkscape:connector-curvature="0" />
      <path
         sodipodi:nodetypes="cccccc"
         inkscape:connector-curvature="0"
         style="fill:#0691ce;stroke-width:0.06341463"
         d="m 4.7842506,25.792723 5.3010104,-2.880725 c 1.240244,-1.328679 2.522352,-2.61618 5.006938,-2.720917 l 0.472539,3.962834 -4.978048,2.929684 z"
         id="path1545" />
      <path
         sodipodi:nodetypes="cccccc"
         inkscape:connector-curvature="0"
         style="fill:#0691ce;stroke-width:0.06341463"
         d="m 5.2098726,20.636349 -0.488142,-3.969747 5.115439,-3.012196 c 0.153678,-0.08286 5.5913424,1.237758 5.6430544,1.28947 l -5.040067,2.793521 c -1.7267644,1.482899 -3.3487494,2.335907 -5.2302844,2.898952 z"
         id="path1547" />
      <path
         inkscape:connector-curvature="0"
         style="fill:#6c6d71;stroke:none;stroke-width:0.06341463;stroke-linejoin:miter;stroke-miterlimit:3.97000003;stroke-dasharray:none;stroke-opacity:1"
         d="m 11.252543,18.130944 3.839656,2.060137 -4.999522,2.716887 z"
         id="path1549" />
      <path
         inkscape:connector-curvature="0"
         style="fill:#6c6d71;stroke:none;stroke-width:0.06341463;stroke-linejoin:miter;stroke-miterlimit:3.97000003;stroke-dasharray:none;stroke-opacity:1"
         d="m 5.2098726,20.636349 5.2302844,-2.898952 -1.5022484,4.96205 z"
         id="path1551" />
      <path
         style="opacity:1;fill:#0691ce;fill-opacity:1;stroke:none;stroke-width:0.1;stroke-linecap:round;stroke-linejoin:miter;stroke-miterlimit:19.39999962;stroke-dasharray:none;stroke-opacity:1;paint-order:stroke fill markers"
         d="m 20.667969,3.4199219 c -3.203355,-2e-7 -5.800781,2.5896479 -5.800781,5.7832031 0,3.193555 2.609144,5.642578 5.8125,5.642578 3.203354,0 5.435546,-2.538867 5.435546,-5.7324218 0,-3.1935549 -2.24391,-5.693359 -5.447265,-5.6933593 z m -1.251953,2.9140625 c 0.540541,0 1.045268,0.1546269 1.473052,0.4224086 0.794669,0.4974414 1.566011,1.3853595 1.566011,2.3979039 -1e-6,1.0178891 -0.776944,1.9098331 -1.578618,2.4057481 -0.425079,0.262955 -0.925204,0.414564 -1.460445,0.414564 -1.544671,0 -2.796875,-1.262697 -2.796875,-2.8203121 0,-1.5576156 1.252204,-2.8203125 2.796875,-2.8203125 z"
         transform="translate(0.57452389,-1.281631)"
         id="path1522"
         inkscape:connector-curvature="0"
         sodipodi:nodetypes="ssssssssssss" />
      <path
         style="opacity:1;fill:#6c6d71;fill-opacity:1;stroke:none;stroke-width:0.1;stroke-linecap:round;stroke-linejoin:miter;stroke-miterlimit:3.97000008;stroke-dasharray:none;stroke-opacity:1;paint-order:stroke fill markers"
         d="M 23.947266 5.2851562 A 3.9096963 3.875 0 0 0 20.884766 6.7597656 A 2.796875 2.8203125 0 0 1 22.212891 9.1542969 A 2.796875 2.8203125 0 0 1 20.876953 11.556641 A 3.9096963 3.875 0 0 0 23.947266 13.035156 A 3.9096963 3.875 0 0 0 27.857422 9.1601562 A 3.9096963 3.875 0 0 0 23.947266 5.2851562 z "
         transform="translate(0.57452389,-1.281631)"
         id="path1525" />
      <path
         style="fill:#0691ce;stroke-width:0.06341463"
         d="m 8.1769329,9.5065535 c 0.00262,1.2112985 0.015178,1.9907065 0,3.3087595 H 5.0219612 l -4.3e-6,-9.846276 3.154976,2e-7 V 6.0238877 L 9.9462039,3.327323 14.711235,1.7168497 11.067912,7.7677003 Z"
         id="path1463" />
      <path
         style="fill:#6c6d71;stroke-width:0.06341463;stroke:none;stroke-opacity:1;stroke-linejoin:miter;stroke-miterlimit:3.97000008;stroke-dasharray:none"
         d="M 10.374957,12.533575 7.0026119,7.8136827 9.014345,4.747579 l 5.979662,8.722823 z"
         id="path1495" />
    </g>
  </g>
</svg>
