<?xml version="1.0" encoding="UTF-8" standalone="no"?>
<!-- Created with Inkscape (http://www.inkscape.org/) -->

<svg
   xmlns:dc="http://purl.org/dc/elements/1.1/"
   xmlns:cc="http://creativecommons.org/ns#"
   xmlns:rdf="http://www.w3.org/1999/02/22-rdf-syntax-ns#"
   xmlns:svg="http://www.w3.org/2000/svg"
   xmlns="http://www.w3.org/2000/svg"
   xmlns:xlink="http://www.w3.org/1999/xlink"
   xmlns:sodipodi="http://sodipodi.sourceforge.net/DTD/sodipodi-0.dtd"
   xmlns:inkscape="http://www.inkscape.org/namespaces/inkscape"
   width="1920px"
   height="1080px"
   viewBox="0 0 1920 1080"
   version="1.1"
   id="SVGRoot"
   inkscape:version="0.92.3 (2405546, 2018-03-11)"
   sodipodi:docname="video-thumbs.svg"
   inkscape:export-filename="/home/xypnox/day-4.png"
   inkscape:export-xdpi="96"
   inkscape:export-ydpi="96">
  <sodipodi:namedview
     id="base"
     pagecolor="#ffffff"
     bordercolor="#666666"
     borderopacity="1.0"
     inkscape:pageopacity="0.0"
     inkscape:pageshadow="2"
     inkscape:zoom="0.49497475"
     inkscape:cx="827.92641"
     inkscape:cy="598.85632"
     inkscape:document-units="px"
     inkscape:current-layer="layer1-7"
     showgrid="false"
     inkscape:window-width="1920"
     inkscape:window-height="1057"
     inkscape:window-x="0"
     inkscape:window-y="0"
     inkscape:window-maximized="0"
     inkscape:snap-bbox="true"
     inkscape:bbox-paths="true"
     inkscape:bbox-nodes="true"
     inkscape:snap-bbox-edge-midpoints="true"
     inkscape:snap-bbox-midpoints="true"
     inkscape:object-paths="true"
     inkscape:snap-intersection-paths="true"
     inkscape:snap-smooth-nodes="true"
     inkscape:snap-midpoints="true"
     inkscape:snap-object-midpoints="true"
     inkscape:snap-center="true"
     inkscape:snap-text-baseline="true"
     inkscape:snap-page="true"
     inkscape:lockguides="false"
     showguides="true"
     inkscape:guide-bbox="true">
    <sodipodi:guide
       position="960,1080"
       orientation="1,0"
       id="guide1521"
       inkscape:locked="false" />
  </sodipodi:namedview>
  <defs
     id="defs815">
    <linearGradient
       y2="304.99863"
       x2="217.85042"
       y1="835.21771"
       x1="460.02142"
       gradientTransform="matrix(0.15523734,0,0,0.15523734,1.9074441,1.685198)"
       gradientUnits="userSpaceOnUse"
       id="linearGradient926"
       xlink:href="#linearGradient969"
       inkscape:collect="always" />
    <linearGradient
       inkscape:collect="always"
       id="linearGradient969">
      <stop
         style="stop-color:#ff41be;stop-opacity:1"
         offset="0"
         id="stop963" />
      <stop
         id="stop965"
         offset="0.24285854"
         style="stop-color:#166ef2;stop-opacity:1" />
      <stop
         style="stop-color:#5affd6;stop-opacity:1"
         offset="1"
         id="stop967" />
    </linearGradient>
    <linearGradient
       y2="157.19157"
       x2="39.242439"
       y1="181.59468"
       x1="50.38826"
       gradientTransform="matrix(3.3729223,0,0,3.3729223,-96.635744,-481.16257)"
       gradientUnits="userSpaceOnUse"
       id="linearGradient928"
       xlink:href="#linearGradient969"
       inkscape:collect="always" />
    <filter
       inkscape:collect="always"
       style="color-interpolation-filters:sRGB"
       id="filter1507"
       x="-0.108"
       width="1.216"
       y="-0.108"
       height="1.216">
      <feGaussianBlur
         inkscape:collect="always"
         stdDeviation="5.76"
         id="feGaussianBlur1509" />
    </filter>
  </defs>
  <metadata
     id="metadata818">
    <rdf:RDF>
      <cc:Work
         rdf:about="">
        <dc:format>image/svg+xml</dc:format>
        <dc:type
           rdf:resource="http://purl.org/dc/dcmitype/StillImage" />
        <dc:title />
      </cc:Work>
    </rdf:RDF>
  </metadata>
  <g
     id="layer1"
     inkscape:groupmode="layer"
     inkscape:label="Layer 1">
    <rect
       style="opacity:1;fill:#ffffff;fill-opacity:1;fill-rule:nonzero;stroke:none;stroke-width:30.10393715;stroke-linecap:round;stroke-linejoin:round;stroke-miterlimit:4;stroke-dasharray:none;stroke-opacity:1;paint-order:stroke fill markers"
       id="rect1374"
       width="1920"
       height="1080"
       x="0"
       y="0"
       inkscape:export-filename="/home/xypnox/day-1.png"
       inkscape:export-xdpi="96"
       inkscape:export-ydpi="96" />
    <g
       inkscape:label="Layer 1"
       id="layer1-7"
       transform="matrix(3.8094868,0,0,3.8094868,321.87832,169.49216)">
      <rect
         style="opacity:1;fill:#232b40;fill-opacity:0.5098038;fill-rule:nonzero;stroke:none;stroke-width:1.88148141;stroke-linecap:round;stroke-linejoin:round;stroke-miterlimit:3.5;stroke-dasharray:none;stroke-opacity:1;paint-order:stroke markers fill;filter:url(#filter1507)"
         id="rect1457"
         width="128"
         height="128"
         x="0.46787548"
         y="31.718071"
         ry="19.91111"
         inkscape:export-filename="/home/xypnox/koss-sticker.png"
         inkscape:export-xdpi="650.23999"
         inkscape:export-ydpi="650.23999" />
      <rect
         inkscape:export-ydpi="650.23999"
         inkscape:export-xdpi="650.23999"
         inkscape:export-filename="/home/xypnox/koss-sticker.png"
         ry="19.91111"
         y="29.093044"
         x="-2.6821547"
         height="128"
         width="128"
         id="rect896"
         style="opacity:1;fill:#232b40;fill-opacity:1;fill-rule:nonzero;stroke:none;stroke-width:1.88148141;stroke-linecap:round;stroke-linejoin:round;stroke-miterlimit:3.5;stroke-dasharray:none;stroke-opacity:1;paint-order:stroke markers fill" />
      <path
         inkscape:export-ydpi="650.23999"
         inkscape:export-xdpi="650.23999"
         inkscape:export-filename="/home/xypnox/koss-sticker.png"
         id="path1545"
         d="m 59.909706,44.130137 -18.562176,6.26897 -3.150196,4.798056 -0.0026,-0.0026 -2.468893,3.762871 v -9.925165 h -12.32789 v 36.481928 h 12.321316 l 0.0066,-0.458059 c 0.04727,-4.106101 0.01981,-8.024368 0.0058,-11.833491 l 7.462875,10.812385 16.678674,3.382532 -13.739317,-20.4217 z m 22.526792,1.281575 c -11.818001,0 -21.411408,9.564457 -21.411408,21.348567 0,11.785297 9.6492,20.840071 21.453576,20.840078 6.580445,0 12.0639,-2.923018 15.631074,-7.542283 6.07977,-1.698621 10.28128,-7.193402 10.2873,-13.454063 -0.006,-6.165707 -4.0829,-11.60057 -10.03843,-13.38213 -3.569934,-4.783641 -9.177424,-7.810169 -15.922112,-7.810169 z m -24.63602,0.410933 -12.237804,20.322476 -6.799792,-10.107908 3.184094,-4.855105 z m 24.63602,0.520895 c 6.03183,0 11.086338,2.490224 14.493372,6.52777 -0.873796,-0.169177 -1.762144,-0.256002 -2.652444,-0.259626 -4.13837,0.01474 -8.06245,1.825752 -10.734639,4.957631 -0.02066,-0.01474 -0.04119,-0.02502 -0.06201,-0.04051 -1.615982,-1.011576 -3.523865,-1.594117 -5.564519,-1.594117 -5.831451,0 -10.565141,4.775488 -10.565141,10.649479 0,5.873997 4.733692,10.64948 10.565141,10.64948 2.020639,0 3.909105,-0.572622 5.51491,-1.565998 0.02548,-0.01969 0.05141,-0.03188 0.07689,-0.04962 2.676017,3.149292 6.615158,4.970827 10.769368,4.979128 0.80526,-0.0026 1.609238,-0.07849 2.401918,-0.219108 -3.391018,3.890039 -8.327602,6.291299 -14.200683,6.291299 -11.329645,0 -20.522573,-8.631156 -20.522573,-19.909075 0,-11.279119 9.164387,-20.416739 20.480405,-20.416739 z m -58.106636,3.619004 h 10.465927 v 10.41301 l -3.864572,5.88946 3.865398,5.601725 c 0.01041,4.076353 0.04367,8.317298 -8.82e-4,12.716535 h -10.4659 z m 53.586391,6.903145 c 1.863019,0 3.597526,0.530419 5.070908,1.452727 1.523793,0.953833 3.013167,2.322826 4.047295,3.929892 0.639331,1.354384 0.974425,2.834962 0.980614,4.335031 -0.0059,1.501424 -0.340674,2.982675 -0.980614,4.338341 -1.042217,1.618663 -2.547581,2.995123 -4.089463,3.948905 -1.464047,0.905642 -3.183974,1.431231 -5.028739,1.431231 -5.323865,0 -9.634138,-4.342858 -9.634138,-9.717651 0,-5.374839 4.310272,-9.718476 9.634137,-9.718476 z m -36.73822,33.653347 -18.89373,11.122414 1.882673,15.32434 13.838538,6.70801 5.231307,-17.27811 19.684174,-10.911581 z m 41.228696,0.605233 -18.893732,11.121591 1.883505,15.32516 13.838538,6.70801 5.231307,-17.27811 19.684133,-10.911578 z m -41.073253,0.381998 19.006177,4.351562 -35.417786,19.620511 -1.642896,-13.34327 z m 41.228694,0.605227 19.00697,4.351575 -35.417747,19.620501 -1.643726,-13.3441 z m -35.458296,17.040816 -4.697185,16.71836 -20.632538,11.21419 c 7.448431,1.65312 14.895078,3.31366 22.342407,4.97169 l 18.40012,-10.8256 -1.826453,-15.29704 z m 41.599938,0.52256 -5.067596,16.06021 -20.632538,11.21419 c 7.448444,1.65304 14.895072,3.31365 22.342407,4.97168 l 18.400085,-10.82559 -1.82728,-15.29622 z m 12.453568,7.59767 1.58668,13.3292 -17.55342,10.33198 -19.549396,-4.35818 z m -41.228657,0.1356 1.586672,13.3292 -17.554274,10.33198 -19.549403,-4.35901 z"
         style="color:#000000;font-style:normal;font-variant:normal;font-weight:normal;font-stretch:normal;font-size:medium;line-height:normal;font-family:sans-serif;font-variant-ligatures:normal;font-variant-position:normal;font-variant-caps:normal;font-variant-numeric:normal;font-variant-alternates:normal;font-feature-settings:normal;text-indent:0;text-align:start;text-decoration:none;text-decoration-line:none;text-decoration-style:solid;text-decoration-color:#000000;letter-spacing:normal;word-spacing:normal;text-transform:none;writing-mode:lr-tb;direction:ltr;text-orientation:mixed;dominant-baseline:auto;baseline-shift:baseline;text-anchor:start;white-space:normal;shape-padding:0;clip-rule:nonzero;display:inline;overflow:visible;visibility:visible;opacity:1;isolation:auto;mix-blend-mode:normal;color-interpolation:sRGB;color-interpolation-filters:linearRGB;solid-color:#000000;solid-opacity:1;vector-effect:none;fill:url(#linearGradient926);fill-opacity:1;fill-rule:nonzero;stroke:url(#linearGradient928);stroke-width:1.6289866;stroke-linecap:round;stroke-linejoin:round;stroke-miterlimit:3.5;stroke-dasharray:none;stroke-dashoffset:0;stroke-opacity:1;paint-order:stroke markers fill;color-rendering:auto;image-rendering:auto;shape-rendering:auto;text-rendering:auto;enable-background:accumulate"
         inkscape:connector-curvature="0" />
      <text
         xml:space="preserve"
         style="font-style:normal;font-variant:normal;font-weight:normal;font-stretch:normal;font-size:25.29889107px;line-height:1.25;font-family:'Josefin Sans';-inkscape-font-specification:'Josefin Sans';letter-spacing:0px;word-spacing:0px;fill:#232b40;fill-opacity:1;stroke:none;stroke-width:0.33882442"
         x="147.18149"
         y="55.429585"
         id="text1513"><tspan
           sodipodi:role="line"
           id="tspan1511"
           x="147.18149"
           y="55.429585"
           style="fill:#232b40;fill-opacity:1;stroke-width:0.33882442">Kharagpur Open </tspan><tspan
           sodipodi:role="line"
           x="147.18149"
           y="87.0532"
           style="fill:#232b40;fill-opacity:1;stroke-width:0.33882442"
           id="tspan1517">Source Society</tspan><tspan
           sodipodi:role="line"
           x="147.18149"
           y="118.67681"
           style="font-weight:bold;fill:#232b40;fill-opacity:1;stroke-width:0.33882442"
           id="tspan1515">Governace Week </tspan><tspan
           sodipodi:role="line"
           x="147.18149"
           y="150.30043"
           style="font-style:normal;font-variant:normal;font-weight:600;font-stretch:normal;font-family:'Josefin Sans';-inkscape-font-specification:'Josefin Sans Semi-Bold';fill:#232b40;fill-opacity:1;stroke-width:0.33882442"
           id="tspan839">2018-19 Day 1</tspan></text>
    </g>
  </g>
</svg>
